<?xml version="1.0" encoding="UTF-8"?>
<svg id="_圖層_1" data-name="圖層_1" xmlns="http://www.w3.org/2000/svg" version="1.1" viewBox="0 0 616.5 597">
  <!-- Generator: Adobe Illustrator 29.0.0, SVG Export Plug-In . SVG Version: 2.1.0 Build 186)  -->
  <defs>
    <style>
      .st0, .st1 {
        fill: #d1d4eb;
      }

      .st2 {
        fill: #b69874;
      }

      .st2, .st3, .st4, .st5, .st6, .st1 {
        stroke-linecap: round;
        stroke-linejoin: round;
        stroke-width: .5px;
      }

      .st2, .st4, .st6 {
        stroke: #bfae73;
      }

      .st3 {
        fill: #998dc2;
      }

      .st3, .st5, .st1 {
        stroke: #998dc2;
      }

      .st7, .st4 {
        fill: #fff;
      }

      .st8 {
        fill: none;
      }

      .st5 {
        fill: #2c286d;
      }

      .st6 {
        fill: #e8dfcc;
      }
    </style>
  </defs>
  <g>
    <path class="st4" d="M308.72,577.83c-34.49,0-66.76-18.24-93.76-52.86-7.54.92-14.92,1.39-22.03,1.39-33.58,0-61.81-10.48-81.63-30.3-24.38-24.38-34.3-60.09-28.91-103.67-34.62-27.01-52.86-59.27-52.86-93.75h558.39c0,34.47-18.24,66.75-52.87,93.75,5.4,43.57-4.53,79.29-28.92,103.67-19.82,19.82-48.04,30.3-81.62,30.3-7.11,0-14.49-.47-22.04-1.39-26.99,34.63-59.26,52.86-93.75,52.86Z"/>
    <path class="st6" d="M308.72,563.66c-31.99,0-62.2-18.64-87.45-53.92-9.77,1.62-19.31,2.45-28.34,2.45-29.74,0-54.5-9.04-71.61-26.15-22.62-22.62-30.8-57.15-23.7-99.96-35.29-25.26-53.92-55.46-53.92-87.44h530.05c0,31.98-18.64,62.19-53.93,87.44,7.11,42.79-1.07,77.34-23.71,99.96-17.11,17.11-41.87,26.15-71.6,26.15-9.03,0-18.56-.82-28.35-2.45-25.23,35.28-55.43,53.92-87.44,53.92Z"/>
    <path class="st4" d="M57.87,298.64h501.7c0,27.61-17.07,54.19-49.37,76.88l-5.88,4.13,1.23,7.09c6.8,38.88.07,69.75-19.46,89.27-14.39,14.39-35.68,22-61.58,22-8.74,0-18.05-.85-27.69-2.54l-7.08-1.23-4.14,5.88c-22.68,32.3-49.27,49.36-76.88,49.36s-54.2-17.06-76.89-49.36l-4.13-5.88-7.09,1.23c-9.63,1.69-18.95,2.54-27.68,2.54-25.9,0-47.2-7.61-61.59-22-19.52-19.52-26.25-50.39-19.46-89.27l1.24-7.09-5.89-4.13c-32.29-22.69-49.36-49.27-49.36-76.88Z"/>
    <path class="st8" d="M57.87,298.64h501.7c0,27.61-17.07,54.19-49.37,76.88l-5.88,4.13,1.23,7.09c6.8,38.88.07,69.75-19.46,89.27-14.39,14.39-35.68,22-61.58,22-8.74,0-18.05-.85-27.69-2.54l-7.08-1.23-4.14,5.88c-22.68,32.3-49.27,49.36-76.88,49.36s-54.2-17.06-76.89-49.36l-4.13-5.88-7.09,1.23c-9.63,1.69-18.95,2.54-27.68,2.54-25.9,0-47.2-7.61-61.59-22-19.52-19.52-26.25-50.39-19.46-89.27l1.24-7.09-5.89-4.13c-32.29-22.69-49.36-49.27-49.36-76.88Z"/>
    <g>
      <polygon class="st2" points="182.91 314.46 1.49 298.64 181.77 298.64 182.91 314.46"/>
      <polygon class="st2" points="434.54 314.46 615.96 298.64 435.67 298.64 434.54 314.46"/>
      <g>
        <path class="st2" d="M404.39,529.62l-47.09-113.69c2.13-.89,4.24-1.82,6.3-2.81l40.79,116.5Z"/>
        <path class="st2" d="M194.25,353.5l-116.5,40.81,113.67-47.11c.87,2.13,1.82,4.22,2.83,6.3Z"/>
        <path class="st2" d="M511.23,338.92l-77.99-15.53c.34-1.75.67-3.52.93-5.3l77.06,20.84Z"/>
        <path class="st2" d="M539.7,394.3l-113.7-47.09c.89-2.12,1.69-4.26,2.46-6.43l111.24,53.52Z"/>
        <path class="st2" d="M480.4,413.34l-66.13-44.19c1-1.51,1.99-3.02,2.91-4.57l63.22,48.76Z"/>
        <path class="st2" d="M493,482.89s-5.84-29.14-33.66-39.26c-27.84-10.14-40.36-33.02-48.77-48.77-1.94-3.62-4.87-7.17-8.25-10.47,2.18-2.39,4.27-4.85,6.25-7.37,3.48,3.58,6.64,7.52,9.42,12,2.78,5.28,5.58,11.22,8.65,16.23,6.67,11.33,15.18,21.28,26.4,28.11,6.08,3.82,13.41,5.94,19.11,10.47,12.86,9.59,20.17,24.53,20.85,39.06Z"/>
        <path class="st2" d="M423.43,470.32l-44.18-66.15c1.49-.99,2.94-2.02,4.4-3.09l39.78,69.24Z"/>
        <path class="st2" d="M349.01,501.16l-15.53-78c1.77-.35,3.54-.73,5.28-1.18l10.25,79.18Z"/>
        <path class="st2" d="M317.85,480.02c-4.81,18.1-5.15,37.2,2.05,54.7,8.41,20.35,3.65,45.54-11.17,61.56.81-1.25,18.49-28.91,4.53-58.88-14.3-30.67-5.94-59.27,0-78.79,2.92-9.61,1.86-22.52.03-33.14,3.77-.13,7.54-.43,11.28-.9,1.93,11.52,2.27,23.17-.58,35.33-2.03,6.5-4.57,13.55-6.14,20.12Z"/>
        <path class="st2" d="M289.28,424.07l-20.84,77.08,15.51-78.01c1.77.34,3.54.67,5.32.93Z"/>
        <path class="st2" d="M266.59,418.39l-53.54,111.24,47.09-113.72c2.12.89,4.28,1.71,6.45,2.48Z"/>
        <path class="st2" d="M242.73,407.08l-48.44,62.83,43.91-65.73c1.49,1,3,1.97,4.53,2.89Z"/>
        <path class="st2" d="M230.33,398.49c-3.56,3.48-7.51,6.64-12,9.42-5.26,2.78-11.2,5.56-16.23,8.65-11.33,6.65-21.26,15.18-28.11,26.38-3.8,6.1-5.96,13.41-10.45,19.13-9.61,12.85-24.53,20.15-39.08,20.83,0,0,29.12-5.82,39.28-33.66,10.12-27.82,33-40.36,48.75-48.77,3.64-1.94,7.19-4.87,10.49-8.25,2.36,2.18,4.83,4.29,7.35,6.27Z"/>
        <path class="st2" d="M206.27,373.59l-69.24,39.76,66.13-44.2c1.01,1.49,2.04,2.98,3.11,4.44Z"/>
        <path class="st2" d="M185.35,328.66l-79.16,10.25,78-15.51c.35,1.77.73,3.52,1.16,5.26Z"/>
      </g>
      <g>
        <path class="st4" d="M423.43,470.32l-48.74-63.23c1.53-.93,3.05-1.91,4.54-2.9,0,0,.02,0,.02-.02l44.18,66.15Z"/>
        <path class="st4" d="M203.16,369.15l-66.13,44.2,63.23-48.76c.93,1.53,1.91,3.07,2.9,4.56Z"/>
        <path class="st4" d="M511.23,338.92l-79.16-10.26c.42-1.75.83-3.5,1.17-5.27l77.99,15.53Z"/>
        <path class="st4" d="M539.7,394.3l-116.52-40.78v-.02c1.01-2.08,1.95-4.17,2.82-6.29l113.7,47.09Z"/>
        <path class="st4" d="M480.4,413.34l-69.22-39.76c1.06-1.45,2.09-2.95,3.09-4.44l66.13,44.19Z"/>
        <path class="st4" d="M493,482.89c-6.25-13.06-15.51-23.86-26.8-29.74-6.28-3.36-13.21-4.48-19.59-7.75-17.72-8.14-31.17-23.62-40.76-40.14-1.37-2.29-3.5-6.22-5.06-8.35-1.54-1.95-3.31-3.86-5.24-5.68,2.35-2.18,4.61-4.46,6.78-6.84,3.38,3.3,6.3,6.85,8.25,10.47,8.42,15.74,20.93,38.62,48.77,48.77,27.82,10.13,33.66,39.26,33.66,39.26Z"/>
        <path class="st4" d="M404.39,529.62l-53.52-111.21c2.17-.77,4.3-1.59,6.41-2.48h.02s47.09,113.69,47.09,113.69Z"/>
        <path class="st4" d="M349.01,501.16l-20.84-77.08c1.79-.27,3.56-.58,5.31-.92l15.53,78Z"/>
        <path class="st4" d="M308.74,596.28c6.45-18.21,7.48-38.65-1.86-55.59-10.68-19.53-12.79-43.28-8.61-64.88,1.11-6.2,2.78-12.67,4.36-18.68.43-1.53.84-3.17,1.05-4.75,1.05-8.29-.02-17.78-1.83-27,2.28.13,4.57.2,6.86.2,1.23,0,2.49-.03,3.65-.07l.93-.03c1.83,10.62,2.89,23.53-.03,33.14-5.94,19.52-14.3,48.12,0,78.79,13.97,29.97-3.71,57.63-4.53,58.88Z"/>
        <path class="st4" d="M283.96,423.14l-15.51,78.01,10.22-79.18c1.75.44,3.52.83,5.29,1.17Z"/>
        <path class="st4" d="M260.14,415.9l-47.09,113.72,40.8-116.52c2.06,1.01,4.17,1.93,6.27,2.8h.02Z"/>
        <path class="st4" d="M238.2,404.19l-43.91,65.73-.15.2-.15.2,39.76-69.22c1.45,1.06,2.95,2.09,4.44,3.09h.02Z"/>
        <path class="st4" d="M222.97,392.22c-3.3,3.38-6.85,6.3-10.49,8.25-15.74,8.42-38.62,20.95-48.75,48.77-10.16,27.84-39.28,33.66-39.28,33.66,13.04-6.25,23.84-15.51,29.74-26.8,3.36-6.28,4.5-13.19,7.75-19.57,8.16-17.74,23.6-31.17,40.16-40.78,2.29-1.35,6.2-3.5,8.31-5.04,1.99-1.54,3.9-3.33,5.72-5.26,2.18,2.35,4.46,4.59,6.81,6.76l.02.02Z"/>
        <path class="st4" d="M191.42,347.2l-113.67,47.11,111.21-53.54c.75,2.17,1.57,4.32,2.46,6.43Z"/>
        <path class="st4" d="M184.19,323.4l-78,15.51,77.06-20.82c.29,1.77.6,3.54.94,5.31Z"/>
      </g>
      <path class="st4" d="M435.66,298.64c.01,2.29-.07,4.58-.2,6.87-.21,4.24-.65,8.44-1.28,12.59-.26,1.78-.59,3.55-.94,5.3-.34,1.77-.75,3.52-1.17,5.27-.99,4.09-2.2,8.14-3.61,12.12-.76,2.18-1.57,4.31-2.45,6.44-.87,2.11-1.82,4.2-2.83,6.28v.02c-1.8,3.76-3.82,7.46-6.01,11.06-.91,1.55-1.9,3.06-2.9,4.57-1,1.5-2.02,2.98-3.09,4.45-.86,1.17-1.74,2.3-2.61,3.43-1.98,2.52-4.07,4.97-6.25,7.37-2.17,2.37-4.43,4.65-6.78,6.83-3.75,3.52-7.72,6.82-11.88,9.85-1.45,1.07-2.9,2.1-4.4,3.09,0,.01-.02.02-.02.02-1.49.99-3,1.96-4.53,2.89-3.58,2.2-7.3,4.2-11.09,6.03-2.07.99-4.17,1.91-6.31,2.81h-.02c-2.1.89-4.24,1.71-6.4,2.48-3.93,1.39-7.99,2.59-12.1,3.58-1.75.44-3.52.84-5.28,1.18-1.75.35-3.52.66-5.32.92-1.2.2-2.4.36-3.6.5-3.74.47-7.5.77-11.28.9l-.92.03c-1.17.03-2.43.07-3.65.07-2.3,0-4.59-.07-6.87-.2-4.21-.22-8.42-.65-12.57-1.3-1.78-.26-3.55-.59-5.33-.94-1.76-.34-3.53-.73-5.28-1.18-4.1-.98-8.15-2.17-12.08-3.58-2.18-.77-4.34-1.6-6.46-2.49h-.01c-2.1-.87-4.2-1.79-6.27-2.8-3.79-1.82-7.49-3.82-11.11-6.03-1.53-.92-3.05-1.88-4.53-2.89h-.02c-1.49-1-2.98-2.02-4.43-3.09-1.16-.85-2.28-1.71-3.41-2.61-2.53-1.98-5.01-4.08-7.36-6.26v-.02c-2.37-2.17-4.64-4.41-6.83-6.76-3.52-3.73-6.82-7.71-9.86-11.85-1.08-1.45-2.1-2.94-3.11-4.43-.99-1.5-1.97-3.03-2.9-4.57-2.19-3.59-4.21-7.31-6.01-11.08-1-2.09-1.96-4.18-2.83-6.31-.89-2.11-1.71-4.26-2.45-6.43-1.42-3.97-2.61-8.01-3.61-12.12-.43-1.74-.81-3.49-1.17-5.26-.34-1.77-.65-3.53-.95-5.3-.16-1.2-.34-2.4-.49-3.61-.46-3.74-.77-7.5-.9-11.27l-.02-.94c-.03-1.18-.06-2.42-.04-3.65h11.19v.06c0,1.1.01,2.21.04,3.28l.03.87c.11,3.35.39,6.8.81,10.24.13,1.1.3,2.2.45,3.31.26,1.62.55,3.24.87,4.85.31,1.61.66,3.18,1.05,4.75.97,3.94,2.04,7.54,3.31,11.09.73,2.09,1.44,3.97,2.24,5.87.73,1.77,1.55,3.63,2.59,5.76,1.58,3.35,3.41,6.72,5.46,10.06.86,1.41,1.75,2.82,2.6,4.1.94,1.38,1.88,2.74,2.86,4.08,2.83,3.84,5.85,7.47,9.06,10.86,1.89,2.04,3.97,4.1,6.24,6.2,2.1,1.95,4.35,3.85,6.69,5.69,1.05.83,2.08,1.62,3.09,2.37.78.57,1.57,1.13,2.37,1.68l1.72,1.14c1.34.9,2.7,1.77,4.1,2.63,3.26,1.98,6.67,3.82,10.2,5.51,1.21.58,2.48,1.17,3.86,1.76l1.84.78c1.88.78,3.85,1.54,5.91,2.27,3.43,1.23,7.12,2.32,11.05,3.27,1.42.36,2.95.69,4.69,1.03,1.61.31,3.2.61,4.92.86,3.74.59,7.57.99,11.48,1.19,2.12.12,4.2.18,6.24.18,1.01,0,2.04-.02,3-.06.1,0,1.2-.03,1.2-.03,3.36-.12,6.8-.4,10.4-.84,1.02-.11,2.04-.26,3.17-.44,1.61-.24,3.21-.52,4.82-.85,1.72-.33,3.24-.67,4.82-1.08,3.68-.88,7.38-1.97,10.96-3.22,2.16-.77,4.06-1.51,5.82-2.24l1.4-.58c1.58-.68,3.05-1.35,4.42-2,3.57-1.72,6.95-3.57,10.12-5.5,1.03-.64,2.06-1.29,3.08-1.95l1.1-.74c1.34-.89,2.65-1.82,4.01-2.82,3.76-2.74,7.41-5.76,10.85-9,2.15-1.99,4.21-4.07,6.13-6.17,2.02-2.22,3.95-4.49,5.67-6.69.81-1.05,1.63-2.09,2.43-3.19.98-1.33,1.91-2.71,2.8-4.01.87-1.31,1.78-2.72,2.67-4.19,1.69-2.8,3.28-5.67,4.72-8.55l.77-1.6c.99-2.06,1.83-3.91,2.58-5.73.74-1.77,1.47-3.69,2.23-5.85,1.29-3.63,2.39-7.33,3.28-11.02.38-1.58.75-3.17,1.07-4.8.31-1.57.61-3.17.85-4.82.58-3.82.97-7.67,1.17-11.54.12-2.16.19-4.21.18-6.23h11.2Z"/>
      <path class="st6" d="M424.45,298.64c.01,2.01-.06,4.07-.18,6.23-.2,3.87-.58,7.72-1.17,11.54-.24,1.65-.54,3.25-.85,4.82-.32,1.63-.68,3.21-1.07,4.8-.89,3.69-1.99,7.38-3.28,11.02-.76,2.17-1.5,4.08-2.23,5.85-.75,1.83-1.58,3.68-2.58,5.73l-.77,1.6c-1.44,2.88-3.03,5.76-4.72,8.55-.89,1.47-1.8,2.88-2.67,4.19-.88,1.3-1.82,2.67-2.8,4.01-.8,1.1-1.62,2.15-2.43,3.19-1.72,2.2-3.64,4.47-5.67,6.69-1.91,2.1-3.98,4.18-6.13,6.17-3.44,3.25-7.09,6.26-10.85,9-1.35,1-2.66,1.93-4.01,2.82l-1.1.74c-1.02.66-2.05,1.31-3.08,1.95-3.17,1.94-6.56,3.79-10.12,5.5-1.38.65-2.84,1.32-4.42,2l-1.4.58c-1.76.74-3.66,1.47-5.82,2.24-3.58,1.25-7.28,2.34-10.96,3.22-1.58.41-3.1.75-4.82,1.08-1.61.33-3.21.61-4.82.85-1.13.18-2.15.33-3.17.44-3.6.44-7.04.72-10.4.84,0,0-1.1.03-1.2.03-.97.03-1.99.06-3,.06-2.04,0-4.12-.06-6.24-.18-3.91-.2-7.74-.59-11.48-1.19-1.72-.25-3.31-.55-4.92-.86-1.74-.34-3.27-.67-4.69-1.03-3.93-.95-7.62-2.04-11.05-3.27-2.06-.73-4.03-1.49-5.91-2.27l-1.84-.78c-1.39-.59-2.65-1.18-3.86-1.76-3.53-1.69-6.94-3.53-10.2-5.51-1.41-.86-2.76-1.73-4.1-2.63l-1.72-1.14c-.79-.55-1.58-1.11-2.37-1.68-1.01-.75-2.05-1.54-3.09-2.37-2.34-1.84-4.59-3.74-6.69-5.69-2.27-2.09-4.35-4.16-6.24-6.2-3.2-3.39-6.23-7.02-9.06-10.86-.98-1.34-1.93-2.71-2.86-4.08-.85-1.29-1.74-2.7-2.6-4.1-2.05-3.33-3.87-6.71-5.46-10.06-1.03-2.12-1.86-3.98-2.59-5.76-.8-1.89-1.52-3.77-2.24-5.87-1.28-3.55-2.34-7.15-3.31-11.09-.39-1.57-.74-3.15-1.05-4.75-.32-1.62-.61-3.24-.87-4.85-.15-1.11-.32-2.21-.45-3.31-.43-3.44-.7-6.9-.81-10.24l-.03-.87c-.03-1.07-.04-2.18-.04-3.28v-.06h231.47Z"/>
      <path class="st2" d="M407.59,298.65h0c0,54.51-44.34,98.86-98.85,98.86-26.77,0-51.81-10.71-70.07-29.1,12.24,7.21,26.3,11.1,41.01,11.1,44.59,0,80.86-36.27,80.86-80.86h0s47.05-.01,47.05-.01Z"/>
      <polygon class="st2" points="227.18 302.34 234.12 314.5 221.96 307.55 218.28 321.06 214.6 307.55 202.44 314.5 209.39 302.34 195.88 298.66 195.92 298.65 240.63 298.65 240.68 298.66 227.18 302.34"/>
    </g>
    <g>
      <g>
        <path class="st4" d="M524.84,415.02c-15.63,0-28.35-12.72-28.35-28.35s12.72-28.35,28.35-28.35,28.35,12.72,28.35,28.35-12.72,28.35-28.35,28.35Z"/>
        <circle class="st2" cx="524.84" cy="386.68" r="24.3" transform="translate(-72.45 647.86) rotate(-60)"/>
        <g>
          <path class="st7" d="M524.84,368.72c-9.92,0-17.96,8.04-17.96,17.96s8.04,17.96,17.96,17.96,17.96-8.04,17.96-17.96-8.04-17.96-17.96-17.96ZM524.84,400.41c-7.58,0-13.73-6.15-13.73-13.73s6.15-13.73,13.73-13.73,13.73,6.15,13.73,13.73-6.15,13.73-13.73,13.73Z"/>
          <path class="st7" d="M527.27,378.03s0,0,0,0c-1.06-.33-4.06-.9-3.5-4.03,0,0-7.18,5.03-7.86,11.67,0,.06-.01.11-.02.17,0,.09-.02.18-.02.27-.01.19-.02.37-.02.56,0,4.12,2.77,7.58,6.55,8.64,0,0,0,0,0,0,1.06.33,4.06.9,3.5,4.03,0,0,7.18-5.04,7.86-11.67,0-.05.01-.11.02-.16,0-.09.02-.18.02-.28.01-.18.02-.37.02-.55,0,0,0,0,0,0h0c0-4.12-2.77-7.58-6.55-8.64ZM519.03,386.68c0-3.21,2.6-5.81,5.81-5.81s5.81,2.6,5.81,5.81-2.6,5.81-5.81,5.81-5.81-2.6-5.81-5.81Z"/>
          <circle class="st7" cx="524.84" cy="386.68" r="3.17" transform="translate(-33.25 723.59) rotate(-67.5)"/>
        </g>
      </g>
      <g>
        <path class="st4" d="M92.61,419.34c-15.63,0-28.35-12.72-28.35-28.35s12.72-28.35,28.35-28.35,28.35,12.72,28.35,28.35c0,7.57-2.95,14.69-8.3,20.04-5.35,5.35-12.47,8.3-20.04,8.3Z"/>
        <g>
          <circle class="st2" cx="92.61" cy="390.99" r="24.3" transform="translate(-292.31 275.7) rotate(-60)"/>
          <g>
            <polygon class="st7" points="88.91 369.75 74.26 386.31 88.77 394.09 85.77 412.23 97.7 388.09 84.53 382.65 88.91 369.75"/>
            <polygon class="st7" points="104.99 376.29 96.55 383.8 100.69 388.82 93.29 402.21 108.41 390.38 101.89 382.6 104.99 376.29"/>
          </g>
        </g>
      </g>
      <g>
        <path class="st4" d="M396.81,543.92c-15.63,0-28.35-12.72-28.35-28.35s12.72-28.35,28.35-28.35,28.35,12.72,28.35,28.35-12.72,28.35-28.35,28.35Z"/>
        <g>
          <circle class="st2" cx="396.81" cy="515.57" r="24.3" transform="translate(-248.09 601.43) rotate(-60)"/>
          <path class="st7" d="M388.69,533.53s-7.03-2.9-7.54-9c-.46-5.54,3.19-10.97,3.19-10.97,0,0,1.45,4.91,5.76,6.18,0,0-4.12-5.2-2.52-12.43.92-4.17,3.12-8.61,8.58-11.3,0,0-2.94,8.75,8.74,15.35,0,0-.17-4.05,1.52-5.34,0,0,.77,4.16,3.49,7.14,2.05,2.24,7.29,13.41-7.66,20.37,0,0,3.05-4.58,2.11-9.07s-6.23-7.49-6.23-7.49c0,0-1.07,3.72-3.3,6.23-3.24,3.64-2.27,7.23-1.38,8.71,0,0-4.34-3.58-4-6.29,0,0-2.04,4.42-.76,7.92Z"/>
        </g>
      </g>
      <g>
        <path class="st4" d="M220.64,543.92c-15.63,0-28.35-12.72-28.35-28.35s12.72-28.35,28.35-28.35,28.35,12.72,28.35,28.35-12.72,28.35-28.35,28.35Z"/>
        <g>
          <circle class="st2" cx="220.64" cy="515.57" r="24.3" transform="translate(-336.18 448.86) rotate(-60)"/>
          <g>
            <path class="st7" d="M202.51,524.87s11.36-4.96,17.06-11.29c8.09-9,9.72-18.25,9.72-18.25,0,0,5.16,9.91-.82,17.89-6.83,9.12-17.01,11.21-25.95,11.66Z"/>
            <path class="st7" d="M206.27,527.64s5.74.35,15.62-4.21c8.2-3.79,12.15-11.08,12.15-11.08,0,0,0,11.27-11.07,14.99-8.56,2.87-14.04,1.33-16.71.31Z"/>
            <path class="st7" d="M210.17,531.31s5.27,1.44,13.19-.81c5.45-1.55,9.91-5.86,9.91-5.86,0,0-2.32,8.69-11.31,10.02-7.61,1.12-11.79-3.35-11.79-3.35Z"/>
          </g>
        </g>
      </g>
    </g>
  </g>
  <g>
    <g>
      <path class="st5" d="M308.44,19.31c34.49,0,66.76,18.24,93.76,52.86,7.54-.92,14.92-1.39,22.03-1.39,33.58,0,61.81,10.48,81.63,30.3,24.38,24.38,34.3,60.09,28.92,103.67,34.62,27.01,52.86,59.27,52.86,93.75H29.25c0-34.46,18.24-66.74,52.87-93.74-5.4-43.57,4.52-79.29,28.92-103.67,19.82-19.82,48.04-30.3,81.62-30.3,7.11,0,14.49.47,22.04,1.39,26.98-34.63,59.25-52.86,93.75-52.86Z"/>
      <path class="st1" d="M308.44,33.49c31.99,0,62.2,18.63,87.45,53.92,9.77-1.62,19.31-2.45,28.34-2.45,29.74,0,54.5,9.04,71.61,26.15,22.62,22.62,30.8,57.15,23.7,99.96,35.29,25.26,53.92,55.46,53.92,87.44H43.42c0-31.97,18.64-62.18,53.93-87.43-7.11-42.79,1.07-77.34,23.7-99.96,17.11-17.11,41.87-26.15,71.6-26.15,9.03,0,18.56.82,28.35,2.45,25.23-35.28,55.43-53.92,87.44-53.92Z"/>
      <path class="st5" d="M559.29,298.5H57.59c0-27.6,17.07-54.18,49.37-76.87l5.88-4.13-1.23-7.09c-6.8-38.88-.07-69.75,19.46-89.27,14.39-14.39,35.68-22,61.58-22,8.74,0,18.05.85,27.69,2.54l7.08,1.23,4.14-5.88c22.68-32.3,49.27-49.36,76.88-49.36s54.2,17.06,76.89,49.36l4.13,5.88,7.09-1.23c9.63-1.69,18.95-2.54,27.68-2.54,25.9,0,47.2,7.61,61.59,22,19.52,19.52,26.25,50.39,19.46,89.27l-1.24,7.09,5.89,4.13c32.29,22.69,49.36,49.27,49.36,76.88Z"/>
    </g>
    <g>
      <polygon class="st3" points="182.64 282.69 1.23 298.51 181.5 298.5 182.64 282.69"/>
      <polygon class="st3" points="434.25 282.69 615.65 298.5 435.38 298.5 434.25 282.69"/>
      <g>
        <path class="st5" d="M348.71,95.97l-10.24,79.18c-1.75-.44-3.5-.83-5.27-1.17l15.51-78Z"/>
        <path class="st5" d="M404.11,67.54l-40.8,116.47c-2.06-.99-4.17-1.93-6.29-2.8h-.02s47.1-113.67,47.1-113.67Z"/>
        <path class="st5" d="M423.15,126.8l-39.75,69.24c-1.45-1.04-2.93-2.09-4.44-3.09l44.19-66.15Z"/>
        <path class="st5" d="M480.1,183.76l-63.21,48.75c-.93-1.53-1.91-3.07-2.92-4.56l66.12-44.19Z"/>
        <path class="st5" d="M539.39,202.81l-111.22,53.54c-.75-2.19-1.57-4.32-2.46-6.45l113.68-47.09Z"/>
        <path class="st5" d="M510.94,258.21l-77.05,20.84c-.27-1.79-.6-3.56-.94-5.31v-.02s78-15.51,78-15.51Z"/>
        <path class="st5" d="M185.09,268.45c-.42,1.75-.83,3.5-1.17,5.27l-77.98-15.51,79.16,10.24Z"/>
        <path class="st5" d="M193.97,243.59v.02c-1.01,2.08-1.95,4.17-2.82,6.29l-113.67-47.06,116.49,40.76Z"/>
        <path class="st5" d="M206,223.53c-1.06,1.45-2.11,2.95-3.11,4.44l-66.13-44.19,69.24,39.75Z"/>
        <path class="st5" d="M242.44,190.05c-1.53.93-3.05,1.91-4.52,2.9l-44.05-65.95,48.57,63.05Z"/>
        <path class="st5" d="M266.29,178.73c-2.17.75-4.32,1.59-6.43,2.46h-.02s-47.07-113.66-47.07-113.66l53.52,111.2Z"/>
        <path class="st5" d="M318.88,121.33c-1.09,6.18-2.76,12.67-4.36,18.68-.41,1.51-.84,3.17-1.05,4.73-1.02,8.31.02,17.78,1.83,27-2.28-.13-4.57-.2-6.86-.2-1.23,0-2.47.03-3.67.07l-.91.03c-1.81-10.62-2.85-23.53.05-33.14,5.94-19.52,14.28-48.09,0-78.78-13.99-29.97,3.69-57.61,4.51-58.86-6.45,18.19-7.46,38.65,1.86,55.59,10.7,19.53,12.81,43.28,8.61,64.88Z"/>
        <path class="st5" d="M288.99,173.04c-1.79.27-3.56.58-5.31.92l-15.53-77.98,20.84,77.05Z"/>
        <path class="st5" d="M492.69,114.24c-13.06,6.23-23.86,15.49-29.75,26.8-3.34,6.26-4.48,13.17-7.73,19.57-8.16,17.74-23.62,31.17-40.16,40.76-2.29,1.37-6.22,3.5-8.33,5.08-1.99,1.52-3.88,3.29-5.72,5.24-2.16-2.35-4.44-4.61-6.82-6.78l-.02-.02c3.3-3.38,6.85-6.3,10.49-8.25,15.76-8.42,38.62-20.91,48.76-48.75s39.28-33.66,39.28-33.66Z"/>
        <path class="st5" d="M221.63,205.9c-2.35,2.18-4.61,4.46-6.78,6.83-3.39-3.3-6.32-6.85-8.27-10.49-8.42-15.74-20.91-38.6-48.75-48.74-27.82-10.14-33.66-39.26-33.66-39.26,6.23,13.04,15.49,23.84,26.8,29.71,6.26,3.36,13.19,4.52,19.59,7.77,17.72,8.16,31.17,23.6,40.76,40.16,1.37,2.27,3.48,6.18,5.06,8.31,1.54,1.97,3.31,3.88,5.24,5.7Z"/>
      </g>
      <g>
        <path class="st3" d="M404.11,67.54l-47.1,113.67c-2.12-.89-4.24-1.72-6.41-2.48l53.52-111.19Z"/>
        <path class="st3" d="M423.15,126.8l-44.19,66.15h-.02c-1.49-1.02-3-1.99-4.53-2.91l48.74-63.23Z"/>
        <path class="st3" d="M492.69,114.24s-29.13,5.82-39.28,33.66-33,40.33-48.76,48.75c-3.64,1.94-7.19,4.87-10.49,8.25-2.33-2.17-4.81-4.27-7.35-6.25,3.56-3.46,7.51-6.64,12-9.42,5.27-2.8,11.22-5.56,16.23-8.67,11.35-6.65,21.28-15.14,28.11-26.36,3.82-6.08,5.95-13.43,10.47-19.13,9.61-12.86,24.53-20.17,39.08-20.83Z"/>
        <path class="st3" d="M539.39,202.81l-113.68,47.09c-.87-2.13-1.82-4.24-2.83-6.3l116.51-40.79Z"/>
        <path class="st3" d="M510.94,258.21l-78,15.51c-.35-1.77-.73-3.54-1.18-5.28l79.18-10.23Z"/>
        <path class="st3" d="M183.91,273.72c-.34,1.77-.67,3.54-.93,5.32l-77.05-20.83,77.98,15.51Z"/>
        <path class="st3" d="M191.15,249.9c-.89,2.12-1.71,4.28-2.46,6.45l-111.21-53.52,113.67,47.06Z"/>
        <path class="st3" d="M202.89,227.96c-1,1.49-1.97,3.02-2.91,4.55l-63.21-48.74,66.13,44.19Z"/>
        <path class="st3" d="M214.86,212.74c-2.16,2.37-4.27,4.83-6.27,7.37-3.46-3.58-6.62-7.5-9.4-12.02-2.8-5.25-5.58-11.18-8.67-16.23-6.65-11.31-15.16-21.26-26.38-28.11-6.08-3.8-13.43-5.94-19.13-10.45-12.86-9.59-20.17-24.51-20.83-39.06,0,0,5.84,29.11,33.66,39.26,27.84,10.14,40.33,33,48.75,48.74,1.94,3.64,4.87,7.19,8.27,10.49Z"/>
        <path class="st3" d="M259.85,181.19c-2.13.89-4.24,1.82-6.3,2.81l-40.77-116.47,47.07,113.66Z"/>
        <path class="st3" d="M283.68,173.96c-1.77.35-3.54.73-5.3,1.18l-10.23-79.16,15.53,77.98Z"/>
        <path class="st3" d="M348.71,95.97l-15.51,78c-1.77-.34-3.54-.67-5.32-.93l20.83-77.07Z"/>
        <path class="st3" d="M303.9,138.5c-2.9,9.61-1.86,22.52-.05,33.14-3.77.13-7.52.43-11.26.9-1.93-11.5-2.27-23.17.58-35.31,2-6.52,4.57-13.55,6.14-20.09,4.81-18.14,5.15-37.22-2.05-54.71-8.41-20.37-3.65-45.56,11.15-61.56-.81,1.25-18.49,28.89-4.51,58.86,14.28,30.69,5.94,59.26,0,78.78Z"/>
        <path class="st3" d="M480.1,183.76l-66.12,44.19c-1.01-1.49-2.04-2.96-3.11-4.42l69.23-39.78Z"/>
        <path class="st3" d="M237.92,192.95c-1.49.99-2.96,2.02-4.42,3.11l-39.68-69.1.04.04,44.05,65.95Z"/>
      </g>
      <path class="st5" d="M435.37,298.49h0s-11.2.01-11.2.01v-.04c.01-1.11-.01-2.23-.03-3.3l-.03-.85c-.11-3.36-.39-6.81-.81-10.24-.13-1.07-.26-2.15-.46-3.33-.24-1.62-.54-3.21-.86-4.8l-.13-.67c-.3-1.47-.59-2.81-.95-4.17-.94-3.86-2.02-7.54-3.29-11.07-.68-1.98-1.4-3.86-2.23-5.85-.76-1.86-1.61-3.75-2.59-5.75-1.6-3.37-3.42-6.75-5.44-10.06-.94-1.53-1.78-2.87-2.63-4.1-.92-1.38-1.87-2.72-2.88-4.09-2.73-3.74-5.74-7.36-9.06-10.87-1.93-2.09-3.99-4.14-6.06-6.03l-.15-.14c-2.1-1.95-4.32-3.84-6.76-5.73-1-.8-2.05-1.57-2.93-2.23-.42-.3-.83-.59-1.24-.89l-3.01-2.06c-1.24-.86-2.55-1.69-4.05-2.61-3.27-2-6.66-3.84-10.08-5.47-1.25-.59-2.48-1.16-3.65-1.67l-2.15-.89c-2.06-.87-3.95-1.61-5.82-2.26-3.52-1.25-7.23-2.34-11.14-3.29-1.5-.37-3.01-.72-4.65-1.03-1.61-.31-3.21-.61-4.92-.86-3.74-.59-7.58-.99-11.5-1.19-2.16-.12-4.24-.18-6.25-.18-1,0-2.01.02-3,.06-.1,0-1.17.03-1.17.03-3.32.11-6.78.39-10.4.84-1.02.11-2.05.26-3.18.45-1.62.23-3.21.51-4.8.83-1.73.34-3.27.68-4.84,1.08-3.65.89-7.35,1.99-11.05,3.29-1.79.63-3.71,1.35-5.83,2.22l-.56.23c-1.91.81-3.61,1.57-5.17,2.32-3.44,1.66-6.86,3.51-10.15,5.52-1.39.85-2.75,1.73-4.15,2.66-1.4.94-2.67,1.83-4.03,2.85-3.75,2.72-7.37,5.72-10.82,8.98-2.16,2.01-4.23,4.08-6.13,6.18-2.13,2.33-4.02,4.54-5.75,6.76-.78,1-1.57,2.04-2.35,3.1-.97,1.33-1.93,2.71-2.85,4.08-.92,1.36-1.8,2.76-2.63,4.1-1.66,2.73-3.22,5.57-4.68,8.46l-.81,1.69c-1,2.07-1.83,3.92-2.57,5.73-.81,1.95-1.55,3.88-2.23,5.88-1.3,3.65-2.4,7.35-3.28,10.99-.38,1.58-.75,3.17-1.07,4.78-.31,1.61-.61,3.2-.85,4.86-.58,3.81-.97,7.66-1.17,11.52-.13,2.18-.19,4.19-.19,6.24h-11.19c-.01-2.29.07-4.59.2-6.88.21-4.21.64-8.42,1.28-12.57.26-1.78.58-3.55.94-5.33.34-1.77.75-3.52,1.17-5.27.99-4.09,2.2-8.12,3.6-12.09.75-2.18,1.58-4.34,2.46-6.46.87-2.11,1.82-4.2,2.83-6.28v-.02c1.8-3.76,3.81-7.48,6-11.08.95-1.53,1.91-3.06,2.92-4.54,1-1.5,2.05-2.98,3.11-4.43.84-1.16,1.71-2.31,2.59-3.42,2-2.54,4.1-5,6.27-7.37,2.16-2.38,4.42-4.65,6.78-6.83,3.74-3.54,7.72-6.84,11.86-9.85,1.45-1.09,2.93-2.12,4.41-3.11,1.47-.99,2.99-1.96,4.52-2.89,3.6-2.2,7.31-4.23,11.11-6.05,2.07-.99,4.17-1.91,6.29-2.81h.02c2.11-.87,4.26-1.71,6.44-2.46,3.96-1.4,8-2.6,12.08-3.59,1.77-.44,3.53-.84,5.3-1.18,1.75-.35,3.52-.66,5.3-.92,1.2-.2,2.4-.36,3.61-.5,3.74-.47,7.48-.77,11.26-.9l.9-.02c1.21-.04,2.45-.08,3.67-.07,2.29-.01,4.59.07,6.87.19,4.24.22,8.43.65,12.58,1.3,1.79.26,3.55.59,5.33.94,1.77.34,3.52.73,5.27,1.18,4.1.98,8.14,2.17,12.11,3.58,2.18.77,4.3,1.6,6.42,2.49h.02c2.12.87,4.23,1.82,6.28,2.79,3.81,1.82,7.5,3.82,11.1,6.03,1.53.92,3.04,1.88,4.53,2.9h.02c1.51,1.01,2.98,2.05,4.43,3.09,1.14.86,2.3,1.72,3.41,2.62,2.55,1.98,5.02,4.08,7.35,6.24l.02.02c2.38,2.17,4.65,4.43,6.82,6.78,3.54,3.75,6.83,7.71,9.86,11.85,1.07,1.45,2.1,2.93,3.11,4.41,1.01,1.5,1.98,3.03,2.92,4.57,2.2,3.61,4.2,7.31,6,11.08,1,2.07,1.96,4.18,2.83,6.3.89,2.12,1.71,4.26,2.45,6.45,1.42,3.95,2.61,8.01,3.59,12.09.45,1.74.84,3.51,1.19,5.28v.02c.34,1.74.67,3.51.94,5.3.2,1.18.35,2.38.51,3.58.46,3.74.77,7.52.89,11.28l.03.91c.03,1.18.04,2.43.04,3.65Z"/>
      <path class="st1" d="M424.17,298.45v.04s-231.46,0-231.46,0c0-2.05.05-4.06.19-6.24.2-3.86.58-7.71,1.17-11.52.24-1.66.54-3.26.85-4.86.32-1.61.68-3.19,1.07-4.78.88-3.64,1.98-7.34,3.28-10.99.68-1.99,1.42-3.93,2.23-5.88.75-1.82,1.57-3.66,2.57-5.73l.81-1.69c1.45-2.89,3.01-5.73,4.68-8.46.83-1.34,1.71-2.74,2.63-4.1.92-1.38,1.88-2.75,2.85-4.08.78-1.07,1.57-2.1,2.35-3.1,1.74-2.21,3.62-4.42,5.75-6.76,1.9-2.1,3.97-4.17,6.13-6.18,3.44-3.26,7.06-6.26,10.82-8.98,1.35-1.02,2.63-1.91,4.03-2.85,1.4-.94,2.76-1.82,4.15-2.66,3.29-2.01,6.7-3.86,10.15-5.52,1.56-.75,3.26-1.51,5.17-2.32l.56-.23c2.12-.87,4.04-1.6,5.83-2.22,3.7-1.3,7.39-2.4,11.05-3.29,1.57-.4,3.11-.74,4.84-1.08,1.58-.32,3.18-.59,4.8-.83,1.13-.19,2.16-.34,3.18-.45,3.62-.45,7.08-.73,10.4-.84,0,0,1.07-.03,1.17-.03.99-.03,2-.06,3-.06,2.01,0,4.09.05,6.25.18,3.92.2,7.76.59,11.5,1.19,1.71.25,3.31.55,4.92.86,1.64.32,3.16.66,4.65,1.03,3.91.95,7.61,2.04,11.14,3.29,1.87.65,3.76,1.39,5.82,2.26l2.15.89c1.18.52,2.4,1.08,3.65,1.67,3.42,1.63,6.81,3.47,10.08,5.47,1.5.91,2.81,1.75,4.05,2.61l3.01,2.06c.42.3.83.59,1.24.89.88.66,1.93,1.43,2.93,2.23,2.43,1.89,4.65,3.79,6.76,5.73l.15.14c2.07,1.89,4.14,3.94,6.06,6.03,3.31,3.51,6.33,7.13,9.06,10.87,1.01,1.38,1.96,2.72,2.88,4.09.85,1.23,1.69,2.57,2.63,4.1,2.01,3.31,3.84,6.69,5.44,10.06.98,2,1.83,3.9,2.59,5.75.84,1.99,1.55,3.87,2.23,5.85,1.27,3.53,2.35,7.21,3.29,11.07.35,1.36.65,2.7.95,4.17l.13.67c.32,1.58.62,3.18.86,4.8.2,1.19.33,2.27.46,3.33.43,3.43.7,6.89.81,10.24l.03.85c.02,1.07.04,2.19.03,3.3Z"/>
      <path class="st3" d="M407.3,298.5h-47.05c-.01-44.57-36.27-80.84-80.85-80.84-14.71,0-28.77,3.9-41.01,11.11,18.27-18.39,43.3-29.1,70.07-29.11,54.51,0,98.83,44.33,98.85,98.83Z"/>
      <polygon class="st3" points="195.65 298.5 209.12 294.84 202.17 282.68 214.32 289.62 218.01 276.12 221.68 289.62 233.84 282.68 226.9 294.84 240.36 298.5 195.65 298.5"/>
    </g>
    <g>
      <path class="st5" d="M524.56,182.12c-15.63,0-28.35,12.72-28.35,28.35s12.72,28.35,28.35,28.35c15.63,0,28.35-12.72,28.35-28.35s-12.72-28.35-28.35-28.35Z"/>
      <circle class="st3" cx="524.56" cy="210.47" r="24.3" transform="translate(-34.95 290.49) rotate(-30)"/>
      <g>
        <path class="st0" d="M524.56,228.43c-9.92,0-17.96-8.04-17.96-17.96s8.04-17.96,17.96-17.96c9.92,0,17.96,8.04,17.96,17.96s-8.04,17.96-17.96,17.96ZM524.56,196.73c-7.58,0-13.73,6.15-13.73,13.73s6.15,13.73,13.73,13.73,13.73-6.15,13.73-13.73-6.15-13.73-13.73-13.73Z"/>
        <path class="st0" d="M526.98,219.11s0,0,0,0c-1.06.33-4.06.9-3.5,4.03,0,0-7.18-5.03-7.86-11.67,0-.06-.01-.11-.02-.17,0-.09-.02-.18-.02-.27-.01-.19-.02-.37-.02-.56,0-4.12,2.77-7.58,6.55-8.64,0,0,0,0,0,0,1.06-.33,4.06-.9,3.5-4.03,0,0,7.18,5.04,7.86,11.67,0,.05.01.11.02.16,0,.09.02.18.02.28.01.18.02.37.02.55,0,0,0,0,0,0h0,0c0,4.12-2.77,7.58-6.55,8.64ZM518.75,210.47c0,3.21,2.6,5.81,5.81,5.81s5.81-2.6,5.81-5.81-2.6-5.81-5.81-5.81-5.81,2.6-5.81,5.81Z"/>
        <circle class="st0" cx="524.55" cy="210.47" r="3.17" transform="translate(-40.61 216.77) rotate(-22.5)"/>
      </g>
    </g>
    <g>
      <path class="st5" d="M92.32,177.81c-15.63,0-28.35,12.72-28.35,28.35s12.72,28.35,28.35,28.35c15.63,0,28.35-12.72,28.35-28.35,0-7.57-2.95-14.69-8.3-20.04-5.35-5.35-12.47-8.3-20.04-8.3Z"/>
      <g>
        <circle class="st3" cx="92.32" cy="206.16" r="24.3" transform="translate(-90.71 73.79) rotate(-30)"/>
        <g>
          <polygon class="st0" points="88.63 227.4 73.98 210.85 88.49 203.06 85.49 184.92 97.42 209.07 84.25 214.5 88.63 227.4"/>
          <polygon class="st0" points="104.71 220.86 96.26 213.35 100.4 208.34 93.01 194.94 108.13 206.77 101.61 214.55 104.71 220.86"/>
        </g>
      </g>
    </g>
    <g>
      <path class="st5" d="M396.52,53.23c-15.63,0-28.35,12.72-28.35,28.35s12.72,28.35,28.35,28.35c15.63,0,28.35-12.72,28.35-28.35s-12.72-28.35-28.35-28.35Z"/>
      <g>
        <circle class="st3" cx="396.52" cy="81.58" r="24.3" transform="translate(12.34 209.2) rotate(-30)"/>
        <path class="st0" d="M388.41,63.62s-7.03,2.9-7.54,9c-.46,5.54,3.19,10.97,3.19,10.97,0,0,1.45-4.91,5.76-6.18,0,0-4.12,5.2-2.52,12.43.92,4.17,3.12,8.61,8.58,11.3,0,0-2.94-8.75,8.74-15.35,0,0-.17,4.05,1.52,5.34,0,0,.77-4.16,3.49-7.14,2.05-2.24,7.29-13.41-7.67-20.37,0,0,3.05,4.58,2.11,9.07-.94,4.49-6.23,7.5-6.23,7.5,0,0-1.07-3.72-3.3-6.23-3.24-3.64-2.27-7.23-1.38-8.71,0,0-4.34,3.58-4,6.29,0,0-2.04-4.42-.76-7.92Z"/>
      </g>
    </g>
    <g>
      <path class="st5" d="M220.35,53.23c-15.63,0-28.35,12.72-28.35,28.35s12.72,28.35,28.35,28.35c15.63,0,28.35-12.72,28.35-28.35s-12.72-28.35-28.35-28.35Z"/>
      <g>
        <circle class="st3" cx="220.35" cy="81.58" r="24.3" transform="translate(-11.27 121.11) rotate(-30)"/>
        <g>
          <path class="st0" d="M202.23,72.28s11.36,4.96,17.06,11.29c8.09,8.99,9.72,18.25,9.72,18.25,0,0,5.16-9.91-.82-17.89-6.83-9.12-17.01-11.21-25.96-11.66Z"/>
          <path class="st0" d="M205.99,69.51s5.74-.35,15.62,4.21c8.2,3.79,12.15,11.08,12.15,11.08,0,0,0-11.27-11.07-14.99-8.56-2.87-14.04-1.33-16.71-.31Z"/>
          <path class="st0" d="M209.89,65.84s5.27-1.44,13.19.81c5.45,1.54,9.91,5.86,9.91,5.86,0,0-2.32-8.69-11.31-10.02-7.61-1.12-11.79,3.35-11.79,3.35Z"/>
        </g>
      </g>
    </g>
  </g>
</svg>