<?xml version="1.0" encoding="UTF-8"?>
<svg id="_圖層_1" data-name="圖層_1" xmlns="http://www.w3.org/2000/svg" version="1.1" xmlns:xlink="http://www.w3.org/1999/xlink" viewBox="0 0 582.85 466.46">
  <!-- Generator: Adobe Illustrator 29.0.0, SVG Export Plug-In . SVG Version: 2.1.0 Build 186)  -->
  <defs>
    <style>
      .st0, .st1 {
        stroke: #bfae73;
        stroke-linecap: round;
        stroke-linejoin: round;
        stroke-width: .5px;
      }

      .st0, .st2 {
        fill: #b69874;
      }

      .st3 {
        fill: #a08963;
      }

      .st4, .st1 {
        fill: #e8dfcc;
      }

      .st5 {
        fill: #fff;
      }

      .st6 {
        fill: none;
      }

      .st7 {
        clip-path: url(#clippath-1);
      }

      .st8 {
        clip-path: url(#clippath-2);
      }

      .st9 {
        clip-path: url(#clippath);
      }

      .st10 {
        fill: #cbbc9e;
      }
    </style>
    <clipPath id="clippath">
      <path class="st6" d="M404.97,205.71s4.43-11.56,15.48-17.08c10.19-5.09,25.57-6.39,34.37-1,7.2,4.42,3.3,18.08-9.49,25.57-11.44,6.7-23.68,4.2-30.27,1s-10.09-8.49-10.09-8.49Z"/>
    </clipPath>
    <clipPath id="clippath-1">
      <path class="st6" d="M352.03,167.42c4.53-2.8,8.79.67,13.45,10.39,4.66,9.72,2.4,21.05,2.4,21.05,0,0-6.94,1.32-10.52-1.2-9.33-6.55-9.86-27.44-5.33-30.24Z"/>
    </clipPath>
    <clipPath id="clippath-2">
      <path class="st6" d="M557.79,244.55l-89.94,28-6.44,20.43,13.43,26.38,88.58-13.38s13.65-15.05,14.27-17.65-19.89-43.77-19.89-43.77Z"/>
    </clipPath>
  </defs>
  <g>
    <path class="st10" d="M134.4,313.5c.14-.01.27-.03.41-.04,0-.05,0-.1,0-.15,0-5.61,4.55-10.16,10.16-10.16,2.29,0,4.4.77,6.1,2.05,3.97-13.44,16.73-23.11,31.63-22.34,2.77.14,5.44.68,7.98,1.51-.04-.81-.06-1.63-.06-2.45,0-26.02,21.1-47.12,47.12-47.12,23.1,0,42.3,16.62,46.33,38.56,1.36-3.88,5.04-6.66,9.38-6.66,2.24,0,4.3.75,5.97,2,3.74-12.66,15.45-21.91,29.33-21.91,16.89,0,30.58,13.69,30.58,30.58,0,3.23-.5,6.34-1.43,9.27,4.26.46,7.59,4.07,7.59,8.45,0,.79-.12,1.55-.32,2.28,10.32.94,18.41,9.61,18.41,20.17,0,11.19-9.07,20.27-20.27,20.27h-57.94s-18.98,0-18.98,0h-150.56c-15.34,0-16.67-22.68-1.42-24.31Z"/>
    <path class="st1" d="M237.73,238c21.19,0,39.35,15.11,43.17,35.93.26,1.43,1.46,2.51,2.91,2.62.08,0,.17,0,.25,0,1.35,0,2.58-.86,3.03-2.15.94-2.7,3.5-4.51,6.35-4.51,1.46,0,2.86.47,4.04,1.36.56.42,1.24.65,1.93.65.34,0,.68-.05,1.01-.16,1-.33,1.77-1.13,2.07-2.14,3.41-11.54,14.2-19.61,26.25-19.61,15.09,0,27.37,12.28,27.37,27.37,0,2.82-.43,5.61-1.28,8.29-.29.92-.16,1.92.37,2.73.53.81,1.39,1.34,2.35,1.44,2.69.29,4.72,2.55,4.72,5.26,0,.46-.07.94-.2,1.42-.26.92-.09,1.9.45,2.69.54.78,1.4,1.29,2.35,1.37,8.83.8,15.49,8.1,15.49,16.97,0,9.4-7.65,17.05-17.05,17.05h-227.48c-5.88,0-8.75-4.31-8.97-8.57-.22-4.2,2.13-8.71,7.9-9.32.12-.01.24-.02.36-.04,1.67-.16,2.94-1.58,2.91-3.26,0-.06,0-.11,0-.17.04-3.8,3.14-6.87,6.95-6.87,1.51,0,2.95.48,4.17,1.4.56.42,1.24.65,1.93.65.34,0,.68-.05,1.01-.16,1-.33,1.77-1.13,2.07-2.14,3.49-11.82,14.55-20.08,26.88-20.08.5,0,1,.01,1.5.04,2.38.12,4.78.58,7.14,1.35.33.11.67.16,1,.16.7,0,1.38-.23,1.95-.66.84-.64,1.31-1.66,1.26-2.72-.04-.76-.06-1.53-.06-2.28,0-24.21,19.7-43.91,43.91-43.91M237.73,234.79c-26.02,0-47.12,21.1-47.12,47.12,0,.82.02,1.64.06,2.45-2.54-.83-5.21-1.37-7.98-1.51-.56-.03-1.11-.04-1.66-.04-14.18,0-26.14,9.45-29.96,22.39-1.7-1.28-3.81-2.05-6.1-2.05-5.61,0-10.16,4.55-10.16,10.16,0,.05,0,.1,0,.15-.14.01-.27.03-.41.04-15.25,1.62-13.92,24.31,1.42,24.31h227.48c11.19,0,20.27-9.07,20.27-20.27,0-10.57-8.09-19.24-18.41-20.17.2-.73.32-1.49.32-2.28,0-4.39-3.32-7.99-7.59-8.45.93-2.92,1.43-6.04,1.43-9.27,0-16.89-13.69-30.58-30.58-30.58-13.88,0-25.59,9.24-29.33,21.91-1.66-1.25-3.73-2-5.97-2-4.34,0-8.02,2.79-9.38,6.66-4.03-21.93-23.23-38.56-46.33-38.56h0Z"/>
  </g>
  <g>
    <path class="st4" d="M30.46,397.65c-10.02,0-14.95-7.58-15.29-14.63-.33-6.86,3.66-14.67,13.19-15.84,0-.1,0-.2,0-.3,0-17.02,13.85-30.87,30.87-30.87,12.19,0,23.02,7,28.05,17.98,3.69-3.67,8.66-5.74,13.9-5.74,4.89,0,9.54,1.8,13.13,5.01.08-20.93,17.14-37.93,38.08-37.93.84,0,1.7.03,2.55.08,19.03,1.24,34.27,16.53,35.46,35.57.62,10-2.69,19.79-9.16,27.29.33-.01.65-.02.97-.02.52,0,1.03.01,1.54.04,6.35.31,9.12,5.29,9.01,9.79-.12,4.76-3.49,9.58-9.7,9.58H30.46Z"/>
    <path class="st2" d="M152.39,316.43c.82,0,1.65.03,2.48.08,18.38,1.2,33.28,16.14,34.42,34.53.7,11.17-3.57,21.36-10.81,28.56,1.22-.15,2.46-.25,3.73-.25.5,0,.99.01,1.49.04,11.02.54,10.41,17.15-.63,17.15H30.46c-17.95,0-19.37-26.57-1.5-28.32.18-.02.36-.03.54-.05-.02-.43-.03-.87-.03-1.3,0-16.43,13.32-29.76,29.76-29.76,12.6,0,23.36,7.83,27.7,18.89,3.42-4.06,8.53-6.65,14.25-6.65s10.94,2.63,14.35,6.76c-.06-.9-.11-1.8-.11-2.71,0-20.42,16.56-36.97,36.97-36.97M152.39,314.21c-20.8,0-37.87,16.29-39.12,36.79-3.49-2.5-7.7-3.87-12.1-3.87-5.02,0-9.81,1.8-13.56,5.02-5.46-10.59-16.27-17.26-28.39-17.26-17.41,0-31.62,13.99-31.97,31.32-9.54,1.65-13.54,9.73-13.19,16.86.37,7.55,5.66,15.69,16.4,15.69h152.6c6.92,0,10.68-5.36,10.81-10.66.13-5.18-3.29-10.6-10.07-10.93-.08,0-.16,0-.24-.01,5.68-7.45,8.54-16.77,7.95-26.26-1.22-19.59-16.91-35.33-36.49-36.6-.87-.06-1.75-.09-2.62-.09h0Z"/>
    <path class="st5" d="M152.39,318.65c.77,0,1.56.03,2.33.08,17.36,1.13,31.27,15.08,32.35,32.45.62,10.01-3.08,19.8-10.16,26.85-.67.67-.84,1.69-.43,2.54.38.77,1.15,1.25,1.99,1.25.09,0,.18,0,.28-.02,1.24-.16,2.37-.23,3.45-.23.46,0,.92.01,1.38.03,4.15.2,5.93,3.35,5.85,6.39-.08,3.15-2.08,6.33-6.37,6.33H30.46c-7.88,0-11.69-5.76-11.97-11.46-.27-5.64,2.92-11.67,10.68-12.42.17-.02.34-.03.52-.05,1.18-.1,2.08-1.12,2.02-2.31-.02-.4-.03-.8-.03-1.21,0-15.18,12.35-27.54,27.54-27.54,11.4,0,21.46,6.86,25.63,17.48.29.73.93,1.25,1.71,1.38.12.02.24.03.36.03.65,0,1.27-.29,1.7-.79,3.13-3.72,7.71-5.86,12.55-5.86s9.51,2.17,12.64,5.96c.43.52,1.06.8,1.71.8.28,0,.56-.05.83-.16.9-.36,1.46-1.26,1.39-2.22-.07-.97-.1-1.78-.1-2.55,0-19.16,15.59-34.76,34.76-34.76M152.39,316.43c-20.42,0-36.97,16.55-36.97,36.97,0,.91.04,1.81.11,2.71-3.41-4.13-8.58-6.76-14.35-6.76s-10.84,2.59-14.25,6.65c-4.34-11.06-15.1-18.89-27.7-18.89-16.43,0-29.76,13.32-29.76,29.76,0,.44.01.87.03,1.3-.18.02-.36.03-.54.05-17.87,1.74-16.45,28.32,1.5,28.32h152.6c11.04,0,11.65-16.61.63-17.15-.49-.02-.99-.04-1.49-.04-1.26,0-2.5.1-3.73.25,7.24-7.21,11.51-17.39,10.81-28.56-1.14-18.39-16.04-33.33-34.42-34.53-.83-.05-1.66-.08-2.48-.08h0Z"/>
  </g>
  <g>
    <path class="st5" d="M428.4,152.92c-.25,0-.49-.03-.74-.1-1.27-.34-2.14-1.5-2.12-2.81.08-4.79-1.7-9.28-5-12.64-3.36-3.41-7.99-5.37-12.72-5.37-3.19,0-6.24.86-9.06,2.55-.46.27-.96.41-1.47.41-.74,0-1.47-.29-2.02-.84-.93-.93-1.1-2.37-.43-3.49,3.32-5.54,3.4-12.2.22-17.81-3.18-5.62-8.93-8.97-15.37-8.97,0,0-.35,0-.36,0-1.29,0-2.43-.87-2.76-2.12-.34-1.27.23-2.6,1.37-3.24,5.7-3.17,9.1-8.95,9.1-15.46s-3.4-12.3-9.1-15.46c-1.15-.64-1.71-1.97-1.37-3.24.34-1.25,1.47-2.12,2.76-2.12.02,0,.36,0,.36,0,6.44,0,12.19-3.36,15.37-8.98,3.18-5.62,3.1-12.27-.22-17.81-.67-1.12-.5-2.56.43-3.49.55-.55,1.28-.84,2.02-.84.5,0,1.01.13,1.47.41,2.82,1.69,5.87,2.55,9.06,2.55,4.73,0,9.36-1.96,12.72-5.37,3.31-3.36,5.08-7.85,5-12.64-.02-1.31.85-2.47,2.12-2.81.25-.07.49-.1.74-.1,1.02,0,1.99.55,2.5,1.47,3.17,5.7,8.95,9.1,15.46,9.1s12.3-3.4,15.46-9.1c.51-.92,1.48-1.47,2.5-1.47.25,0,.49.03.74.1,1.27.34,2.14,1.5,2.12,2.81-.08,4.79,1.7,9.29,5,12.65,3.36,3.41,7.99,5.37,12.72,5.37h0c3.19,0,6.24-.86,9.06-2.55.46-.27.96-.41,1.47-.41.74,0,1.47.29,2.02.84.93.93,1.1,2.37.43,3.49-3.32,5.54-3.4,12.2-.22,17.81,3.18,5.62,8.93,8.97,15.37,8.97,0,0,.35,0,.36,0,1.29,0,2.43.87,2.76,2.12.34,1.27-.23,2.6-1.37,3.24-5.7,3.17-9.1,8.95-9.1,15.46s3.4,12.3,9.1,15.46c1.15.64,1.71,1.97,1.37,3.24-.34,1.25-1.47,2.12-2.76,2.12-.02,0-.36,0-.36,0-6.44,0-12.19,3.36-15.37,8.98-3.18,5.62-3.1,12.27.22,17.81.67,1.12.5,2.57-.43,3.49-.55.55-1.28.84-2.02.84-.5,0-1.01-.13-1.47-.41-2.82-1.69-5.87-2.55-9.06-2.55-4.73,0-9.36,1.96-12.72,5.37-3.31,3.36-5.08,7.85-5,12.64.02,1.31-.85,2.47-2.12,2.81-.25.07-.5.1-.74.1-1.02,0-1.99-.55-2.5-1.47-3.17-5.7-8.95-9.1-15.46-9.1s-12.3,3.4-15.46,9.1c-.51.92-1.48,1.47-2.5,1.47ZM446.36,35.11c-26.42,0-47.92,21.5-47.92,47.92s21.5,47.92,47.92,47.92,47.92-21.5,47.92-47.92-21.5-47.92-47.92-47.92Z"/>
    <path class="st1" d="M428.4,15.99h0c3.91,7.05,10.94,10.57,17.96,10.57s14.05-3.52,17.96-10.57h0c-.2,12.17,9.75,20.92,20.58,20.92,3.52,0,7.14-.93,10.53-2.96-8.23,13.72,1.69,31.12,17.6,31.12.12,0,.24,0,.36,0-14.09,7.83-14.09,28.1,0,35.93h0c-.12,0-.24,0-.36,0-15.91,0-25.83,17.39-17.6,31.12-3.39-2.03-7.01-2.96-10.53-2.96-10.83,0-20.78,8.76-20.58,20.92-3.91-7.05-10.94-10.57-17.96-10.57s-14.05,3.52-17.96,10.57h0s0,0,0,0c.2-12.17-9.75-20.92-20.58-20.92-3.52,0-7.14.93-10.53,2.96,8.23-13.72-1.69-31.12-17.6-31.12-.12,0-.24,0-.36,0h0c14.09-7.83,14.09-28.1,0-35.93.12,0,.24,0,.36,0,15.91,0,25.83-17.39,17.6-31.12,3.39,2.03,7.01,2.96,10.53,2.96,10.83,0,20.78-8.76,20.58-20.92h0M446.36,133.81c28.05,0,50.78-22.74,50.78-50.78s-22.74-50.78-50.78-50.78-50.78,22.74-50.78,50.78,22.74,50.78,50.78,50.78M513.4,65.06h0M428.4,10.27c-.49,0-.99.06-1.48.2-2.53.68-4.28,3-4.24,5.62.07,4.02-1.42,7.78-4.18,10.59-2.82,2.87-6.72,4.52-10.68,4.52-2.66,0-5.22-.72-7.59-2.14-.91-.55-1.93-.81-2.94-.81-1.48,0-2.94.57-4.05,1.67-1.85,1.86-2.21,4.73-.86,6.98,2.78,4.64,2.85,10.22.19,14.93-2.67,4.71-7.48,7.53-12.88,7.53h-.27s-.06,0-.1,0c-2.58,0-4.85,1.73-5.52,4.24-.68,2.53.45,5.21,2.75,6.48,4.78,2.65,7.63,7.5,7.63,12.96s-2.85,10.31-7.63,12.96c-2.29,1.27-3.43,3.94-2.75,6.48.67,2.5,2.94,4.24,5.52,4.24.03,0,.06,0,.09,0h.27c5.4,0,10.21,2.81,12.88,7.52,2.67,4.71,2.6,10.29-.19,14.93-1.35,2.25-.99,5.13.86,6.98,1.1,1.1,2.57,1.67,4.05,1.67,1.01,0,2.03-.27,2.94-.81,2.37-1.42,4.93-2.14,7.59-2.14,3.97,0,7.86,1.65,10.68,4.52,2.76,2.81,4.25,6.57,4.18,10.59-.04,2.62,1.7,4.94,4.24,5.62.49.13.99.2,1.48.2,2.04,0,3.97-1.09,5-2.94,2.65-4.78,7.5-7.63,12.96-7.63s10.31,2.85,12.96,7.63c1.03,1.85,2.96,2.94,5,2.94.49,0,.99-.06,1.48-.2,2.53-.68,4.28-3,4.24-5.62-.07-4.02,1.42-7.78,4.18-10.59,2.82-2.87,6.72-4.52,10.68-4.52,2.66,0,5.22.72,7.59,2.14.91.55,1.93.81,2.94.81,1.48,0,2.94-.57,4.05-1.67,1.85-1.85,2.21-4.73.86-6.98-2.78-4.64-2.85-10.22-.19-14.93,2.67-4.71,7.48-7.53,12.88-7.53h.27s.06,0,.1,0c2.58,0,4.85-1.73,5.52-4.24.68-2.53-.45-5.21-2.75-6.48-4.78-2.65-7.63-7.5-7.63-12.96,0-5.43,2.81-10.25,7.53-12.91,1.81-.96,3.04-2.86,3.04-5.05,0-3.15-2.55-5.71-5.7-5.72h0s0,0-.01,0c-.02,0-.03,0-.05,0-.02,0-.03,0-.05,0h-.27c-5.4,0-10.21-2.81-12.88-7.52-2.67-4.71-2.6-10.29.19-14.93,1.35-2.25.99-5.13-.86-6.98-1.1-1.1-2.57-1.67-4.05-1.67-1.01,0-2.03.27-2.94.81-2.37,1.42-4.93,2.14-7.59,2.14-3.97,0-7.86-1.65-10.68-4.52-2.76-2.81-4.25-6.57-4.18-10.59.04-2.62-1.7-4.94-4.24-5.62-.49-.13-.99-.2-1.48-.2-2.04,0-3.97,1.09-5,2.94-2.65,4.78-7.5,7.63-12.96,7.63s-10.31-2.85-12.96-7.63c-1.03-1.85-2.96-2.94-5-2.94h0ZM446.36,128.09c-24.85,0-45.06-20.22-45.06-45.06s20.22-45.06,45.06-45.06,45.06,20.22,45.06,45.06-20.22,45.06-45.06,45.06h0Z"/>
    <path class="st2" d="M428.4,15.99h0c3.91,7.05,10.94,10.57,17.96,10.57s14.05-3.52,17.96-10.57h0c-.2,12.17,9.75,20.92,20.58,20.92,3.52,0,7.14-.93,10.53-2.96-8.23,13.72,1.69,31.12,17.6,31.12.12,0,.24,0,.36,0-14.09,7.83-14.09,28.1,0,35.93h0c-.12,0-.24,0-.36,0-15.91,0-25.83,17.39-17.6,31.12-3.39-2.03-7.01-2.96-10.53-2.96-10.83,0-20.78,8.76-20.58,20.92-3.91-7.05-10.94-10.57-17.96-10.57s-14.05,3.52-17.96,10.57h0s0,0,0,0c.2-12.17-9.75-20.92-20.58-20.92-3.52,0-7.14.93-10.53,2.96,8.23-13.72-1.69-31.12-17.6-31.12-.12,0-.24,0-.36,0h0c14.09-7.83,14.09-28.1,0-35.93.12,0,.24,0,.36,0,15.91,0,25.83-17.39,17.6-31.12,3.39,2.03,7.01,2.96,10.53,2.96,10.83,0,20.78-8.76,20.58-20.92h0M446.36,133.81c28.05,0,50.78-22.74,50.78-50.78s-22.74-50.78-50.78-50.78-50.78,22.74-50.78,50.78,22.74,50.78,50.78,50.78M513.4,65.06h0M428.4,13.77c-.19,0-.38.02-.57.08-.98.26-1.66,1.16-1.64,2.18.08,4.97-1.76,9.62-5.19,13.1-3.48,3.54-8.28,5.56-13.18,5.56-3.31,0-6.46-.89-9.39-2.64-.35-.21-.75-.32-1.14-.32-.57,0-1.14.22-1.57.65-.72.72-.86,1.84-.33,2.71,3.44,5.74,3.53,12.64.23,18.46-3.3,5.82-9.25,9.3-15.93,9.3-.11,0-.22,0-.33,0-.01,0-.02,0-.04,0-1,0-1.88.67-2.14,1.64-.26.98.18,2.02,1.07,2.51,5.9,3.28,9.43,9.27,9.43,16.02s-3.52,12.74-9.43,16.02c-.89.49-1.33,1.53-1.07,2.51.26.97,1.14,1.64,2.14,1.64.01,0,.02,0,.04,0,.11,0,.22,0,.33,0,6.68,0,12.63,3.48,15.93,9.3,3.3,5.82,3.21,12.72-.23,18.46-.52.87-.39,1.99.33,2.71.43.43,1,.65,1.57.65.39,0,.79-.1,1.14-.32,2.92-1.75,6.08-2.64,9.39-2.64,4.9,0,9.7,2.03,13.18,5.56,3.43,3.48,5.27,8.14,5.19,13.1-.02,1.02.66,1.92,1.64,2.18.19.05.38.08.57.08.79,0,1.54-.42,1.94-1.14,3.28-5.9,9.27-9.43,16.02-9.43s12.74,3.52,16.02,9.43c.4.72,1.15,1.14,1.94,1.14.19,0,.38-.02.57-.08.98-.26,1.66-1.16,1.64-2.18-.08-4.97,1.76-9.62,5.19-13.1,3.48-3.54,8.28-5.56,13.18-5.56,3.31,0,6.46.89,9.39,2.64.35.21.75.32,1.14.32.57,0,1.14-.22,1.57-.65.72-.72.86-1.84.33-2.71-3.44-5.74-3.53-12.64-.23-18.46,3.3-5.82,9.25-9.3,15.93-9.3.11,0,.22,0,.33,0,.01,0,.02,0,.04,0,1,0,1.88-.67,2.14-1.64.26-.98-.18-2.02-1.07-2.51-5.9-3.28-9.43-9.27-9.43-16.02s3.51-12.71,9.38-16c.71-.37,1.19-1.11,1.19-1.96,0-1.23-.99-2.22-2.22-2.22h-.01s-.02,0-.03,0c-.11,0-.21,0-.32,0-6.68,0-12.63-3.48-15.93-9.3-3.3-5.82-3.21-12.72.23-18.46.52-.87.39-1.99-.33-2.71-.43-.43-1-.65-1.57-.65-.39,0-.79.1-1.14.32-2.92,1.75-6.08,2.64-9.39,2.64-4.9,0-9.7-2.03-13.18-5.56-3.43-3.48-5.27-8.14-5.19-13.1.02-1.02-.66-1.92-1.64-2.18-.19-.05-.38-.08-.57-.08-.79,0-1.54.42-1.94,1.14-3.28,5.9-9.27,9.43-16.02,9.43s-12.74-3.52-16.02-9.43c-.4-.72-1.15-1.14-1.94-1.14h0ZM446.36,131.59c-26.78,0-48.56-21.79-48.56-48.56s21.79-48.56,48.56-48.56,48.56,21.79,48.56,48.56-21.79,48.56-48.56,48.56h0Z"/>
  </g>
  <g>
    <path class="st5" d="M418.47,337.4s-51.06-31.7-72.37-40.7c-21.31-8.99-55.02-37.89-75.7-18.08-20.68,19.81-94.97,81.89-126.43,95.68-31.46,13.79-45.3,8.73-34.88,31.78,7.32,16.2,59.16,8.92,82.92,4.8,24.32-4.22,21.43-18.25,35.08-42,13.64-23.75,54.8-71.3,65.52-69.25s118.1,82.55,118.1,82.55l7.75-44.78Z"/>
    <path class="st2" d="M141.49,417.23c-16.64,0-29.78-2.77-33.37-10.71-3.47-7.68-4.3-12.42-2.79-15.85,2-4.55,7.67-6.41,17.07-9.49,5.71-1.87,12.82-4.2,21.15-7.85,31.98-14.01,106.23-76.43,126.12-95.47,16.34-15.65,40.55-1.95,60,9.06,6.09,3.44,11.84,6.7,16.84,8.81,21.14,8.92,72,40.46,72.51,40.77.37.23.56.66.49,1.08l-7.75,44.78c-.06.36-.31.67-.65.81-.34.13-.73.08-1.03-.14-37.07-27.79-109.37-80.77-117.67-82.36-9.86-1.88-50.89,45.21-64.4,68.74-3.83,6.66-6.33,12.53-8.54,17.7-5.58,13.06-9.26,21.69-27.28,24.82-16.66,2.89-35.2,5.3-50.71,5.3ZM287.72,272.85c-6.06,0-11.69,1.86-16.57,6.54-19.96,19.11-94.53,81.77-126.74,95.88-8.42,3.69-15.58,6.04-21.34,7.92-8.53,2.79-14.16,4.64-15.78,8.32-1.25,2.83-.41,7.05,2.78,14.12,4.9,10.83,34.7,12.36,81.77,4.18,16.87-2.93,20.19-10.69,25.68-23.56,2.23-5.23,4.76-11.15,8.65-17.92,13.07-22.76,54.97-72,66.64-69.77,10.3,1.97,103.99,71.86,117.15,81.7l7.33-42.36c-5.84-3.61-51.87-31.91-71.61-40.25-5.12-2.16-10.92-5.44-17.06-8.92-13.45-7.61-28.12-15.91-40.91-15.91Z"/>
  </g>
  <g>
    <polygon class="st10" points="413.84 334.02 397.87 323.9 378.54 360.53 410.71 361.6 413.84 334.02"/>
    <path class="st2" d="M410.71,362.66s-.02,0-.04,0l-32.17-1.07c-.37-.01-.7-.21-.88-.53-.18-.32-.19-.71-.02-1.03l19.33-36.63c.14-.26.38-.45.67-.53.29-.08.59-.03.84.13l15.97,10.12c.34.22.53.61.49,1.02l-3.13,27.58c-.06.54-.52.94-1.06.94ZM380.28,359.52l29.49.98,2.94-25.94-14.43-9.15-18,34.11Z"/>
  </g>
  <g>
    <path class="st4" d="M389.27,334.25c-14.54,0-33.58-26.25-40.04-38.22-8.63-16.01-.87-21.12-.54-21.33.17-.11.37-.16.56-.16.08,0,.16,0,.24.03l21.01,4.93c.28-.49.73-.95,1.43-.95,1.32,0,2.33,1.4,3.6,8.55,1.1,6.22,3.87,17.95,10,26.59.97,1.37,1.9,2.06,2.75,2.06h0c6.34,0,13.35-30.85,16.27-50.29.06-.39.33-.71.7-.84.12-.04.23-.06.35-.06.26,0,.52.1.72.28l11.85,10.88c.25.23.37.56.34.89-.22,2.16-5.74,52.95-26.94,57.4-.74.16-1.52.23-2.31.23h0Z"/>
    <path class="st2" d="M405.62,265.62l11.85,10.88s-5.42,52.13-26.1,56.47c-.68.14-1.38.21-2.09.21-13.26,0-31.61-23.77-39.1-37.66-8.26-15.32-.91-19.92-.91-19.92l21.89,5.14s.28-1.12.78-1.12c.58,0,1.45,1.45,2.55,7.67,1.11,6.25,3.94,18.22,10.18,27.02,1.23,1.73,2.44,2.51,3.62,2.51,9.62,0,17.32-51.19,17.32-51.19M405.62,263.5c-.24,0-.48.04-.71.12-.74.26-1.28.91-1.39,1.69-.02.13-1.95,12.87-5.02,25.43-5.79,23.68-10.02,23.95-10.2,23.95-.47,0-1.17-.6-1.89-1.61-6.01-8.48-8.74-20.03-9.82-26.17-1.28-7.22-2.37-9.42-4.65-9.42-.72,0-1.36.29-1.86.81l-20.33-4.77c-.16-.04-.32-.06-.49-.06-.4,0-.79.11-1.13.32-.37.23-8.93,5.86.17,22.73,6.82,12.65,25.81,38.78,40.97,38.78.87,0,1.72-.09,2.53-.26,21.95-4.6,27.55-56.14,27.78-58.33.07-.67-.18-1.33-.68-1.78l-11.85-10.88c-.4-.37-.91-.56-1.44-.56h0Z"/>
  </g>
  <g>
    <path class="st5" d="M438.75,387.17c-9.02,0-19-3.38-25.32-6.55-11.58-5.79-5.58-20.4-.29-33.29,2.39-5.83,4.46-10.87,4.63-14.55.54-11.53.34-20.46-6.96-38.78-5.07-12.74-3.46-24.62-2.16-34.16.51-3.72.99-7.24.99-10.29,0-7.04-2.08-11.35-3.64-13.6l10.71-.05c3.3,8.29,34.5,86.82,39.48,104.11,5.46,18.94,5.32,32.4-.4,40-3.57,4.74-9.3,7.14-17.04,7.14h0Z"/>
    <path class="st2" d="M415.97,237.02c4.47,11.25,34.32,86.47,39.17,103.31,5.35,18.59,5.28,31.72-.22,39.03-3.35,4.45-8.78,6.7-16.16,6.7-8.83,0-18.61-3.32-24.83-6.43-9.87-4.94-5.93-16.84.24-31.88,2.43-5.93,4.53-11.04,4.71-14.92.54-11.68.35-20.71-7.03-39.24-4.97-12.47-3.37-24.18-2.09-33.6.51-3.76,1-7.31,1-10.44,0-5.81-1.39-9.87-2.8-12.5l8.01-.04M417.47,234.79l-13.86.07s4.93,4.04,4.93,14.69-5.94,26.81,1.25,44.86c7.19,18.06,7.41,26.86,6.88,38.31-.53,11.46-21.71,39.89-3.73,48.88,6.57,3.29,16.6,6.66,25.82,6.66,16,0,29.57-10.16,18.51-48.56-5.31-18.43-39.8-104.92-39.8-104.92h0Z"/>
  </g>
  <g>
    <path class="st4" d="M476.83,282.64c-1.9-2.46-4.83-10.02-.01-18.34,7.56-13.05,34.62-29.22,63.75-15.82,13.33,6.13,25.2,21.38,16.53,30.44-9.7,10.14-31.81-.99-35.75-6.38-3.03-4.15-2.4-7.23-.92-7.56,1.55-.34,3.61,2.36,4.41,4.84,1.55,4.78.63,13.11-4.26,15.9-7.63,4.36-17.21-1.84-17.94-6.64-.55-3.64.79-6.32,2.44-6.28,1.96.05,1.04,4.39-.06,7.2-1.53,3.92-7.37,7.59-7.37,7.59,0,0,2.21,3.18,2.47,6.5.54,6.68-3.74,13.1-11.36,14.25-6.86,1.04-12.63-2.13-15.17-4.87-4.05-4.37-5.98-12.59.87-18.25,3.63-3,8.94-2.37,11.98,1.04,1.87,2.1,1.58,4.63.32,7.25"/>
    <path class="st2" d="M486.13,312.39c-6.53,0-12.25-2.96-15.34-6.3-3.21-3.46-4.95-8.23-4.65-12.75.29-4.29,2.32-8.12,5.89-11.06.04-.03.08-.06.12-.09-2.13-4.71-3.02-12.26,1.35-19.81,9.16-15.8,38.88-31.09,68.67-17.38,10.93,5.03,19.74,14.7,21.42,23.52.95,5-.33,9.52-3.71,13.05-3.69,3.86-9.08,5.66-15.59,5.24-5.36-.36-11.27-2.27-16.19-4.73-1.08,2.88-2.89,5.43-5.61,6.98-4.55,2.6-10.13,2.66-15.32.15-1.08-.52-2.09-1.13-3-1.8-.53.49-1.05.94-1.55,1.34.62,1.43,1.19,3.19,1.34,5.05.75,9.24-5.39,16.96-14.61,18.35-1.09.17-2.16.24-3.21.24ZM479.87,287.15c-1.06,0-2.1.34-2.95,1.04-1.93,1.59-2.98,3.5-3.12,5.66-.16,2.42.84,5.11,2.62,7.03,1.54,1.66,5.98,4.57,11.78,3.69,6.06-.92,8.46-5.91,8.11-10.15-.15-1.84-1.36-3.98-1.81-4.64-.58-.86-.8-1.93-.59-2.95.21-1.02.83-1.91,1.71-2.47,1.08-.69,2.51-1.78,3.7-2.94-.22-.58-.38-1.17-.47-1.76-.53-3.46.2-6.71,1.95-8.69,1.17-1.33,2.72-2.02,4.38-2,1.6.04,3.03.82,3.91,2.15,1.88,2.82.59,7.43-.41,10.07.52.39,1.13.76,1.82,1.1,1.36.66,4.88,1.98,8.18.1,1.31-.75,2.21-2.5,2.67-4.52-1.31-1.04-2.37-2.08-3.09-3.07-2.63-3.61-3.53-7.3-2.45-10.15.67-1.78,2.06-3.03,3.8-3.41,4.43-.97,7.74,3.88,8.88,7.39.51,1.56.82,3.43.87,5.4,4.01,2.34,9.81,4.74,15.43,5.12,4.24.28,7.45-.69,9.55-2.88,1.64-1.72,2.21-3.79,1.72-6.32-1.21-6.33-8.55-14.06-17.09-17.99-27.87-12.82-52.45,3.24-58.83,14.26-3.37,5.82-1.98,10.98-.79,13.24,3.63-.14,7.33,1.29,9.97,4.25,1.9,2.14,3.61,5.86.92,11.46-.91,1.91-3.2,2.72-5.11,1.8-1.91-.92-2.72-3.2-1.8-5.11,1.04-2.18.54-2.75.27-3.05-.98-1.1-2.36-1.67-3.73-1.67Z"/>
    <path class="st5" d="M486.1,309.84c-5.74,0-10.74-2.58-13.43-5.48-2.74-2.96-4.23-7.01-3.97-10.84.24-3.57,1.96-6.77,4.97-9.26.59-.49,1.22-.89,1.87-1.22-1.88-2.79-4.89-10.63.18-19.37,7.17-12.38,34.57-30.52,65.39-16.34,10.06,4.63,18.46,13.74,19.97,21.67.79,4.16-.26,7.89-3.05,10.81-3.19,3.34-7.76,4.85-13.58,4.45-6.38-.42-13.12-3.08-17.96-5.97-.64,3.51-2.28,6.84-5.27,8.55-3.81,2.18-8.52,2.2-12.94.07-1.67-.81-3.13-1.84-4.28-2.99-1.57,1.78-3.46,3.25-4.62,4.07.73,1.31,1.83,3.61,2.02,6.03.64,7.86-4.6,14.43-12.44,15.62-.97.15-1.93.22-2.86.22ZM479.86,284.6c-1.63,0-3.25.53-4.57,1.62-2.49,2.06-3.85,4.57-4.05,7.46-.21,3.09,1.06,6.52,3.3,8.93,2.59,2.79,8.09,5.38,14.04,4.48,7.34-1.11,10.73-7.33,10.28-12.89-.24-2.95-2.23-5.85-2.25-5.88-.2-.29-.27-.64-.2-.98.07-.34.28-.64.57-.83.04-.03,3.3-2.1,5.41-4.64-.53-.86-.87-1.74-1-2.6-.41-2.72.09-5.2,1.34-6.62.66-.75,1.52-1.17,2.39-1.13.77.02,1.43.38,1.85,1.01,1.37,2.06-.23,6.59-.75,7.93-.18.46-.41.91-.67,1.35.98,1.05,2.32,2.04,3.84,2.77,3.65,1.76,7.5,1.77,10.56.02,2.49-1.42,3.79-4.61,4.18-7.87-1.73-1.22-3.05-2.42-3.8-3.46-2.08-2.85-2.88-5.75-2.13-7.74.36-.96,1.08-1.62,1.96-1.82,2.61-.58,5.02,2.98,5.9,5.69.54,1.68.82,3.8.74,6.01,4.45,2.84,11.31,5.83,17.82,6.27,5.03.33,8.92-.9,11.56-3.67,2.22-2.33,3.03-5.21,2.39-8.56-1.37-7.18-9.16-15.52-18.53-19.83-29.35-13.5-55.33,3.6-62.11,15.3-4.62,7.97-1.63,14.92-.08,16.92.08.1.14.21.18.33,3.33-.64,6.92.47,9.38,3.23,2.02,2.26,2.19,5.17.52,8.66-.31.64-1.07.91-1.7.6-.64-.3-.91-1.07-.6-1.7,1.6-3.33.69-4.94-.13-5.85-1.48-1.66-3.57-2.52-5.64-2.52ZM504.91,274.12c-.11.06-.22.17-.27.22-.6.69-1.07,2.36-.73,4.54.02.1.04.2.06.3.87-2.36,1.12-4.38.94-5.07ZM520.73,266.23s-.01,0-.02,0c-.01.01-.12.15-.19.49-.18.96.22,2.8,1.87,5.06.38.53,1.01,1.15,1.83,1.82-.07-1.24-.28-2.41-.59-3.39-.75-2.3-2.35-3.98-2.9-3.98Z"/>
  </g>
  <g>
    <g>
      <g>
        <path class="st4" d="M360.09,114c-1.57.39-6.58,1.43-11.59-1.2-4.96-2.6-9.89-8.78-8.29-15.28,1.84-7.46,10.81-9.41,11.19-9.49,6.2-1.25,14.18,1.05,15.68,5.79,1.94,6.13-7.34,15.02-15.09,15.28-2.21.08-5.47-.51-5.59-1.5-.16-1.34,5.37-3.77,6.39-2.6,1.14,1.32-3.51,7.05-6.19,9.89-3.78,3.98-6.92,7.3-10.29,6.49-2.96-.71-5.61-4.48-4.9-7.59.43-1.88,2.11-3.6,2.9-3.3,1.5.57-2.32,7.69.7,14.89.42.99,2.23,5.32,6.19,6.79,5.67,2.12,12.19-3.98,15.68-7.19,3.38-3.1,9.39-9.68,12.69-21.28"/>
        <path class="st2" d="M343.71,137.07c-1.33,0-2.68-.22-4.05-.73-2.63-.98-6.27-3.38-8.73-9.23-.74-1.76-1.16-3.49-1.37-5.14-2.11-2.58-3.18-6.03-2.46-9.17.59-2.55,2.37-5,4.42-6.1,1.43-.76,2.98-.88,4.39-.34.43.16.8.36,1.12.58-1.48-3.2-2.03-6.8-1.13-10.49,2.52-10.24,14.13-12.68,14.62-12.78,8.17-1.65,18.47,1.5,20.79,8.8.7,2.2.61,4.62-.23,7.06,2.18.78,3.41,3.13,2.77,5.39-2.65,9.31-7.47,17.38-13.95,23.33l-.15.14c-3.47,3.19-9.44,8.67-16.03,8.67ZM340.06,125.54c1.04,1.64,2.08,2.25,2.69,2.48,3.04,1.13,8.6-3.98,10.98-6.16l.16-.14c.94-.87,1.84-1.79,2.7-2.77-2.04.08-4.41-.11-6.89-.88-2.99,3.15-6.05,6.35-9.64,7.46ZM338.99,110.27c.22,1.48-.05,3.02-.23,4.11-.11.67-.24,1.41-.34,2.2.96-.67,2.25-1.92,3.42-3.12-1.04-.96-2-2.03-2.84-3.19ZM362.19,110.1c.06.03.12.07.18.1.05-.11.1-.21.15-.32-.11.07-.22.15-.33.22ZM351.83,100.26c1.78,0,3.25.62,4.31,1.85.26.3.47.6.64.91,1.86-1.09,3.61-2.62,4.81-4.33,1.13-1.6,1.44-2.92,1.25-3.53-.55-1.74-5.72-3.76-10.58-2.79-.05.01-6.59,1.46-7.76,6.2-.35,1.4-.17,2.8.34,4.1.63-.45,1.39-.88,2.3-1.29,1.71-.76,3.29-1.14,4.68-1.14Z"/>
      </g>
      <g>
        <g>
          <path class="st4" d="M515.91,178.31c-.19,0-.38-.02-.56-.07-.62-.16-15.19-4.08-19.78-14.19-2.09-4.62-1.79-9.7.92-15.11,5.15-10.31,13.2-16.46,21.52-16.46,5.82,0,10.88,3.15,13.21,8.23,1.37,2.99,8,18.34,3.75,26.45-1.13,2.15-2.95,3.6-5.29,4.24-2.73,3.34-7.2,5.65-13.32,6.88-.14.03-.29.04-.44.04Z"/>
          <path class="st2" d="M518.01,134.7c4.96,0,9.21,2.6,11.19,6.93,4.16,9.07,9,26.04-.8,27.78,6.14-8.59-3.46-21.45-15.81-22.38-.46-.03-.89-.05-1.3-.05-14.49,0,.03,20.86,13.76,22.47.57.07,1.11.1,1.62.1.62,0,1.2-.05,1.74-.14-2.12,2.96-6.1,5.41-12.49,6.69,0,0-26.99-7.06-17.44-26.16,5.4-10.81,13.07-15.24,19.53-15.24M518.01,130.26c-9.18,0-17.96,6.61-23.5,17.69-3.76,7.51-2.59,13.4-.95,17.01,5.02,11.07,20.58,15.25,21.24,15.42.37.1.74.14,1.12.14.29,0,.58-.03.87-.09,6.32-1.26,11.07-3.66,14.15-7.12,2.63-.88,4.68-2.64,5.99-5.15,4.73-9.03-2.25-25.24-3.7-28.4-2.69-5.87-8.53-9.52-15.23-9.52h0ZM509.72,151.58c.28-.08.77-.16,1.57-.16.3,0,.63.01.97.04,5.36.4,10.6,3.89,12.75,8.48.65,1.38,1.18,3.25.65,5.13-.03,0-.06,0-.09,0-5.3-.62-10.79-5.09-13.65-8.98-1.67-2.27-2.11-3.82-2.19-4.49h0Z"/>
        </g>
        <g>
          <path class="st4" d="M522.52,193.31c-8.77,0-15.46-2.43-19.37-7.02-3.63-4.27-4.85-10.27-3.62-17.83.17-1.08,1.1-1.86,2.19-1.86,0,0,.02,0,.02,0,1.1.01,2.02.82,2.17,1.91.06.36,1.52,9.17,12.03,10.63.68.09,1.37.14,2.05.14,10.04,0,17.98-10.12,18.06-10.22.43-.56,1.09-.86,1.76-.86.36,0,.73.09,1.07.27.96.53,1.39,1.67,1.02,2.7-.15.43-3.55,9.59-13.14,15.51,1.55.5,3.47,1.02,5.19,1.42,1.01.24,1.73,1.14,1.72,2.18-.01,1.04-.74,1.93-1.76,2.15-.17.04-4.2.88-9.39.88Z"/>
          <path class="st2" d="M501.72,168.82s1.53,10.79,13.92,12.52c.8.11,1.59.16,2.36.16,11.29,0,19.82-11.09,19.82-11.09,0,0-3.84,10.66-15.18,15.98-2.58,1.21,8.82,3.86,8.82,3.86,0,0-3.92.83-8.92.83-9.84,0-23.89-3.22-20.81-22.28M501.71,164.33c-2.17,0-4.03,1.62-4.37,3.78-1.33,8.24.05,14.84,4.12,19.62,4.34,5.1,11.63,7.8,21.06,7.8,5.41,0,9.67-.89,9.85-.93,2.03-.43,3.49-2.22,3.51-4.3s-1.41-3.89-3.43-4.36c-.22-.05-.44-.1-.66-.16,7.32-6.09,10.06-13.47,10.2-13.86.74-2.06-.13-4.35-2.04-5.4-.67-.37-1.4-.55-2.13-.55-1.34,0-2.65.61-3.52,1.73-.07.08-7.38,9.35-16.3,9.35-.58,0-1.17-.04-1.75-.12-8.54-1.19-9.99-7.87-10.14-8.77-.27-2.19-2.1-3.8-4.3-3.85-.03,0-.06,0-.09,0h0Z"/>
        </g>
      </g>
    </g>
    <g>
      <path class="st4" d="M481.96,251.28c-2.49,0-3.95-.74-4.31-2.2-.11-.43-.09-.87.03-1.27-.5.11-1.04.25-1.65.41-3.25.84-6.68,1.26-10.2,1.26-1.24,0-12.14-.12-13.16-4.19-.08-.32-.1-.68-.04-1.06-.86.1-1.82.15-2.88.15-9.8,0-9.8-1.99-9.8-3.06,0-.78.53-2.27,2.55-2.27.86,0,2.54-.88,4.03-1.99-10.69-2.17-46.34-6.53-70.14-9.19-.92,1.68-2.65,3.44-5.45,3.44-1.08,0-2.23-.27-3.43-.81-2.8-1.26-5.44-3.29-7.59-4.99.28.66.58,1.34.9,1.99.35.7.29,1.54-.14,2.2-.41.63-1.11,1-1.85,1-.03,0-.07,0-.1,0-.2,0-5-.28-10.81-4.64-.57-.43-1.07-.83-1.52-1.22.12,1.15-.74,2.24-1.89,2.45,0,0-.17.03-.5.03-2.16,0-7.83-1.35-13.8-13.86-6.54-13.69,5.04-62.99,5.94-66.78.19-2.04,2.07-19.2,12.79-36.59,10.35-16.81,31.21-36.84,71.77-36.84,7.35,0,15.2.66,23.34,1.96,31.64,5.05,53.35,17.51,64.54,37.04,15.94,27.82,4.96,59.99,3.4,64.23.77,41.86-8.27,60.07-16.01,67.97-6.05,6.17-11.82,6.84-14.02,6.84Z"/>
      <path class="st2" d="M420.71,75.47c7.05,0,14.69.61,22.99,1.93,98.41,15.72,66.06,98.69,66.06,98.69,1.3,64.83-20.71,72.97-27.8,72.97-1.68,0-2.52-.46-2.03-.72,1.9-1.03,4.85-3.38,1.72-3.38-1.14,0-3.08.31-6.18,1.11-3.33.86-6.66,1.19-9.64,1.19-7.4,0-12.68-2.05-10.54-3.19,2.32-1.24,3.32-3.43,1.89-3.43-.42,0-1.04.19-1.89.64-1.27.67-3.38.89-5.54.89-4.32,0-8.85-.89-7.25-.89,2.4,0,6.59-3,8.19-5.1,1.6-2.1-75.72-10.69-75.72-10.69,0,0-.8,3.61-4.02,3.61-.72,0-1.55-.18-2.52-.61-4.98-2.23-9.79-7.48-11.35-7.48-.11,0-.21.03-.29.09-1.15.87,2.06,7.39,2.06,7.39,0,0-4.25-.2-9.58-4.2-4.01-3.01-4.51-5-4.77-5-.08,0-.14.21-.29.67-.6,1.87,0,5.12,0,5.12,0,0-.06,0-.19,0-1.02,0-6.09-.64-11.8-12.6-6.39-13.39,6.13-65.46,6.13-65.46,0,0,5.83-71.57,82.36-71.57M420.72,71.03h-.01c-41.58,0-63.01,20.61-73.66,37.9-10.71,17.39-12.82,34.61-13.09,37.39-.5,2.12-3.3,14.12-5.46,27.74-4.88,30.75-1.43,37.98-.29,40.36,6.28,13.16,12.6,15.12,15.81,15.12.29,0,.56-.02.81-.05.92-.13,1.76-.54,2.42-1.17,5.95,4.23,10.83,4.58,11.39,4.6.07,0,.14,0,.21,0,1.49,0,2.89-.75,3.71-2,.11-.16.2-.33.28-.5,1.19.79,2.46,1.52,3.78,2.11,1.48.67,2.94,1,4.34,1,2.89,0,5.11-1.41,6.57-3.3,23.39,2.63,48.33,5.73,61.66,7.81-.95.87-1.44,2.09-1.44,3.28,0,.86.3,3.74,4.2,4.55.56.12,1.27.23,2.06.34,1.11.14,3.33.39,5.76.39.35,0,.69,0,1.02-.02,1.92,4.43,10.15,5.12,15.05,5.12,3.44,0,6.8-.39,10-1.15.67,1.37,2.28,2.94,6.13,2.94,2.48,0,8.96-.73,15.6-7.5,11.64-11.87,17.24-35.14,16.66-69.15,2.05-5.75,12.28-37.8-3.7-65.7-11.54-20.14-33.78-32.96-66.11-38.13-8.26-1.32-16.22-1.99-23.68-1.99h0Z"/>
    </g>
    <g>
      <path class="st5" d="M347.1,177.92s-6.13,23.5,5.06,36.6c11.19,13.1,31.97,22.8,68.73,21.55,36.76-1.26,48.22-24.93,48.22-24.93,0,0,34.1-42.66,14.12-79.69-19.98-37.03-94.31-36.76-115.09-21.31-20.78,15.45-21.05,67.78-21.05,67.78Z"/>
      <path class="st2" d="M414.57,237.29c-29.49,0-50.74-7.4-63.25-22.05-11.11-13.01-5.87-35.31-5.33-37.46.03-3.61.84-53.17,21.49-68.53,13.13-9.77,45.31-12.94,71.74-7.08,15.27,3.39,35.47,11.13,44.98,28.75,19.65,36.42-12.41,78.57-14.16,80.82-.97,1.84-13.46,24.22-49.12,25.43-2.16.07-4.29.11-6.36.11ZM411.07,101.42c-17.58,0-33.94,3.42-42.26,9.61-20.1,14.95-20.6,66.38-20.6,66.9l-.04.27c-.06.23-5.85,23.1,4.83,35.6,12.93,15.14,35.75,22.26,67.85,21.16,35.6-1.22,47.15-24.07,47.26-24.3l.13-.21c.34-.42,33.41-42.53,14.01-78.47-9.11-16.89-28.69-24.35-43.51-27.64-8.9-1.98-18.46-2.92-27.67-2.92Z"/>
    </g>
    <g>
      <path class="st2" d="M385.92,218.79c1.12,2.34,3.3,1.98,5.19.89.96-.54,1.69-1.45,2.76-1.86,1.23-.45,2.39-.8,3.83-.74,0,0,.23.28.23.28-.16.77-.47,1.41-.83,1.99-1.02,1.89-2.98,2.68-4.99,3.05-1.41.35-2.93.49-4.33-.12-1.39-.56-2.25-2.02-2.23-3.44,0,0,.36-.06.36-.06h0Z"/>
      <path class="st2" d="M396.81,218.19c1.41-.7,2.84-1.14,4.47-.52,1.57.63,1.71,2.84.79,4.09-2.36,3.01-7.38,2.23-9.4-.57,2.22.74,6.86,1.16,7.88-1.22.08-.42.17-.49-.12-.81-.89-.65-2.44-.77-3.63-.97h0Z"/>
    </g>
    <g>
      <g>
        <path class="st10" d="M412.13,202.89c-1.3,0-2.47-.89-2.78-2.2,0-.03-.01-.06-.02-.09-.98.28-2.08.03-2.84-.75-1.1-1.13-1.08-2.94.05-4.04.12-.12,12.07-11.83,15.14-18.72l.25-.55c1.1-2.47,1.89-4.26,4.27-3.72.7.16,2.33.81,2.26,3.38-.02.61,0,1.05.06,1.3.14,0,.35,0,.68-.07,6.18-1.23,10.56-5.78,10.6-5.82,1.01-1.07,2.67-1.19,3.83-.28,1.16.91,1.44,2.55.65,3.79-.49.79-.94,1.87-1.06,2.52.1,0,.22.01.37.01,5.53,0,13.14-2.97,13.21-3,1.45-.58,3.1.13,3.69,1.58.59,1.45-.09,3.1-1.52,3.71-1.13.49-2.37,1.24-3.08,1.83.2.1.45.21.76.33,2.66,1.01,2.74,3.08,2.7,3.7-.16,2.41-2.4,4.04-8.9,6.44-3.76,1.39-8.96,3.02-15.46,4.84-10.99,3.09-22.09,5.72-22.2,5.75-.22.05-.44.08-.66.08ZM425.34,182.34c-3.08,5.04-8.34,10.88-11.69,14.39,15.03-3.63,31.43-8.28,37.86-11.05-1.01-.87-1.6-1.88-1.77-3.03-2.03.41-4.16.71-6.14.71-3.28,0-4.79-1.49-5.47-2.74-.09-.16-.17-.32-.23-.49-2.11,1.21-4.68,2.33-7.58,2.91-2.35.47-3.95-.04-4.97-.7ZM455.21,181.32h0Z"/>
        <path class="st2" d="M408.54,197.85s12.42-12.12,15.75-19.6-1.68,3.39,5.46,1.98c7.14-1.42,12.12-6.66,12.12-6.66,0,0-4.41,6.93,1.72,6.93s14.26-3.2,14.26-3.2c0,0-10.3,4.4-2.22,7.46,8.08,3.06-43.51,15.27-43.51,15.27"/>
        <path class="st2" d="M412.13,201.14c-.5,0-.96-.34-1.08-.85-.14-.6.23-1.19.82-1.33,19.38-4.59,40.12-10.61,43.22-13.21-2.4-.94-3.63-2.18-3.66-3.7-.01-.59.17-1.15.48-1.68-2.6.67-5.63,1.25-8.32,1.25-1.95,0-3.27-.62-3.94-1.83-.43-.78-.49-1.7-.37-2.6-2.24,1.58-5.47,3.39-9.32,4.15-1.72.34-3.08.1-4.04-.72-.42-.36-.72-.78-.93-1.23-3.75,7.59-15.18,18.79-15.68,19.27-.44.43-1.14.42-1.57-.02s-.42-1.14.02-1.57c.12-.12,12.31-12.06,15.52-19.26l.25-.55c1.14-2.56,1.31-2.95,2.28-2.73.94.21.91,1.17.9,1.63-.02.7-.06,2.16.65,2.76.53.45,1.48.38,2.18.24,6.72-1.33,11.49-6.29,11.53-6.34.39-.41,1.04-.46,1.49-.11.45.35.56.99.25,1.47-.82,1.3-1.74,3.57-1.21,4.54.31.56,1.26.68,1.99.68,5.85,0,13.77-3.09,13.85-3.12.56-.22,1.2.05,1.43.61.23.56-.03,1.2-.59,1.44-1.96.84-4.66,2.58-4.64,3.67,0,.4.64,1.07,2.38,1.73,1.44.55,1.6,1.46,1.57,1.95-.08,1.23-.21,3.28-23.09,9.71-10.95,3.08-22.02,5.7-22.13,5.73-.09.02-.17.03-.26.03Z"/>
      </g>
      <g>
        <path class="st10" d="M432.52,222.96c-.39,0-.99-.14-1.4-.92-.22-.33-1.56-1.3-2.85-2.05l-3.91-2.27,4.51-.39c.05,0,5.26-.45,7.86-.76,1.07-.13,2.83-.98,4.23-1.66,2.09-1.01,3.14-1.51,4.1-1.01.45.24.76.66.84,1.17,0,.06.19,6.25-1.87,6.74-.64.15-1.43-.13-1.74-.96-.28-.4-1.3-1.12-2.1-1.53.02.17.04.33.05.44.12,1,.26,2.15-.84,2.64-.4.18-1.19.33-2.01-.6-.65-.75-2.35-1.47-3.36-1.71-.01.27-.01.56-.01.73,0,.68,0,1.82-1.16,2.1-.06.01-.18.04-.34.04ZM442.31,220.89h0ZM442.26,220.76h0s0,0,0,0ZM442.48,217.35c.14.09.28.18.41.28.02-.17.05-.34.07-.51-.16.08-.32.15-.48.23Z"/>
        <path class="st2" d="M428.99,218.76s2.91,1.69,3.39,2.62-.23-2.64.83-2.79,4.11.98,5.25,2.28-.43-2.95.67-3.24,4.21,1.83,4.49,2.7,1.02-4.1.87-5.02-4.95,2.37-7.59,2.69-7.9.77-7.9.77Z"/>
        <path class="st2" d="M432.5,221.92c-.18,0-.34-.12-.46-.37-.32-.61-2.16-1.83-3.24-2.46l-1.07-.62,1.24-.11c.05,0,5.28-.45,7.89-.77,1.25-.15,3.08-1.04,4.56-1.75,1.85-.89,2.69-1.27,3.17-1.03.16.08.27.23.3.42.07.43-.27,5.37-1.08,5.57-.15.04-.43,0-.55-.36-.23-.72-3.18-2.65-4.01-2.44-.09.02-.21.3-.02,1.89.11.89.17,1.38-.24,1.57-.37.16-.68-.19-.81-.34-1.04-1.19-3.96-2.29-4.9-2.15-.11.01-.29.27-.29,1.84,0,.67,0,1-.37,1.09-.04,0-.07.01-.11.01ZM430.2,219.04c.64.42,1.45.98,1.99,1.5,0-.58.03-1.23.22-1.7-.84.08-1.62.15-2.22.2ZM435.27,218.56c1.16.39,2.43,1.04,3.2,1.75-.01-.11-.03-.23-.04-.33-.08-.68-.17-1.42-.05-1.96-.51.17-1,.3-1.44.35-.48.06-1.06.12-1.67.18ZM440.1,217.33c1.22.36,2.78,1.43,3.51,2.27.24-1.06.55-3.24.52-4.06-.43.08-1.5.59-2.37,1.01-.54.26-1.1.53-1.65.78Z"/>
      </g>
      <g>
        <path class="st5" d="M429.56,218.55c-7.04,0-12.41-2.1-14.99-3.35-6.79-3.29-10.38-8.65-10.53-8.88l-.31-.48.2-.53c.19-.49,4.71-12.02,16.02-17.68,5.84-2.92,13.21-4.6,20.21-4.6,6.08,0,11.35,1.26,15.23,3.64,2.69,1.65,4.15,4.51,4.11,8.06-.06,5.73-4.29,13.95-13.62,19.42-4.97,2.91-10.46,4.39-16.33,4.39Z"/>
        <path class="st2" d="M440.17,184.15c5.5,0,10.73,1.07,14.65,3.48,7.2,4.42,3.3,18.08-9.49,25.57-5.3,3.1-10.77,4.23-15.77,4.23-5.8,0-10.96-1.52-14.5-3.23-6.59-3.2-10.09-8.49-10.09-8.49,0,0,4.43-11.56,15.48-17.08,5.64-2.82,12.88-4.48,19.71-4.48M440.17,181.93h0c-7.17,0-14.71,1.72-20.7,4.71-11.69,5.85-16.37,17.77-16.56,18.27l-.41,1.06.63.95c.16.24,3.91,5.84,10.97,9.27,2.66,1.29,8.21,3.46,15.47,3.46,6.07,0,11.75-1.53,16.89-4.54,8.4-4.92,14.1-13.11,14.17-20.36.04-3.95-1.61-7.16-4.64-9.02-4.06-2.49-9.53-3.81-15.81-3.81h0Z"/>
      </g>
      <g class="st9">
        <g>
          <path class="st3" d="M436.09,214.22c-9.51,0-17.24-7.74-17.24-17.24s7.74-17.24,17.24-17.24,17.24,7.74,17.24,17.24-7.74,17.24-17.24,17.24Z"/>
          <path class="st2" d="M436.09,180.84c8.91,0,16.13,7.22,16.13,16.13s-7.22,16.13-16.13,16.13-16.13-7.22-16.13-16.13,7.22-16.13,16.13-16.13M436.09,178.62c-10.12,0-18.35,8.23-18.35,18.35s8.23,18.35,18.35,18.35,18.35-8.23,18.35-18.35-8.23-18.35-18.35-18.35h0Z"/>
          <path class="st4" d="M436.09,183.06c7.67,0,13.92,6.24,13.92,13.92s-6.24,13.92-13.92,13.92-13.92-6.24-13.92-13.92,6.24-13.92,13.92-13.92M436.09,180.84c-8.91,0-16.13,7.22-16.13,16.13s7.22,16.13,16.13,16.13,16.13-7.22,16.13-16.13-7.22-16.13-16.13-16.13h0Z"/>
        </g>
      </g>
    </g>
    <g>
      <g>
        <path class="st10" d="M369.58,193.98c-.83,0-1.64-.36-2.19-1.02l-22.44-26.77c-.51-.6-.74-1.39-.65-2.17l.8-6.79c.17-1.45,1.45-2.56,2.87-2.53,1.46.02,2.68,1.14,2.81,2.59.09.89.45,2.03.76,2.47,1.04-.4,2-2.5,2.26-3.65.34-1.49,1.8-2.44,3.3-2.17,1.5.28,2.52,1.69,2.32,3.2-.29,2.13-.2,5.71.71,6.87.07.1.12.13.16.14.5-.11,1.68-.89,2.46-1.62.69-.65,1.65-.91,2.58-.71.92.2,1.69.85,2.04,1.72,1.73,4.3,3.04,8.78,3.89,13.33.88,4.7,1.28,9.52,1.18,14.3-.02,1.19-.78,2.24-1.91,2.64-.31.11-.63.16-.95.16ZM351.84,165.51l14.52,17.32c-.18-1.64-.42-3.28-.72-4.9-.56-2.99-1.33-5.96-2.31-8.85-1.1.54-2.35.91-3.58.78-1.65-.18-3.07-.99-4.12-2.33-.61-.79-1.06-1.72-1.37-2.71-.54.27-1.13.48-1.78.61-.21.04-.42.07-.63.09Z"/>
        <path class="st2" d="M347.13,164.35l.8-6.79s.53,5.73,4,5.06c3.46-.67,4.66-5.86,4.66-5.86,0,0-1.33,9.72,3.46,10.26,1.91.21,4.66-2.4,4.66-2.4,1.37,3.4,2.78,7.7,3.73,12.79.99,5.28,1.21,9.96,1.13,13.72-7.48-8.92-14.96-17.85-22.44-26.77Z"/>
        <path class="st2" d="M369.58,192.23c-.32,0-.64-.14-.85-.4l-22.44-26.77c-.2-.23-.29-.54-.25-.84l.8-6.79c.07-.56.54-.98,1.1-.98h.01c.57,0,1.04.44,1.09,1,.07.75.52,3.06,1.58,3.85.32.24.66.31,1.11.23,2.25-.43,3.5-3.77,3.79-5.02.13-.58.69-.94,1.28-.84.58.11.98.65.9,1.24-.22,1.62-.46,6.24,1.06,8.18.39.5.84.76,1.43.82.96.11,2.79-1.16,3.78-2.1.27-.25.64-.36,1-.28.36.08.66.33.79.67,1.69,4.19,2.96,8.56,3.79,13,.86,4.59,1.24,9.28,1.15,13.95,0,.46-.3.87-.74,1.02-.12.04-.25.06-.37.06ZM348.29,164.01l20.17,24.06c-.09-3.51-.46-7.01-1.1-10.46-.71-3.79-1.75-7.53-3.11-11.15-1.13.84-2.81,1.83-4.31,1.66-1.19-.13-2.17-.69-2.93-1.67-.98-1.26-1.43-3.06-1.6-4.79-.81.97-1.88,1.78-3.26,2.04-1.05.2-2.04-.02-2.86-.63-.3-.22-.56-.49-.79-.78l-.2,1.71Z"/>
      </g>
      <g>
        <path class="st10" d="M356.66,203.28c-.58,0-.97-.15-1.3-.49l-.57-.58.19-.88c.1-.38.3-.66.51-.9-.62-.2-1.07.04-1.67.43-.39.25-1.2.77-2.06.24-.39-.24-.84-.75-.72-1.79.04-.34.1-.73.16-1.12.02-.1.03-.21.05-.33-.38.27-.83.41-1.39.26-.31-.09-1.05-.4-1.21-1.51-.25-1.72.8-4.41,1.01-4.93l1.21-2.98,1.4,2.89s.34.65,1.29,1.94c1.21,1.64,3.28,3.88,4.52,4.62.65.39,1.83.72,2.61.95,1.07.3,2.17.61,2.09,1.85-.01.2-.14,1.21-1.42,1.4-.25.04-.83.18-1.39.32-1.58.38-2.61.62-3.33.62Z"/>
        <path class="st2" d="M351,192.22s-1.12,2.76-.92,4.19,1.74-2.15,2.43-1.3.11,2.93-.05,4.37,1.23-1.3,3.66-.33.39,1.99.24,2.56,3.75-.6,4.81-.77-2.22-.61-3.81-1.56-3.83-3.49-4.93-4.99-1.43-2.16-1.43-2.16Z"/>
        <path class="st2" d="M356.68,202.24c-.29,0-.47-.06-.59-.18l-.16-.16.04-.3c.06-.24.25-.44.46-.67.22-.24.52-.56.47-.77-.02-.09-.16-.34-.93-.65-1.22-.48-2.12.1-2.72.48-.35.22-.65.42-.95.23-.3-.19-.26-.59-.24-.79.04-.33.09-.7.16-1.07.18-1.11.4-2.49-.02-3-.12.04-.56.58-.79.87-.48.59-.82,1.01-1.27.89-.25-.07-.4-.29-.45-.66-.22-1.51.89-4.28.94-4.39l.33-.81.39.79s.33.66,1.39,2.1c1.02,1.39,3.23,3.94,4.82,4.89.77.46,1.98.8,2.86,1.05,1.05.3,1.37.39,1.34.79-.02.36-.41.42-.54.44-.3.05-.87.19-1.48.33-1.63.4-2.53.59-3.06.59ZM357.66,199.97s0,0,0,0c.14.6-.3,1.09-.63,1.46.67-.09,1.83-.37,2.53-.54.15-.04.3-.07.44-.11-.72-.21-1.61-.47-2.34-.81ZM353.21,196c.07.74-.07,1.62-.21,2.48-.04.28-.09.56-.12.82.57-.37,1.55-.97,2.84-.69-.87-.78-1.76-1.74-2.5-2.61ZM351.08,193.13c-.31.9-.67,2.19-.63,3.03.12-.13.25-.3.36-.43.43-.53.84-1.03,1.29-1.13-.47-.63-.8-1.12-1.02-1.48Z"/>
      </g>
      <g>
        <path class="st5" d="M363.81,200.31c-3.06,0-5.44-.59-7.09-1.75-6.24-4.38-8.79-14.45-8.55-22.48.07-2.32.53-7.91,3.28-9.61,1.18-.73,2.39-1.1,3.58-1.1,3.9,0,7.54,3.8,11.45,11.96,4.77,9.94,2.58,21.27,2.48,21.74l-.15.73-.73.14c-.08.01-1.94.36-4.27.36Z"/>
        <path class="st2" d="M355.03,166.48c3.45,0,6.83,3.78,10.45,11.33,4.66,9.72,2.4,21.05,2.4,21.05,0,0-1.82.34-4.07.34s-4.71-.31-6.45-1.54c-9.33-6.55-9.86-27.44-5.33-30.24,1.01-.62,2.01-.94,3-.94M355.03,164.26h0c-1.4,0-2.81.43-4.17,1.27-3.1,1.91-3.71,7.41-3.81,10.52-.25,8.33,2.45,18.8,9.03,23.42,1.84,1.29,4.44,1.95,7.73,1.95,2.43,0,4.4-.37,4.48-.38l1.47-.28.29-1.47c.1-.49,2.35-12.17-2.57-22.44-4.12-8.59-8.07-12.59-12.45-12.59h0Z"/>
      </g>
      <g class="st7">
        <g>
          <path class="st3" d="M368.43,197.88c-8.29,0-15.04-6.75-15.04-15.04s6.75-15.04,15.04-15.04,15.04,6.75,15.04,15.04-6.75,15.04-15.04,15.04Z"/>
          <path class="st2" d="M368.43,168.91c7.69,0,13.93,6.24,13.93,13.93s-6.24,13.93-13.93,13.93-13.93-6.24-13.93-13.93,6.24-13.93,13.93-13.93M368.43,166.69c-8.9,0-16.15,7.24-16.15,16.15s7.24,16.15,16.15,16.15,16.15-7.24,16.15-16.15-7.24-16.15-16.15-16.15h0Z"/>
          <path class="st4" d="M368.43,171.13c6.46,0,11.71,5.25,11.71,11.71s-5.25,11.71-11.71,11.71-11.71-5.25-11.71-11.71,5.25-11.71,11.71-11.71M368.43,168.91c-7.69,0-13.93,6.24-13.93,13.93s6.24,13.93,13.93,13.93,13.93-6.24,13.93-13.93-6.24-13.93-13.93-13.93h0Z"/>
        </g>
      </g>
    </g>
    <g>
      <path class="st4" d="M360.09,114c-1.57.39-6.58,1.43-11.59-1.2-4.96-2.6-9.89-8.78-8.29-15.28,1.84-7.46,10.81-9.41,11.19-9.49,6.2-1.25,14.18,1.05,15.68,5.79,1.94,6.13-7.34,15.02-15.09,15.28-2.21.08-5.47-.51-5.59-1.5-.16-1.34,5.37-3.77,6.39-2.6,1.14,1.32-3.51,7.05-6.19,9.89-3.78,3.98-6.92,7.3-10.29,6.49-2.96-.71-5.61-4.48-4.9-7.59.43-1.88,2.11-3.6,2.9-3.3,1.5.57-2.32,7.69.7,14.89.42.99,2.23,5.32,6.19,6.79,5.67,2.12,12.19-3.98,15.68-7.19,3.38-3.1,9.39-9.68,12.69-21.28"/>
      <path class="st2" d="M343.66,133.73c-.95,0-1.9-.16-2.84-.51-2.01-.75-4.83-2.64-6.83-7.4-.74-1.77-1.1-3.54-1.23-5.22-1.9-1.84-2.99-4.62-2.43-7.05.37-1.62,1.53-3.26,2.74-3.91.72-.38,1.29-.31,1.63-.17,1.42.54,1.14,2.14.77,4.35-.26,1.54-.6,3.51-.55,5.68.52.4,1.09.68,1.64.81,2.75.66,5.75-2.51,9.23-6.18.33-.35.66-.71.97-1.06-5.03-3.21-9.2-9.5-7.64-15.83,2.02-8.21,11.64-10.23,12.05-10.31,6.6-1.33,15.26,1.19,16.96,6.55.78,2.47.07,5.46-2,8.4-3.34,4.73-9.14,8.16-14.1,8.33,0,0-.04,0-.1,0-.52.74-1.08,1.48-1.66,2.19,3.84,1.54,7.55,1.02,9.54.52.6-.15,1.2.21,1.34.81.15.59-.21,1.2-.81,1.34-2.37.59-6.93,1.22-11.58-.91-.51.57-.98,1.08-1.37,1.49-3.95,4.17-7.36,7.76-11.35,6.81-.29-.07-.57-.16-.85-.27.17.91.44,1.83.83,2.76,1.69,4.03,3.96,5.59,5.56,6.18,4.95,1.84,11.09-3.8,14.39-6.83l.15-.14c5.73-5.26,10.01-12.44,12.37-20.77.17-.59.78-.93,1.37-.76.59.17.93.78.76,1.37-2.48,8.72-6.97,16.25-13,21.79l-.15.14c-3.1,2.85-8.46,7.78-13.82,7.78ZM333.5,112.14c-.4.46-.83,1.14-1,1.91-.21.89-.06,1.85.32,2.74.12-1.27.31-2.41.47-3.34.07-.42.15-.9.21-1.31ZM354.89,88.8c-1.12,0-2.23.1-3.27.31-.09.02-8.64,1.81-10.33,8.67-1.34,5.43,2.47,10.89,6.95,13.6.38-.46.73-.9,1.06-1.33-1.78-.25-3.81-.85-3.99-2.3-.19-1.55,1.93-2.74,3.21-3.3,1.14-.51,3.93-1.54,5.13-.15.69.79.44,2.09-.27,3.57,3.94-.68,8.36-3.55,10.96-7.24,1.67-2.36,2.27-4.65,1.7-6.45-1.08-3.42-6.25-5.35-11.14-5.35ZM347.76,107.4c.6.24,1.75.49,2.99.57.62-.97,1.01-1.73,1.1-2.18-.95-.05-3.22.87-4.08,1.61Z"/>
    </g>
    <g>
      <g>
        <path class="st5" d="M467.88,203.18c14.13-5.73,36.2-5.25,30.44,15.14s-37.25,21.53-45.51,4.75"/>
        <path class="st2" d="M474.28,235.96c-9.91,0-18.72-4.77-22.47-12.39l1.99-.98c3.7,7.52,12.99,11.96,23.11,11.03,7.9-.72,17.39-5.2,20.33-15.6,1.72-6.08.98-10.61-2.21-13.46-5.66-5.06-17.74-4.01-26.75-.36l-.83-2.05c9.65-3.92,22.73-4.91,29.06.76,2.66,2.38,5.31,7.04,2.86,15.71-2.72,9.61-11.25,16.2-22.27,17.2-.95.09-1.9.13-2.83.13Z"/>
      </g>
      <g>
        <path class="st5" d="M466.08,212.97s21.82-10.36,21.45,1.14c-.4,12.31-16.78,10.98-16.78,10.98"/>
        <path class="st2" d="M472.16,226.25c-.86,0-1.42-.04-1.51-.05-.61-.05-1.06-.58-1.02-1.19.05-.61.59-1.08,1.19-1.02.08,0,8.27.61,12.73-3.38,1.81-1.62,2.77-3.82,2.86-6.54.05-1.67-.42-2.81-1.43-3.48-3.9-2.56-14.62,1.57-18.43,3.37-.55.26-1.21.03-1.48-.53-.26-.55-.03-1.21.53-1.48,1.51-.72,14.96-6.92,20.59-3.23,1.7,1.11,2.52,2.93,2.44,5.41-.11,3.35-1.32,6.08-3.6,8.12-3.96,3.53-10.06,3.98-12.87,3.98Z"/>
      </g>
    </g>
    <path class="st2" d="M377.37,171.32c-.37,0-.73-.18-.94-.52-11.7-18.72-24.83-27.28-24.97-27.36-.52-.33-.67-1.02-.34-1.53.33-.51,1.02-.67,1.53-.34.55.35,13.67,8.88,25.65,28.05.32.52.17,1.2-.35,1.53-.18.11-.39.17-.59.17Z"/>
    <path class="st2" d="M409.79,177.09c-.37,0-.73-.18-.94-.52-.33-.52-.17-1.2.35-1.53.19-.12,19.37-12.03,42.88-14.49.61-.06,1.15.38,1.22.99.06.61-.38,1.15-.99,1.22-23,2.41-41.75,14.04-41.93,14.16-.18.12-.39.17-.59.17Z"/>
    <g>
      <g>
        <path class="st4" d="M481.1,154.87s1.18,29.34-5.86,47.23c-13.4,34.04-42.53,25.99-42.53,25.99,0,0,17.78-1.6,14.49-20.07-5.28-29.61-25.08-57.45-27.17-56.8-2.1.65-3.4,31.31-6.79,31.62-3.4.3-6.19-11.19-8.59-12.19-2.4-1-2.2,6.39-5,6.19-2.8-.2-4.9-14.69-8.39-15.18-3.5-.5-6.29,18.48-7.39,18.48s-5.69-2-11.59-19.48c-5.89-17.48,2.2-41.06,2.2-41.06,0,0-20.07,30.84-25.05,54.38-4.98,23.54,4.61,36.57,4.61,36.57,0,0-14.97-7.2-17.85-33.54-2.93-26.84,11.83-114.3,103.48-101.54,56.19,7.82,79.71,43.93,75.03,82.17-1.59,12.97-7.25,38.88-38.82,45.27"/>
        <path class="st2" d="M440.06,229.97c-4.52,0-7.54-.79-7.64-.82-.52-.14-.86-.63-.81-1.17.05-.53.47-.96,1-1.01.07,0,7.23-.73,11.21-5.95,2.46-3.23,3.23-7.54,2.29-12.82-4.79-26.88-21.52-52.05-25.67-55.56-.6,1.89-1.28,7.26-1.84,11.69-1.88,14.75-2.85,19.38-5.26,19.6-2.72.26-4.51-3.56-6.41-7.58-.81-1.71-2.01-4.28-2.66-4.67-.29.32-.67,1.4-.9,2.06-.68,1.94-1.52,4.35-3.79,4.19-1.96-.14-3.01-2.87-4.71-7.67-.91-2.57-2.59-7.36-3.76-7.52-1.42.43-3.58,8.98-4.39,12.2-1.32,5.21-1.59,6.3-2.84,6.3-1.36,0-6.31-1.46-12.64-20.24-3.92-11.63-1.86-25.65.09-34.14-6.12,10.34-17.31,30.79-20.81,47.34-4.81,22.72,4.32,35.55,4.42,35.68.3.41.28.97-.04,1.37-.33.39-.88.51-1.33.29-.63-.31-15.56-7.77-18.47-34.42-2.06-18.83,4.04-57.8,29.14-82.17,18.6-18.05,44.03-24.98,75.59-20.59,51.48,7.17,81.31,39.9,75.98,83.41-3.18,25.98-16.54,41.53-39.7,46.22-.15.03-.29.03-.43,0-9.45,22.37-25.95,25.97-35.61,25.97ZM438.22,227.79c8.77.56,26.38-1.69,35.99-26.1,6.87-17.46,5.79-46.49,5.78-46.78-.02-.61.45-1.13,1.06-1.15.61.01,1.13.45,1.15,1.06.05,1.19,1.08,28.86-5.6,46.8,21.53-4.71,33.97-19.55,36.97-44.12,5.16-42.19-23.92-73.96-74.08-80.94-30.85-4.29-55.66,2.43-73.74,19.98-24.54,23.82-30.49,61.92-28.48,80.34,1.87,17.11,8.95,25.95,13.44,29.92-2.56-5.74-5.79-16.96-2.38-33.06,4.97-23.47,25.01-54.45,25.21-54.76.31-.47.91-.64,1.42-.39.5.25.74.83.56,1.36-.08.23-7.9,23.43-2.2,40.35,4.87,14.45,8.7,17.77,10.03,18.51.33-.95.8-2.83,1.2-4.41,2.18-8.65,3.83-14.29,6.86-13.85,2.5.36,3.91,4.35,5.54,8.98.77,2.19,2.07,5.86,2.84,6.21,0,0,0,0,.01,0,.5,0,1.11-1.7,1.47-2.73.53-1.5,1.03-2.91,2.15-3.41.36-.16.94-.29,1.65,0,1.34.56,2.34,2.57,3.86,5.79,1.02,2.17,2.88,6.13,4.08,6.31,1.32-1.4,2.61-11.55,3.39-17.66,1.38-10.87,1.85-13.45,3.3-13.91.43-.14.9-.05,1.41.26,3.94,2.39,22.08,28.78,27.19,57.41,1.06,5.92.14,10.83-2.72,14.57-2.11,2.76-4.91,4.41-7.35,5.4Z"/>
      </g>
      <g>
        <path class="st4" d="M485.56,179.96s10.19,4.26,22.26-7.14"/>
        <path class="st2" d="M490.54,181.87c-3.21,0-5.23-.81-5.41-.89-.56-.24-.83-.89-.59-1.45.24-.56.88-.83,1.45-.6.4.16,9.73,3.79,21.08-6.92.45-.42,1.15-.4,1.57.04.42.45.4,1.15-.05,1.57-7.16,6.76-13.69,8.24-18.04,8.24Z"/>
      </g>
      <g>
        <path class="st4" d="M486.46,126.39s14.82,6.39,21.36,23.98"/>
        <path class="st2" d="M507.82,151.47c-.45,0-.87-.28-1.04-.72-6.28-16.9-20.61-23.28-20.76-23.34-.56-.24-.82-.9-.58-1.46s.89-.82,1.46-.58c.62.27,15.33,6.79,21.96,24.61.21.57-.08,1.21-.65,1.43-.13.05-.26.07-.39.07Z"/>
      </g>
    </g>
    <path class="st2" d="M446.36,219.98c-.13,0-.27-.03-.4-.08-.57-.22-.85-.87-.63-1.44.08-.2,7.6-20.11,4.22-68.33-.04-.61.42-1.14,1.03-1.18.61-.05,1.14.42,1.18,1.03,3.42,48.82-4.05,68.48-4.37,69.29-.17.44-.59.7-1.03.7Z"/>
    <g>
      <g>
        <path class="st4" d="M515.91,176.09s-26.99-7.06-17.44-26.16c9.55-19.1,26.16-18.27,30.73-8.3s9.97,29.48-4.15,27.82c-14.12-1.66-29.07-23.67-12.46-22.42,16.61,1.25,28.24,24.08,3.32,29.07Z"/>
        <path class="st2" d="M515.91,177.43c-.11,0-.23-.01-.34-.04-.6-.16-14.78-3.96-19.2-13.7-1.98-4.37-1.68-9.19.9-14.35,5.01-10.02,12.74-15.97,20.72-15.97.09,0,.18,0,.27,0,5.44.09,9.98,2.97,12.15,7.71.89,1.95,8.56,19.23,3.14,26.68-1.07,1.47-2.54,2.43-4.38,2.86-2.13,2.75-6.02,5.39-13,6.79-.09.02-.17.03-.26.03ZM518,136.04c-6.94,0-13.78,5.4-18.33,14.5-2.2,4.4-2.49,8.45-.86,12.04,3.56,7.87,15.17,11.56,17.15,12.14,3.91-.82,7.03-2.16,9.22-3.91-.1,0-.2-.02-.3-.03-10.69-1.26-21.6-13.02-20.92-20.04.16-1.7,1.35-5.58,8.72-5.04,9.74.73,18.41,8.52,18.93,17.02.06.92.02,2.2-.34,3.63.04-.05.08-.1.12-.16,3.2-4.4.47-15.52-3.41-23.99-1.73-3.78-5.38-6.07-9.76-6.15-.08,0-.15,0-.23,0ZM511.24,148.31c-2.89,0-4.44.9-4.61,2.68-.49,5.14,9.17,16.03,18.57,17.13.88.1,1.68.12,2.4.05,1-1.57,1.46-3.35,1.35-5.3-.39-6.31-7.24-13.82-16.46-14.51-.44-.03-.86-.05-1.25-.05Z"/>
      </g>
      <g>
        <path class="st4" d="M501.72,168.82s1.53,10.79,13.92,12.52c12.44,1.74,22.18-10.92,22.18-10.92,0,0-3.84,10.66-15.18,15.98-2.58,1.21,8.82,3.86,8.82,3.86,0,0-34.39,7.33-29.73-21.45Z"/>
        <path class="st2" d="M522.52,192.45c-5.73,0-12.88-1.07-17.61-5.58-4.29-4.09-5.81-10.23-4.51-18.27.1-.65.66-1.12,1.32-1.12h.01c.66,0,1.21.49,1.31,1.15h0c.06.4,1.58,9.83,12.78,11.39,11.52,1.6,20.84-10.29,20.93-10.41.4-.52,1.13-.67,1.7-.36.58.32.84,1.01.61,1.62-.16.44-3.83,10.33-14.41,16,1.66.66,4.55,1.5,7.09,2.09.61.14,1.04.69,1.03,1.31,0,.63-.45,1.16-1.06,1.29-.34.07-4.24.88-9.21.88ZM502.63,174.67c.15,4.36,1.53,7.8,4.12,10.26,4.64,4.42,12.32,5.03,17.82,4.77-3.5-1.28-3.59-2.17-3.65-2.73-.03-.28-.03-1.24,1.14-1.79,3.96-1.86,6.97-4.41,9.19-6.9-4.11,2.83-9.6,5.23-15.8,4.37-6.98-.97-10.78-4.68-12.82-7.99Z"/>
      </g>
    </g>
  </g>
  <g>
    <path class="st5" d="M374.81,267.83s22.91,14.25,23.58,5.19c.67-9.06-17.72-12.92-20.73-10.52-3.02,2.4,21,3.2,23.4-1.07s-14.52-8.26-19.05-8.92c-4.53-.67-8.26,2.13-4.37,4.12,3.89,1.99,24.77-18.69,18.22-24.73-6.55-6.04-28.84,11.93-22.11,13.65,3.91,1,1.07-12.4.44-15.72-1.11-5.89-5.9-17.54-12.7-16.58-6.79.96,5.19,23.82,5.99,25.12,0,0,2.66,4.1-.53,6.79-3.2,2.7-11.19,8.42-15.85,22.01-3.85,11.22-1.5,19.75,5.59,20.11,3.73.19,15.52-4.93,19.85-17.85"/>
    <path class="st2" d="M356.89,288.39c-.09,0-.17,0-.25,0-2.74-.14-4.98-1.38-6.47-3.58-2.65-3.92-2.7-10.48-.12-18,4.4-12.81,11.8-18.89,15.36-21.81.3-.25.58-.48.83-.69,2.4-2.02.4-5.21.32-5.34-.12-.2-10.49-19.16-7.77-24.95.5-1.06,1.38-1.71,2.55-1.87,7.75-1.1,12.82,11.54,13.94,17.48l.14.75c.49,2.54.86,4.72,1.1,6.59,2.25-1.91,4.98-3.73,7.62-5.06,5.57-2.81,10-3.09,12.47-.81,2.74,2.53,1.96,7.22-2.22,13.21-1.87,2.68-4.51,5.67-7.22,8.17,5.37,1.28,13.34,3.67,14.91,6.87.43.89.41,1.8-.07,2.65-.9,1.59-3.73,2.54-7.11,3.05,3.19,2.24,4.81,5.05,4.59,8.07-.15,2.06-1.25,3.03-2.14,3.48-4.37,2.22-14.74-3-20.04-6-4.67,12.73-16.17,17.8-20.42,17.8ZM362.26,214.3c-.2,0-.41.01-.62.04-.43.06-.67.24-.85.62-1.84,3.91,5.88,19.96,7.64,22.82,1.09,1.68,2.36,5.59-.76,8.22-.26.22-.54.45-.85.71-3.66,3-10.47,8.6-14.66,20.82-2.32,6.75-2.37,12.75-.14,16.04,1.1,1.63,2.7,2.5,4.75,2.61,3.45.15,14.39-4.7,18.61-16.71-.54-.32-.93-.56-1.13-.69-.52-.32-.68-1.01-.36-1.53.32-.52,1.01-.68,1.53-.36,6.29,3.91,17.53,9.46,20.95,7.72.39-.2.85-.57.93-1.67.25-3.43-2.83-5.81-5.45-7.19-.21-.11-.42-.22-.64-.32-3.86.26-7.79.12-10.12-.16-3.58-.42-4.48-1.1-4.73-1.97-.08-.29-.18-1.02.63-1.66,2.17-1.72,9.24-.91,14.67,1.55,1.58-.13,3.11-.32,4.5-.61,3.16-.66,3.83-1.45,3.96-1.68.12-.21.12-.36,0-.59-1.09-2.23-9.03-4.8-14.95-6.08-3.25,2.64-6.34,4.26-8.01,3.4-2.53-1.29-2.33-2.91-2.12-3.55.63-1.99,3.77-3.15,7.16-2.66.04,0,.94.16,2.35.46,3.03-2.59,6.48-6.26,8.94-10.19,1.56-2.48,3.84-6.94,1.64-8.97-1.72-1.59-5.35-1.16-9.97,1.16-3.29,1.66-6.24,3.85-8.34,5.84.24,3.46-.13,5.45-1.13,6.39-.58.55-1.37.74-2.2.52-1.2-.31-1.95-1.1-2.07-2.17-.17-1.53,1.09-3.56,3.1-5.63-.2-1.94-.59-4.55-1.26-8.05l-.15-.76c-1.03-5.49-5.35-15.73-10.83-15.73ZM380.25,262.93c1.14.18,2.68.32,4.41.38-1.71-.32-3.26-.44-4.41-.38ZM380.66,253.52c-1.95,0-3.37.72-3.53,1.22-.03.1.18.47,1.02.9.59.23,2.14-.53,4.11-1.97-.14-.02-.28-.04-.41-.06-.41-.06-.81-.09-1.19-.09ZM374.69,242.01c-.74.95-1.13,1.74-1.08,2.21,0,.04.02.15.41.26.08.02.12.02.14.02.17-.11.51-.59.53-2.49Z"/>
  </g>
  <path class="st5" d="M267.88,363.75l60.74-10.92,114.86,4.7,19,27.4s-125.01-4.4-126.64-4.8-67.97-16.38-67.97-16.38Z"/>
  <g>
    <path class="st3" d="M207,416.86c-.54,0-1.1-.02-1.68-.05-4.4-.24-9.73-.35-16.77-.35-5.8,0-11.94.07-18.44.15-6.69.08-13.6.17-20.31.17h-.14c-13.51,0-48.88-.03-50.01-8.05-2.59-18.51,2.6-20.42,19.83-26.74,4.97-1.82,11.15-4.09,18.27-7.22,15.19-6.66,44.96-26.08,79.7-52.01l34.34,13.59c-8.87,11.43-17.06,23.32-22.05,32.01-5.5,9.58-6.75,19.38-7.86,28.02-1.57,12.34-2.61,20.49-14.9,20.49Z"/>
    <path class="st4" d="M217.63,324.02l32.4,12.82c-8.55,11.11-16.38,22.53-21.23,30.97-5.61,9.77-6.93,20.12-7.99,28.43-1.68,13.18-2.97,19.52-13.8,19.52-.52,0-1.06-.02-1.62-.05-4.41-.24-9.76-.35-16.83-.35-5.81,0-11.95.07-18.45.15-6.68.08-13.59.16-20.31.16-9.97,0-24.42-.16-34.79-1.59-12.75-1.75-14.13-4.66-14.25-5.51-1.25-8.92-.61-13.87,2.2-17.08,2.93-3.34,8.49-5.38,16.91-8.47,4.98-1.83,11.18-4.1,18.34-7.24,15.19-6.66,44.83-25.98,79.43-51.77M217.29,321.5c-29.34,21.92-62.4,44.54-79.98,52.25-31.46,13.79-42.26,10.08-38.75,35.13,1.08,7.72,24.89,9,51.24,9,13.12,0,26.88-.32,38.76-.32,6.19,0,11.88.09,16.71.35.6.03,1.18.05,1.74.05,22.3,0,10.41-25.89,23.72-49.06,5.14-8.94,13.66-21.27,22.87-33.05l-36.3-14.36h0Z"/>
    <path class="st2" d="M217.29,321.5l36.3,14.36c-9.21,11.78-17.73,24.1-22.87,33.05-13.31,23.17-1.42,49.06-23.72,49.06-.56,0-1.14-.02-1.74-.05-4.82-.26-10.51-.35-16.71-.35-11.88,0-25.64.32-38.76.32-26.35,0-50.16-1.28-51.24-9-3.51-25.05,7.29-21.34,38.75-35.13,17.59-7.71,50.64-30.33,79.98-52.25M217.29,319.28c-.47,0-.94.15-1.33.44-34.76,25.96-64.5,45.4-79.55,52-7.04,3.08-13.16,5.33-18.09,7.14-17.64,6.48-24.94,9.16-21.97,30.33,1.12,7.96,15.6,10.91,53.44,10.91,6.74,0,13.66-.08,20.36-.17,6.49-.08,12.62-.15,18.4-.15,6.98,0,12.25.11,16.59.35.64.03,1.26.05,1.86.05,15.21,0,16.66-11.36,18.2-23.39,1.06-8.33,2.27-17.78,7.44-26.78,5.09-8.86,13.57-21.11,22.69-32.78.43-.55.58-1.27.39-1.95-.18-.67-.67-1.22-1.32-1.48l-36.3-14.36c-.26-.1-.54-.16-.82-.16h0Z"/>
  </g>
  <g>
    <path class="st5" d="M185.5,422.42c-9.82,0-17.8-7.99-17.8-17.8s7.99-17.8,17.8-17.8c3.59,0,7.01,1.06,9.97,3.07,1.45-1.67,3.45-2.74,5.64-3,.55-13.68,11.85-24.64,25.66-24.64s25.68,11.52,25.68,25.68c0,3.47-.69,6.84-2.06,10.03,5.47,1.34,9.44,6.28,9.44,12.05,0,6.85-5.57,12.42-12.41,12.42h-61.91Z"/>
    <path class="st2" d="M226.76,363.35c13.57,0,24.57,11,24.57,24.57,0,3.91-.94,7.59-2.56,10.87,5.6.68,9.94,5.43,9.94,11.21,0,6.24-5.06,11.31-11.31,11.31h-61.91c-9.22,0-16.69-7.47-16.69-16.69s7.47-16.69,16.69-16.69c3.84,0,7.37,1.31,10.19,3.49,1.4-2.1,3.78-3.49,6.5-3.49,0-13.57,11-24.57,24.57-24.57M226.76,361.13c-14.11,0-25.7,10.96-26.72,24.81-1.78.39-3.42,1.26-4.75,2.52-2.95-1.81-6.3-2.75-9.8-2.75-10.43,0-18.91,8.48-18.91,18.91s8.48,18.91,18.91,18.91h61.91c7.46,0,13.52-6.07,13.52-13.52,0-5.84-3.74-10.91-9.07-12.76,1.12-2.99,1.69-6.11,1.69-9.32,0-14.77-12.02-26.79-26.79-26.79h0Z"/>
    <path class="st4" d="M226.76,365.57c12.33,0,22.36,10.03,22.36,22.36,0,3.43-.78,6.76-2.33,9.88-.32.65-.31,1.41.04,2.04.34.63.97,1.06,1.69,1.15,4.55.55,7.98,4.42,7.98,9.01,0,5.01-4.08,9.09-9.09,9.09h-61.91c-7.98,0-14.47-6.49-14.47-14.47s6.49-14.47,14.47-14.47c3.22,0,6.27,1.05,8.84,3.03.39.3.87.46,1.36.46.12,0,.24,0,.36-.03.61-.1,1.15-.45,1.49-.96,1.04-1.57,2.78-2.5,4.65-2.5,1.23,0,2.22-.99,2.22-2.22,0-12.33,10.03-22.36,22.36-22.36M226.76,363.35c-13.57,0-24.57,11-24.57,24.57-2.72,0-5.1,1.39-6.5,3.49-2.82-2.18-6.35-3.49-10.19-3.49-9.22,0-16.69,7.47-16.69,16.69s7.47,16.69,16.69,16.69h61.91c6.24,0,11.31-5.06,11.31-11.31,0-5.78-4.34-10.54-9.94-11.21,1.62-3.28,2.56-6.96,2.56-10.87,0-13.57-11-24.57-24.57-24.57h0Z"/>
  </g>
  <g>
    <path class="st5" d="M298.25,367.35c34.37-4.8,105.76,9.56,137.4,9.56,19.6,0,9.04,6.08,40.39.8,20.93-3.53,26.79-7.59,48.37,35.56,21.58,43.16-27.91,11.99-82.72.8-54.81-11.19-221.76-.37-197.28-44.33,24.47-43.96,197.9-14.54,197.9-14.54"/>
    <path class="st2" d="M521.55,436.54c-7.67,0-19.69-3.87-34.58-8.65-13.74-4.42-29.32-9.42-45.51-12.73-16.4-3.35-43.13-4.73-71.43-6.19-54.9-2.84-117.12-6.05-127.58-24.95-2.4-4.34-2.07-9.33.98-14.82,10.37-18.62,47.08-26.81,109.14-24.32,45.95,1.84,89.48,9.16,89.91,9.23.6.1,1.01.68.91,1.28-.1.6-.68,1.01-1.28.91-1.73-.29-172.93-28.79-196.74,13.98-2.7,4.84-3.02,8.99-.98,12.67,9.86,17.82,71.43,21,125.76,23.8,28.39,1.47,55.2,2.85,71.76,6.23,16.31,3.33,31.95,8.36,45.75,12.79,19.15,6.16,35.68,11.47,39.74,6.74,2.26-2.63.92-8.94-3.98-18.75-19.9-39.81-25.86-38.75-43.54-35.6-1.17.21-2.38.42-3.65.64-19.47,3.28-23.01,2.23-27.5.89-2.64-.79-5.64-1.68-13.07-1.68-12.56,0-31.45-2.26-51.46-4.66-30.53-3.66-65.13-7.8-85.79-4.92-.61.08-1.17-.34-1.25-.95-.08-.61.34-1.17.95-1.25,20.94-2.92,55.7,1.24,86.36,4.91,19.94,2.39,38.77,4.64,51.19,4.64,7.75,0,10.91.94,13.7,1.77,4.21,1.25,7.54,2.24,26.5-.95,1.26-.21,2.47-.43,3.63-.63,18.39-3.27,25.27-4.49,45.92,36.79,5.49,10.98,6.66,17.71,3.68,21.19-1.55,1.8-4.1,2.58-7.53,2.58Z"/>
  </g>
  <g>
    <path class="st3" d="M389.71,380.65c-.5-.01-.92-.37-1.02-.86l-6.65-34.02c-.06-.32.03-.65.24-.9.2-.23.5-.37.8-.37.02,0,30.81,1.51,30.81,1.51l46.88,5.07c.45.05.82.38.92.82.07.29,1.63,7.26.64,13.45-.98,6.12-5.32,15.78-5.5,16.19-.17.38-.55.63-.97.63,0,0-66.16-1.53-66.16-1.53Z"/>
    <path class="st2" d="M383.09,345.57l30.75,1.51,46.82,5.07s1.6,6.99.63,13.05c-.97,6.06-5.42,15.92-5.42,15.92l-66.13-1.53-6.65-34.02M383.09,343.45c-.61,0-1.2.27-1.61.73-.43.49-.6,1.16-.48,1.8l6.65,34.02c.19.98,1.04,1.69,2.04,1.72l66.13,1.53s.03,0,.05,0c.83,0,1.59-.49,1.94-1.25.19-.41,4.58-10.2,5.58-16.46,1.02-6.39-.58-13.56-.65-13.86-.2-.88-.94-1.54-1.84-1.64l-46.82-5.07s-.08,0-.12,0l-30.75-1.51s-.07,0-.1,0h0Z"/>
  </g>
  <g>
    <path class="st0" d="M532.16,452.91c-.31,0-.63,0-.95,0-10.91-.2-19.75-6.14-29.98-13-13.66-9.17-30.67-20.58-59.62-23.3-5.21-.49-11.23-1.19-18.21-1.99-12.71-1.47-28.47-3.29-45.03-4.44l-1.93-39.24c25.43,2.35,47.65,3.9,60.09,4.58,9,.49,15.55.72,20.61.72,14.54,0,18.5-1.91,26.41-5.72,2.27-1.1,4.85-2.34,8.13-3.75,4.57-1.98,8.28-2.94,11.33-2.94,10.9,0,15.56,12.19,25.76,38.91,1.79,4.68,3.81,9.99,6.04,15.66l.33.85c6.21,15.79,10.32,26.23,7.35,30.58-1.44,2.12-4.73,3.1-10.33,3.1Z"/>
    <path class="st4" d="M503.01,364.92c10.14,0,14.71,11.97,24.72,38.2,1.79,4.68,3.82,9.99,6.05,15.67l.34.85c5.87,14.91,10.1,25.68,7.47,29.55-1.2,1.76-4.28,2.62-9.42,2.62-.3,0-.61,0-.93,0-10.58-.2-18.88-5.77-29.39-12.82-13.77-9.24-30.9-20.73-60.14-23.48-5.2-.49-11.21-1.18-18.18-1.99-12.47-1.44-27.87-3.22-44.1-4.38l-1.82-36.98c24.92,2.28,46.62,3.8,58.86,4.47,9.02.49,15.59.72,20.67.72,14.79,0,18.83-1.95,26.89-5.83,2.26-1.09,4.83-2.33,8.08-3.73,4.43-1.91,7.99-2.85,10.89-2.85M503.01,362.7c-3.29,0-7.13,1.02-11.77,3.03-14.75,6.38-15.7,9.38-34.09,9.38-5.21,0-11.82-.24-20.55-.72-14.43-.78-37.39-2.47-61.32-4.69l2.04,41.51c25.65,1.74,48.9,5.06,64.19,6.5,50.53,4.75,63.72,35.82,89.69,36.31.33,0,.65,0,.97,0,18.06,0,13.88-10.12,3.68-36.05-14.77-37.54-19.09-55.27-32.83-55.27h0Z"/>
    <path class="st2" d="M503.01,362.7c13.74,0,18.07,17.73,32.83,55.27,10.2,25.94,14.39,36.05-3.68,36.05-.32,0-.64,0-.97,0-25.97-.49-39.16-31.56-89.69-36.31-15.29-1.44-38.54-4.76-64.19-6.5l-2.04-41.51c23.93,2.23,46.89,3.91,61.32,4.69,8.72.47,15.34.72,20.55.72,18.39,0,19.34-3.01,34.09-9.38,4.65-2.01,8.48-3.03,11.77-3.03M503.01,360.48c-3.57,0-7.59,1.02-12.65,3.21-3.34,1.44-5.95,2.7-8.25,3.81-7.68,3.7-11.19,5.39-24.96,5.39-5,0-11.49-.23-20.43-.71-12.61-.69-35.32-2.28-61.23-4.69-.07,0-.14,0-.21,0-.57,0-1.12.22-1.53.62-.46.44-.71,1.07-.68,1.71l2.04,41.51c.06,1.12.94,2.03,2.07,2.1,16.84,1.14,32.93,3,45.86,4.49,6.99.81,13.03,1.51,18.27,2,28.11,2.64,44.73,13.79,58.08,22.75,10.67,7.16,19.89,13.35,31.77,13.57.35,0,.68,0,1.01,0,6.9,0,10.94-1.41,13.08-4.56,3.96-5.81.06-15.71-7.01-33.67l-.34-.85c-2.22-5.65-4.25-10.95-6.03-15.62-10.44-27.33-15.67-41.05-28.87-41.05h0Z"/>
  </g>
  <g>
    <path class="st2" d="M407.07,280.13c-.98,0-1.87-.66-2.14-1.63-.06-.23-1.54-5.67-1.54-12.88,0-5.28,1.26-15,1.32-15.41.14-1.04.99-1.84,2.03-1.92l6.79-.51c.61-.05,1.21.16,1.66.58l3.76,3.44c.4.36.65.86.71,1.4l2.43,22.58c.13,1.18-.7,2.26-1.88,2.43l-12.83,1.9c-.11.02-.22.02-.33.02ZM408.9,252.58c-.37,3.07-1.06,9.35-1.06,13.04,0,4.17.55,7.73.95,9.79l8.68-1.28-2.12-19.62-2.43-2.23-4.02.3Z"/>
    <path class="st3" d="M406.92,250.51s-1.3,9.92-1.3,15.12c0,6.99,1.46,12.29,1.46,12.29l12.83-1.9-2.43-22.58-3.76-3.44-6.79.51Z"/>
    <path class="st4" d="M407.08,278.47c-.25,0-.47-.16-.53-.41-.06-.22-1.48-5.45-1.48-12.44,0-5.17,1.29-15.09,1.3-15.19.03-.26.25-.46.51-.48l6.79-.51c.15,0,.3.04.42.14l3.76,3.44c.1.09.16.22.18.35l2.43,22.58c.03.3-.18.56-.47.61l-12.83,1.9s-.05,0-.08,0ZM407.41,251.03c-.25,1.99-1.24,10.12-1.24,14.6,0,5.65.97,10.22,1.32,11.67l11.8-1.75-2.35-21.84-3.43-3.14-6.1.46Z"/>
  </g>
  <g>
    <path class="st4" d="M421.6,246.74l-15.36,31.57s9.47,40.93,9.6,45.45-2,5.5-4.53,11.79c-2.75,6.84-3,10.02-3,10.02,0,0,5.62,11.46,26.01,15.62,20.74,4.23,30.72-1.07,30.72-1.07,0,0-.06-9.72-.86-15.18-.8-5.47-40.76-98.2-40.76-98.2h-1.83Z"/>
    <path class="st2" d="M449.53,363.91c-4.26,0-9.39-.44-15.41-1.67-20.67-4.22-26.52-15.71-26.76-16.2-.08-.17-.12-.36-.11-.55.01-.14.29-3.42,3.07-10.33.98-2.42,1.9-4.09,2.64-5.43,1.22-2.19,1.89-3.4,1.81-5.93-.1-3.5-6.31-31.13-9.57-45.25-.05-.24-.03-.49.08-.7l15.36-31.57c.18-.37.55-.6.96-.6h1.83c.42,0,.81.25.98.64,1.63,3.79,40.03,92.93,40.83,98.47.8,5.48.87,14.93.87,15.33,0,.4-.22.76-.56.95-.3.16-5.52,2.84-16.02,2.84ZM409.41,345.36c.98,1.68,7.25,11.15,25.13,14.79,17.41,3.55,27.08.28,29.44-.71-.03-2.3-.18-9.85-.84-14.35-.63-4.34-29.11-71.07-40.41-97.29h-.47l-14.9,30.63c1,4.34,9.41,40.89,9.54,45.3.09,3.12-.82,4.76-2.08,7.03-.71,1.29-1.6,2.89-2.53,5.19-2.18,5.41-2.75,8.49-2.89,9.41Z"/>
  </g>
  <g>
    <path class="st5" d="M523.29,423.56c-9.98,0-25.09-4.58-34.8-17.47-.52-.42-3.72-.69-5.84-.87-5.17-.44-10.05-.85-10.68-3.6-.49-2.14,1.83-4.54,7.76-8.03,2.19-1.29,4.64-9.51-19.81-57.86-14.43-28.53-31.96-58.63-36.99-67.18-1.57-2.67-2.13-5.73-1.58-8.62.65-3.36,2.28-4.06,3.54-4.06,2.34,0,5.28,2.59,9.27,8.17,6.67,9.33,17.9,29.2,29.79,50.24,17.16,30.38,36.62,64.82,46.74,75.24,15,15.44,21.71,25.8,19.94,30.81-.42,1.2-1.55,2.71-4.53,3.08-.85.1-1.79.16-2.82.16Z"/>
    <path class="st2" d="M424.89,256.97c1.64,0,4.24,1.94,8.37,7.71,16.28,22.75,59.37,107.83,76.64,125.61,17.27,17.77,25.23,30.89,16.07,32.01-.78.1-1.68.15-2.68.15-8.38,0-23.88-3.7-33.91-17.03-1.99-2.65-28.96.84-9.08-10.87,12.85-7.57-45.74-108.42-56.41-126.56-1.39-2.37-1.96-5.16-1.44-7.85.33-1.7,1.02-3.16,2.45-3.17M424.89,254.76h0c-1.37,0-3.79.65-4.62,4.96-.61,3.16,0,6.49,1.71,9.39,5.03,8.54,22.55,38.62,36.96,67.12,8.11,16.03,13.96,29.03,17.38,38.64,5.67,15.89,2.97,17.69,2.86,17.76-6.5,3.83-8.9,6.5-8.28,9.23.81,3.54,6.08,3.98,11.67,4.45,1.76.15,4.38.37,5.23.68,9.96,13.03,25.32,17.67,35.49,17.67,1.07,0,2.06-.06,2.95-.17,3.54-.44,4.91-2.31,5.44-3.81,1.08-3.06-.32-7.3-4.41-13.35-3.46-5.13-8.77-11.39-15.78-18.6-10.03-10.32-29.44-44.69-46.58-75.02-11.9-21.07-23.14-40.97-29.85-50.34-4.27-5.97-7.41-8.63-10.17-8.63h0Z"/>
  </g>
  <g>
    <path class="st2" d="M417.88,262.11c-1.14,0-1.89-1.15-2.79-2.53-.58-.89-1.35-2.08-2.12-3.28-1.53-2.38-3.06-4.77-3.06-4.77-.59-.92-.42-2.12.39-2.85l9.59-8.59c.9-.81,2.28-.74,3.11.14l3.8,4.1c.65.7.78,1.73.32,2.57-3.09,5.68-6.47,12.08-7,13.37-.13.64-.53,1.22-1.15,1.54-.4.21-.75.3-1.08.3ZM419.99,258.99h0s0,0,0,0ZM419.99,258.99s0,0,0,0c0,0,0,0,0,0ZM419.99,258.99h0s0,0,0,0ZM414.66,250.73c.95,1.49,2.02,3.15,2.93,4.55,1.03-2.01,2.58-4.89,4.87-9.1l-1.23-1.33-6.56,5.88Z"/>
    <path class="st3" d="M421.37,241.75l-9.59,8.59s6.32,9.89,6.16,9.49,7.23-13.99,7.23-13.99l-3.8-4.1Z"/>
    <path class="st4" d="M417.99,260.4c-.12,0-.26-.09-.51-.38l-.05.02s-.03-.07-.03-.12c-.72-.89-2.24-3.28-6.08-9.28-.15-.23-.1-.53.1-.71l9.59-8.59c.23-.2.57-.19.78.04l3.8,4.1c.16.17.19.43.08.64-2.64,4.84-6.87,12.78-7.16,13.74,0,.2-.11.39-.3.48-.07.04-.13.07-.21.07ZM412.5,250.44c1.81,2.83,4.23,6.6,5.31,8.24.69-1.53,2.42-4.92,6.68-12.75l-3.16-3.4-8.83,7.91Z"/>
  </g>
  <g>
    <path class="st2" d="M406.76,264.06s-.07,0-.11,0c-1.07-.05-1.94-.86-2.09-1.91l-1.79-13c-.04-.27-.02-.55.04-.82l1.3-5.39c.22-.91.98-1.58,1.91-1.68.93-.11,1.82.38,2.24,1.21l3.3,6.62c.23.46.29,1,.17,1.5l-2.81,11.78c-.24,1-1.14,1.71-2.16,1.71Z"/>
    <polygon class="st3" points="406.27 243.45 409.57 250.06 406.76 261.84 404.97 248.84 406.27 243.45"/>
    <path class="st4" d="M406.76,262.39s-.02,0-.03,0c-.27-.01-.49-.21-.52-.48l-1.79-13c0-.07,0-.14.01-.21l1.3-5.39c.05-.23.25-.39.48-.42.23-.03.46.09.56.3l3.3,6.62c.06.12.07.25.04.38l-2.81,11.78c-.06.25-.28.43-.54.43ZM405.53,248.87l1.37,9.96,2.07-8.71-2.53-5.07-.92,3.81Z"/>
  </g>
  <g>
    <path class="st4" d="M487.96,383.41c-1.5,0-3.06-.13-4.62-.39-.2-.03-.41-.04-.62-.04-.43,0-.88.05-1.36.1-.51.05-1.03.11-1.56.11-3.39,0-4.83-2.59-4.83-8.67,0-13.42-40.53-86.5-52-105.99-1.57-2.66-2.12-5.71-1.57-8.59.52-2.69,2.15-4.37,4.26-4.37,2.68,0,5.8,2.54,9.54,7.76,11.36,15.87,15.27,22.16,21.2,31.67,2.57,4.13,5.49,8.81,9.55,15.13,5.1,7.95,11.11,16.46,16.93,24.7,15.89,22.52,25.51,36.6,23.24,42.18-.34.84-1.13,1.91-2.96,2.24-.67.12-1.64.56-2.75,1.07-2.7,1.23-6.78,3.09-12.44,3.09Z"/>
    <path class="st2" d="M425.66,256.63c1.92,0,4.75,1.84,8.67,7.32,16.28,22.75,17.33,25.91,30.72,46.76,18.58,28.93,49.16,65.42,37.91,67.5-2.61.48-7.16,4.14-15,4.14-1.38,0-2.86-.11-4.45-.38-.26-.04-.52-.06-.79-.06-.96,0-1.98.21-2.92.21-2.06,0-3.77-1.03-3.77-7.61,0-13.93-41.47-88.39-52.15-106.53-1.39-2.37-1.96-5.16-1.44-7.85.34-1.79,1.36-3.5,3.21-3.5M425.66,254.51h0c-2.65,0-4.68,2-5.3,5.23-.6,3.13,0,6.45,1.7,9.33,14.76,25.07,51.85,93.25,51.85,105.45,0,4.53.67,9.74,5.89,9.74.58,0,1.14-.06,1.67-.12.45-.05.88-.1,1.24-.1.17,0,.32.01.44.03,1.62.27,3.24.41,4.8.41,5.89,0,10.1-1.91,12.88-3.18,1.01-.46,1.96-.89,2.51-.99,2.3-.43,3.31-1.8,3.75-2.89,2.48-6.1-6.78-19.69-23.36-43.19-5.81-8.23-11.81-16.73-16.9-24.66-4.06-6.32-6.97-10.99-9.54-15.12-5.94-9.53-9.86-15.83-21.24-31.73-3.95-5.52-7.35-8.21-10.4-8.21h0Z"/>
  </g>
  <path class="st4" d="M373.15,300.85"/>
  <g>
    <path class="st5" d="M490.32,353.1c-8.1,0-14.69-6.59-14.69-14.69,0-7.24,5.14-13.26,12.15-14.46-.02-.19-.03-.39-.03-.58,0-3.04,1.99-5.64,4.8-6.51-.45-1.75-.67-3.55-.67-5.37,0-11.91,9.69-21.6,21.6-21.6,9.03,0,17.16,5.74,20.26,14.12,1.05-.51,2.2-.78,3.39-.78,3.98,0,7.28,3.01,7.72,6.88,10.68,1.47,18.61,10.5,18.61,21.39,0,11.91-9.69,21.6-21.6,21.6h-51.54Z"/>
    <path class="st2" d="M513.48,291.01c9.3,0,17.14,6.19,19.65,14.68,1.11-.84,2.5-1.34,4-1.34,3.68,0,6.66,2.98,6.66,6.66,0,.03,0,.06,0,.1,10.41.97,18.57,9.73,18.57,20.4,0,11.32-9.17,20.49-20.49,20.49h-51.54c-7.5,0-13.58-6.08-13.58-13.58,0-7.08,5.42-12.89,12.34-13.52-.14-.49-.21-1-.21-1.53,0-2.94,2.23-5.36,5.08-5.66-.62-1.96-.96-4.04-.96-6.21,0-11.32,9.17-20.49,20.49-20.49M513.48,288.79c-12.52,0-22.71,10.19-22.71,22.71,0,1.58.16,3.14.48,4.68-2.65,1.21-4.48,3.83-4.6,6.87-7.05,1.65-12.13,7.91-12.13,15.37,0,8.71,7.09,15.8,15.8,15.8h51.54c12.52,0,22.71-10.19,22.71-22.71,0-11.18-7.94-20.49-18.76-22.36-.86-4-4.43-7.01-8.68-7.01-.95,0-1.88.15-2.77.44-3.53-8.23-11.78-13.78-20.88-13.78h0Z"/>
    <path class="st4" d="M513.48,293.23c8.04,0,15.25,5.38,17.52,13.09.21.7.74,1.25,1.43,1.48.23.08.46.11.7.11.48,0,.94-.15,1.33-.45.78-.59,1.7-.9,2.66-.9,2.44,0,4.42,1.97,4.44,4.4,0,.04,0,.08,0,.11-.02,1.16.86,2.14,2.01,2.24,9.44.88,16.55,8.7,16.55,18.19,0,10.08-8.2,18.27-18.27,18.27h-51.54c-6.26,0-11.36-5.1-11.36-11.36,0-5.91,4.44-10.77,10.32-11.31.66-.06,1.25-.41,1.62-.95.37-.54.49-1.22.31-1.86-.09-.32-.13-.63-.13-.93,0-1.78,1.33-3.27,3.1-3.46.66-.07,1.26-.44,1.62-.99s.46-1.25.26-1.88c-.57-1.79-.86-3.65-.86-5.54,0-10.08,8.2-18.27,18.27-18.27M513.48,291.01c-11.32,0-20.49,9.17-20.49,20.49,0,2.16.34,4.25.96,6.21-2.86.31-5.08,2.73-5.08,5.66,0,.53.08,1.04.21,1.53-6.92.63-12.34,6.44-12.34,13.52,0,7.5,6.08,13.58,13.58,13.58h51.54c11.32,0,20.49-9.17,20.49-20.49,0-10.67-8.15-19.43-18.57-20.4,0-.03,0-.06,0-.1,0-3.68-2.98-6.66-6.66-6.66-1.5,0-2.88.5-4,1.34-2.51-8.49-10.35-14.68-19.65-14.68h0Z"/>
  </g>
  <g class="st8">
    <g>
      <path class="st4" d="M476.83,282.64c-1.9-2.46-4.83-10.02-.01-18.34,7.56-13.05,34.62-29.22,63.75-15.82,13.33,6.13,25.2,21.38,16.53,30.44-9.7,10.14-31.81-.99-35.75-6.38-3.03-4.15-2.4-7.23-.92-7.56,1.55-.34,3.61,2.36,4.41,4.84,1.55,4.78.63,13.11-4.26,15.9-7.63,4.36-17.21-1.84-17.94-6.64-.55-3.64.79-6.32,2.44-6.28,1.96.05,1.04,4.39-.06,7.2-1.53,3.92-7.37,7.59-7.37,7.59,0,0,2.21,3.18,2.47,6.5.54,6.68-3.74,13.1-11.36,14.25-6.86,1.04-12.63-2.13-15.17-4.87-4.05-4.37-5.98-12.59.87-18.25,3.63-3,8.94-2.37,11.98,1.04,1.87,2.1,1.58,4.63.32,7.25"/>
      <path class="st2" d="M486.13,312.39c-6.53,0-12.25-2.96-15.34-6.3-3.21-3.46-4.95-8.23-4.65-12.75.29-4.29,2.32-8.12,5.89-11.06.04-.03.08-.06.12-.09-2.13-4.71-3.02-12.26,1.35-19.81,9.16-15.8,38.88-31.09,68.67-17.38,10.93,5.03,19.74,14.7,21.42,23.52.95,5-.33,9.52-3.71,13.05-3.69,3.86-9.08,5.66-15.59,5.24-5.36-.36-11.27-2.27-16.19-4.73-1.08,2.88-2.89,5.43-5.61,6.98-4.55,2.6-10.13,2.66-15.32.15-1.08-.52-2.09-1.13-3-1.8-.53.49-1.05.94-1.55,1.34.62,1.43,1.19,3.19,1.34,5.05.75,9.24-5.39,16.96-14.61,18.35-1.09.17-2.16.24-3.21.24ZM479.87,287.15c-1.06,0-2.1.34-2.95,1.04-1.93,1.59-2.98,3.5-3.12,5.66-.16,2.42.84,5.11,2.62,7.03,1.54,1.66,5.98,4.57,11.78,3.69,6.06-.92,8.46-5.91,8.11-10.15-.15-1.84-1.36-3.98-1.81-4.64-.58-.86-.8-1.93-.59-2.95.21-1.02.83-1.91,1.71-2.47,1.08-.69,2.51-1.78,3.7-2.94-.22-.58-.38-1.17-.47-1.76-.53-3.46.2-6.71,1.95-8.69,1.17-1.33,2.72-2.02,4.38-2,1.6.04,3.03.82,3.91,2.15,1.88,2.82.59,7.43-.41,10.07.52.39,1.13.76,1.82,1.1,1.36.66,4.88,1.98,8.18.1,1.31-.75,2.21-2.5,2.67-4.52-1.31-1.04-2.37-2.08-3.09-3.07-2.63-3.61-3.53-7.3-2.45-10.15.67-1.78,2.06-3.03,3.8-3.41,4.43-.97,7.74,3.88,8.88,7.39.51,1.56.82,3.43.87,5.4,4.01,2.34,9.81,4.74,15.43,5.12,4.24.28,7.45-.69,9.55-2.88,1.64-1.72,2.21-3.79,1.72-6.32-1.21-6.33-8.55-14.06-17.09-17.99-27.87-12.82-52.45,3.24-58.83,14.26-3.37,5.82-1.98,10.98-.79,13.24,3.63-.14,7.33,1.29,9.97,4.25,1.9,2.14,3.61,5.86.92,11.46-.91,1.91-3.2,2.72-5.11,1.8-1.91-.92-2.72-3.2-1.8-5.11,1.04-2.18.54-2.75.27-3.05-.98-1.1-2.36-1.67-3.73-1.67Z"/>
      <path class="st5" d="M486.1,309.84c-5.74,0-10.74-2.58-13.43-5.48-2.74-2.96-4.23-7.01-3.97-10.84.24-3.57,1.96-6.77,4.97-9.26.59-.49,1.22-.89,1.87-1.22-1.88-2.79-4.89-10.63.18-19.37,7.17-12.38,34.57-30.52,65.39-16.34,10.06,4.63,18.46,13.74,19.97,21.67.79,4.16-.26,7.89-3.05,10.81-3.19,3.34-7.76,4.85-13.58,4.45-6.38-.42-13.12-3.08-17.96-5.97-.64,3.51-2.28,6.84-5.27,8.55-3.81,2.18-8.52,2.2-12.94.07-1.67-.81-3.13-1.84-4.28-2.99-1.57,1.78-3.46,3.25-4.62,4.07.73,1.31,1.83,3.61,2.02,6.03.64,7.86-4.6,14.43-12.44,15.62-.97.15-1.93.22-2.86.22ZM479.86,284.6c-1.63,0-3.25.53-4.57,1.62-2.49,2.06-3.85,4.57-4.05,7.46-.21,3.09,1.06,6.52,3.3,8.93,2.59,2.79,8.09,5.38,14.04,4.48,7.34-1.11,10.73-7.33,10.28-12.89-.24-2.95-2.23-5.85-2.25-5.88-.2-.29-.27-.64-.2-.98.07-.34.28-.64.57-.83.04-.03,3.3-2.1,5.41-4.64-.53-.86-.87-1.74-1-2.6-.41-2.72.09-5.2,1.34-6.62.66-.75,1.52-1.17,2.39-1.13.77.02,1.43.38,1.85,1.01,1.37,2.06-.23,6.59-.75,7.93-.18.46-.41.91-.67,1.35.98,1.05,2.32,2.04,3.84,2.77,3.65,1.76,7.5,1.77,10.56.02,2.49-1.42,3.79-4.61,4.18-7.87-1.73-1.22-3.05-2.42-3.8-3.46-2.08-2.85-2.88-5.75-2.13-7.74.36-.96,1.08-1.62,1.96-1.82,2.61-.58,5.02,2.98,5.9,5.69.54,1.68.82,3.8.74,6.01,4.45,2.84,11.31,5.83,17.82,6.27,5.03.33,8.92-.9,11.56-3.67,2.22-2.33,3.03-5.21,2.39-8.56-1.37-7.18-9.16-15.52-18.53-19.83-29.35-13.5-55.33,3.6-62.11,15.3-4.62,7.97-1.63,14.92-.08,16.92.08.1.14.21.18.33,3.33-.64,6.92.47,9.38,3.23,2.02,2.26,2.19,5.17.52,8.66-.31.64-1.07.91-1.7.6-.64-.3-.91-1.07-.6-1.7,1.6-3.33.69-4.94-.13-5.85-1.48-1.66-3.57-2.52-5.64-2.52ZM504.91,274.12c-.11.06-.22.17-.27.22-.6.69-1.07,2.36-.73,4.54.02.1.04.2.06.3.87-2.36,1.12-4.38.94-5.07ZM520.73,266.23s-.01,0-.02,0c-.01.01-.12.15-.19.49-.18.96.22,2.8,1.87,5.06.38.53,1.01,1.15,1.83,1.82-.07-1.24-.28-2.41-.59-3.39-.75-2.3-2.35-3.98-2.9-3.98Z"/>
    </g>
  </g>
</svg>