<?xml version="1.0" encoding="UTF-8"?>
<svg id="_圖層_1" data-name="圖層_1" xmlns="http://www.w3.org/2000/svg" version="1.1" xmlns:xlink="http://www.w3.org/1999/xlink" viewBox="0 0 612 414.22">
  <!-- Generator: Adobe Illustrator 29.0.0, SVG Export Plug-In . SVG Version: 2.1.0 Build 186)  -->
  <defs>
    <style>
      .st0, .st1 {
        fill: #998dc2;
      }

      .st0, .st2 {
        stroke: #998dc2;
        stroke-linecap: round;
        stroke-linejoin: round;
        stroke-width: .5px;
      }

      .st3 {
        fill: none;
      }

      .st4 {
        fill: #9880b0;
      }

      .st5 {
        fill: #28286d;
      }

      .st6 {
        fill: #1e2f4a;
      }

      .st7 {
        clip-path: url(#clippath);
      }

      .st2 {
        fill: #d1d4eb;
      }
    </style>
    <clipPath id="clippath">
      <polygon class="st3" points="513.82 214.83 482.53 244.16 493.02 259.13 507.84 259.94 522.57 242.47 521.93 222.03 513.82 214.83"/>
    </clipPath>
  </defs>
  <g>
    <path class="st2" d="M463.11,17.88c7.68,0,15.49,1.44,23.06,4.47,31.79,12.75,47.22,48.85,34.48,80.64-9.71,24.22-32.99,38.95-57.58,38.95-7.68,0-15.49-1.44-23.06-4.47-31.79-12.75-47.22-48.85-34.48-80.64-9.34,23.29,1.97,49.73,25.26,59.07,5.54,2.22,11.26,3.28,16.89,3.28,18.01,0,35.06-10.79,42.18-28.53,9.34-23.29-1.97-49.73-25.26-59.07-5.54-2.22-11.26-3.28-16.89-3.28-18.01,0-35.06,10.79-42.18,28.53,9.71-24.22,32.99-38.95,57.58-38.95M463.11,15.01c-12.81,0-25.25,3.76-35.96,10.87-10.97,7.28-19.37,17.62-24.29,29.88-6.45,16.09-6.25,33.72.56,49.66,6.81,15.94,19.43,28.27,35.51,34.72,7.74,3.1,15.86,4.68,24.13,4.68,12.81,0,25.25-3.76,35.96-10.87,10.97-7.28,19.37-17.62,24.29-29.88,13.32-33.21-2.87-71.06-36.08-84.38-7.74-3.1-15.86-4.68-24.13-4.68h0ZM408.2,57.9c6.51-16.24,22.02-26.73,39.51-26.73,5.42,0,10.74,1.03,15.82,3.07,10.55,4.23,18.82,12.32,23.29,22.77,4.47,10.45,4.6,22.02.37,32.57-6.51,16.24-22.02,26.73-39.51,26.73-5.42,0-10.74-1.03-15.82-3.07-21.78-8.73-32.39-33.56-23.66-55.33h0Z"/>
    <path class="st0" d="M463.07,140.71c-7.75,0-15.35-1.47-22.6-4.38-21.81-8.75-35.79-28.8-37.88-50.73,3.64,13.79,13.52,25.74,27.74,31.45,5.57,2.23,11.4,3.36,17.35,3.36h0c19.18,0,36.18-11.5,43.32-29.31,9.58-23.88-2.06-51.1-25.94-60.67-5.57-2.23-11.41-3.36-17.35-3.36-8.88,0-17.28,2.46-24.47,6.87,10.8-9.39,24.82-14.82,39.87-14.82,7.75,0,15.35,1.47,22.6,4.38,31.11,12.47,46.26,47.93,33.79,79.04-9.3,23.19-31.45,38.17-56.43,38.17,0,0,0,0,0,0Z"/>
    <path class="st5" d="M463.11,20.35c7.59,0,15.04,1.44,22.14,4.29,30.47,12.22,45.33,46.96,33.1,77.43-4.51,11.26-12.22,20.74-22.28,27.42-9.83,6.53-21.25,9.98-33,9.98-7.59,0-15.04-1.44-22.14-4.29-14.76-5.92-26.34-17.23-32.59-31.86-.79-1.84-1.48-3.7-2.07-5.58,5.18,8.96,13.27,16.31,23.6,20.45,5.71,2.29,11.71,3.45,17.81,3.45,19.69,0,37.14-11.81,44.47-30.08,9.83-24.51-2.12-52.45-26.63-62.28-5.71-2.29-11.71-3.45-17.81-3.45-4.54,0-8.96.63-13.16,1.82,8.76-4.79,18.54-7.3,28.56-7.3M463.11,17.88c-24.59,0-47.87,14.73-57.58,38.95,7.11-17.74,24.16-28.53,42.18-28.53,5.63,0,11.35,1.05,16.89,3.28,23.29,9.34,34.59,35.78,25.26,59.07-7.11,17.74-24.16,28.53-42.18,28.53-5.63,0-11.35-1.05-16.89-3.28-23.29-9.34-34.59-35.78-25.26-59.07-12.75,31.79,2.69,67.89,34.48,80.64,7.57,3.03,15.38,4.47,23.06,4.47,24.59,0,47.87-14.73,57.58-38.95,12.75-31.79-2.69-67.89-34.48-80.64-7.57-3.03-15.38-4.47-23.06-4.47h0Z"/>
  </g>
  <g>
    <g>
      <path class="st2" d="M229.16,365.21s-53.59,22.77-31.31-17.01c22.28-39.78,71.62-98.59,71.62-98.59l7.78.15s-22.98,60.9-38.07,84.56c-16.63,26.08,17.69,15.16,17.69,15.16l-27.72,15.73Z"/>
      <path class="st5" d="M203.09,372.84c-4.1,0-7.67-.87-9.79-3.23-3.64-4.06-2.49-11.25,3.52-21.98,22.08-39.42,71.25-98.18,71.74-98.77l.36-.43,10.01.19-.59,1.56c-.23.61-23.2,61.28-38.18,84.78-4.12,6.46-5.35,11.11-3.56,13.44,3.19,4.16,15.45,1.39,19.91-.03l10.72-3.41-37.62,21.34c-.85.36-15.57,6.54-26.52,6.54ZM270.01,250.8c-4.52,5.43-50.16,60.53-71.13,97.98-5.31,9.47-6.63,16.14-3.82,19.27,5.51,6.15,26.05-.69,33.58-3.88l20.59-11.69c-5.31.83-11.74.92-14.48-2.65-2.52-3.27-1.39-8.55,3.44-16.13,13.51-21.19,33.66-73.12,37.37-82.79l-5.55-.11Z"/>
    </g>
    <g>
      <path class="st2" d="M222.18,339.22l9.85,1s89.18.46,109.33,6.47c20.15,6.01,12.62,14.26,12.62,14.26l-51.59,3-83.13-7.04,2.92-17.69Z"/>
      <g>
        <path class="st2" d="M345.2,347.3s-38.18-6.12-63.47-7.76c-25.29-1.64-60.25.79-60.25.79"/>
        <path class="st5" d="M345.02,348.46c-.38-.06-38.42-6.13-63.36-7.75-24.92-1.62-59.75.77-60.1.79l-.16-2.35c.35-.03,35.34-2.42,60.41-.8,25.05,1.63,63.2,7.71,63.58,7.77l-.37,2.32Z"/>
      </g>
    </g>
  </g>
  <g>
    <path class="st2" d="M364.95,342.66s-28.58-1.03-73.89,3.62c-75.93,7.8-66.24,2.74-88.83,3.33-39.84,1.04-113.08,12.04-113.08,12.04l-2.41,15.11h282.69l-4.49-34.1Z"/>
    <path class="st5" d="M370.78,377.94H85.36l2.77-17.32.85-.13c.73-.11,73.77-11.02,113.22-12.06,6.72-.17,10.59.14,14.69.48,9.65.79,20.58,1.69,74.05-3.81,44.87-4.61,73.76-3.64,74.05-3.63l.99.04,4.79,36.42ZM88.12,375.58h279.97l-4.18-31.78c-5.42-.12-32.67-.47-72.73,3.64-53.69,5.51-64.73,4.61-74.48,3.81-4.04-.33-7.85-.64-14.44-.47-37,.97-103.78,10.68-112.08,11.9l-2.06,12.89Z"/>
  </g>
  <g>
    <g>
      <path class="st2" d="M334.52,208.45l-15.76-15.35s-12.14-1.8-26.63,5.74c-14.49,7.54-18.28,16.73-18.28,16.73l5.2,18.9-14.3-11.84s-4.83-1.89-14.64,5.6c-9.81,7.49-12.5,15.06-12.5,15.06l7.87,18.35,38.59-18.67,50.21-32.17c.82-.52.93-1.67.24-2.35Z"/>
      <path class="st5" d="M244.89,263.24l-8.54-19.91.15-.43c.11-.32,2.92-7.99,12.89-15.6,10.05-7.67,15.22-5.98,15.78-5.76l.18.07,11.57,9.58-4.32-15.69.15-.37c.16-.39,4.13-9.67,18.83-17.32,14.66-7.63,26.83-5.93,27.34-5.86l.38.06,16.03,15.61c.59.57.88,1.37.8,2.19s-.53,1.54-1.22,1.99l-50.33,32.24-39.69,19.21ZM238.89,243.28l7.19,16.77,37.41-18.11,50.15-32.14c.12-.08.15-.19.15-.25s0-.17-.1-.27l-15.47-15.07c-2.09-.21-12.97-.89-25.55,5.66-12.32,6.41-16.72,14.09-17.58,15.79l6.08,22.08-16.99-14.06c-.8-.17-5.24-.73-13.37,5.47-8.11,6.19-11.23,12.48-11.94,14.12Z"/>
    </g>
    <g>
      <path class="st4" d="M229.12,300.19l22.79-29.61-2.27-4.79-.21-.22c-.06-.06-5.78-5.91-5.24-12.86.32-4.09,2.76-7.85,7.26-11.18,5.01-3.69,9.19-5.71,13.16-6.33,8.93-1.41,16.83-6.81,21.65-14.83,6.63-11,16.98-16.58,30.77-16.58.51,0,1.03,0,1.56.02,10.07.31,16.48,4.4,17.15,10.95.62,6.15-4.94,13.3-14.18,18.22-2.1,1.12-4.49,2.18-7.02,3.31-6.23,2.78-13.3,5.93-17.49,10.76l-23.07,29.12-16.74,32.89-28.11-8.89Z"/>
      <path class="st2" d="M317.02,205.56c.49,0,1,0,1.51.02,9.1.28,14.88,3.78,15.44,9.37.54,5.35-4.78,11.97-13.25,16.48-2.04,1.09-4.41,2.14-6.91,3.26-6.4,2.85-13.65,6.09-18.1,11.21l-.05.06-.05.06-22.91,28.92-.22.28-.16.31-15.98,31.41-24.28-7.68,20.59-26.76,1.32-1.71-.93-1.95-1.68-3.54-.26-.55-.42-.42c-.05-.05-5.22-5.39-4.74-11.5.28-3.55,2.48-6.87,6.55-9.87,4.77-3.52,8.71-5.43,12.39-6.01,9.45-1.49,17.79-7.2,22.89-15.66,6.28-10.44,16.13-15.73,29.26-15.73M317.02,202.03c-17.62,0-27.18,8.97-32.28,17.43-4.46,7.41-11.87,12.65-20.42,13.99-4.68.74-9.23,3.19-13.93,6.66-16.63,12.28-2.22,26.7-2.22,26.7l1.68,3.54-23.67,30.75,31.94,10.1,17.34-34.07,22.91-28.92c5.53-6.37,16.56-9.7,24-13.67,8.95-4.77,15.87-12.45,15.11-19.95-.66-6.5-6.56-12.17-18.85-12.54-.54-.02-1.08-.02-1.61-.02h0Z"/>
      <path class="st5" d="M258.72,312.63l-34.49-10.91,24.25-31.51-1.29-2.71c-1.01-1.06-6.53-7.27-5.95-14.98.38-4.99,3.22-9.48,8.45-13.35,5.4-3.99,9.99-6.17,14.45-6.87,8.07-1.27,15.22-6.17,19.59-13.44,5.14-8.53,15.41-18.58,34.93-17.98,13.76.42,19.34,7.3,19.98,13.6.74,7.34-5.43,15.63-15.72,21.11-2.19,1.16-4.62,2.25-7.2,3.4-6.25,2.79-12.7,5.67-16.46,10l-22.81,28.79-17.74,34.85ZM228.14,300.49l29.39,9.29,17.01-33.38,22.91-28.92c4.14-4.77,10.84-7.76,17.32-10.65,2.54-1.13,4.94-2.2,7.05-3.33,9.45-5.03,15.14-12.41,14.49-18.8-.7-6.87-7.32-11.17-17.71-11.48-18.44-.56-28.04,8.85-32.85,16.84-4.74,7.87-12.48,13.17-21.24,14.55-4.07.64-8.33,2.69-13.42,6.44-4.65,3.43-7.17,7.34-7.5,11.61-.55,7.22,5.36,13.25,5.42,13.31l.14.14,2.08,4.37-23.08,29.99Z"/>
    </g>
  </g>
  <g>
    <g>
      <path class="st5" d="M319.08,338.14c-1.22,0-2.26-.95-2.34-2.19-1.33-19.05-34.6-34.38-52.12-35.45-23.99-1.46-45.19-15.35-54.03-35.37-7.25-16.43-4.76-34.09,6.84-48.46,13.68-16.95,36.11-22.71,57.79-28.28,22.61-5.8,43.97-11.29,53.75-28.69,2.87-5.11,3.12-10.22.72-14.79-3.08-5.86-10.3-10.14-18.4-10.88-1.29-.12-2.25-1.26-2.13-2.56.12-1.29,1.26-2.23,2.56-2.13,9.79.9,18.28,6.03,22.13,13.38,3.13,5.96,2.85,12.81-.79,19.28-10.77,19.16-34.11,25.15-56.68,30.94-20.94,5.38-42.6,10.94-55.3,26.68-10.45,12.95-12.71,28.85-6.2,43.61,8.13,18.43,27.76,31.22,50.01,32.58,18.53,1.13,54.97,17.51,56.52,39.82.09,1.3-.89,2.42-2.18,2.51-.06,0-.11,0-.17,0Z"/>
      <g>
        <polygon class="st2" points="305.1 137 293.23 140.82 297.41 129.08 290.1 118.98 302.57 119.32 309.92 109.25 313.44 121.21 325.29 125.09 315 132.13 314.98 144.6 305.1 137"/>
        <path class="st5" d="M308.8,115.65l2.3,7.82,7.75,2.54-6.73,4.61-.02,8.15-6.46-4.97-7.76,2.5,2.73-7.68-4.78-6.61,8.15.22,4.81-6.59M311.03,102.85l-6.87,9.41-3.02,4.14-5.13-.14-11.65-.32,6.83,9.44,3.01,4.16-1.72,4.83-3.91,10.98,11.09-3.58,4.88-1.57,4.06,3.13,9.24,7.11.02-11.65v-5.13s4.24-2.9,4.24-2.9l9.61-6.59-11.08-3.62-4.87-1.59-1.45-4.92-3.29-11.18h0Z"/>
      </g>
    </g>
    <g>
      <g>
        <path class="st1" d="M319.08,340.8c-2.62,0-4.81-2.05-4.99-4.66-1.21-17.38-33.36-31.99-49.63-32.98-24.97-1.52-47.06-16.03-56.3-36.95-7.66-17.37-5.04-36.03,7.2-51.2,14.23-17.64,37.09-23.51,59.19-29.18,22.05-5.66,42.88-11.01,52.11-27.42,2.41-4.28,2.65-8.52.69-12.26-2.67-5.09-9.07-8.81-16.29-9.47-2.75-.25-4.78-2.7-4.52-5.44.23-2.55,2.43-4.55,4.99-4.55.14,0,.29,0,.43.02,10.7.99,19.99,6.65,24.26,14.79,3.56,6.79,3.27,14.53-.82,21.81-11.33,20.15-35.22,26.28-58.34,32.21-20.53,5.27-41.75,10.72-53.9,25.78-9.81,12.15-11.93,27.05-5.83,40.87,7.74,17.54,26.48,29.7,47.75,31,19.85,1.21,57.33,18.18,59.01,42.28.09,1.33-.34,2.62-1.21,3.63-.88,1.01-2.1,1.62-3.43,1.71-.11,0-.23.01-.35.01Z"/>
        <path class="st6" d="M311.52,127.18c.13,0,.26,0,.39.02,10.53.97,19.67,6.54,23.87,14.53,3.48,6.63,3.19,14.21-.82,21.34-11.22,19.96-35.02,26.07-58.03,31.98-20.6,5.29-41.91,10.76-54.16,25.95-9.93,12.3-12.08,27.39-5.9,41.38,7.81,17.7,26.72,29.99,48.17,31.29,19.7,1.2,56.88,17.99,58.54,41.82.08,1.2-.3,2.36-1.09,3.27-.79.91-1.89,1.46-3.09,1.54-.1,0-.21.01-.32.01-2.36,0-4.33-1.84-4.49-4.2-1.23-17.63-33.67-32.45-50.09-33.44-24.78-1.51-46.71-15.9-55.87-36.65-7.58-17.19-4.98-35.67,7.13-50.69,14.13-17.51,36.91-23.36,58.93-29.01,22.16-5.69,43.08-11.06,52.42-27.66,2.5-4.44,2.73-8.84.69-12.73-2.75-5.23-9.3-9.06-16.69-9.74-2.48-.23-4.3-2.43-4.08-4.9.21-2.32,2.19-4.09,4.5-4.09M319.08,335.99h.01c.1,0,.19-.12.18-.21-1.42-20.36-36.21-36.7-54.5-37.81-23.04-1.4-43.4-14.69-51.86-33.86-6.85-15.53-4.48-32.23,6.49-45.83,13.15-16.3,35.16-21.95,56.45-27.41,22.13-5.68,45.02-11.56,55.34-29.91,3.27-5.81,3.54-11.93.76-17.22-3.52-6.71-11.35-11.4-20.42-12.24h-.02c-.1,0-.19.07-.19.18-.01.11.07.2.18.21,8.81.81,16.7,5.53,20.11,12.03,2.75,5.25,2.49,11.08-.75,16.85-10.24,18.21-32.03,23.8-55.1,29.72-21.35,5.48-43.42,11.15-56.65,27.55-11.07,13.72-13.46,30.57-6.54,46.24,8.51,19.3,29,32.68,52.19,34.09,17.77,1.08,52.68,16.51,54.14,37.45,0,.11.1.18.19.18M311.52,126.18h0c-2.82,0-5.23,2.19-5.48,5-.28,3.02,1.95,5.7,4.97,5.98,7.06.65,13.31,4.27,15.9,9.21,1.88,3.58,1.64,7.65-.68,11.78-9.13,16.23-29.85,21.55-51.8,27.19-22.18,5.7-45.12,11.59-59.46,29.35-12.36,15.32-15.01,34.17-7.27,51.71,9.31,21.09,31.57,35.71,56.72,37.24,8.41.51,20.59,4.67,30.3,10.35,6.74,3.94,18.16,12.06,18.86,22.17.2,2.87,2.61,5.12,5.48,5.12.13,0,.27,0,.39-.01,1.46-.1,2.8-.77,3.76-1.88.97-1.11,1.44-2.53,1.34-3.99-.76-10.85-8.92-21.56-22.98-30.17-11.4-6.98-25.72-11.91-36.49-12.57-21.08-1.28-39.66-13.34-47.32-30.7-6.02-13.65-3.92-28.36,5.77-40.36,12.04-14.93,33.18-20.36,53.63-25.61,23.22-5.96,47.22-12.12,58.65-32.45,4.18-7.43,4.47-15.35.83-22.29-4.35-8.28-13.79-14.05-24.65-15.06-.16-.01-.32-.02-.48-.02h0Z"/>
      </g>
      <g>
        <path class="st4" d="M317.13,148.97l-12.45-9.58-14.94,4.82,5.26-14.79-9.2-12.72,15.7.43,9.26-12.69,4.44,15.06,14.92,4.88-12.95,8.88-.03,15.7ZM305.52,134.6l7.31,5.63.02-9.23,7.61-5.22-8.77-2.87-2.61-8.86-5.44,7.46-9.23-.25,5.41,7.48-3.09,8.7,8.79-2.83Z"/>
        <path class="st4" d="M319.99,154.81l-15.87-12.21-19.05,6.15,6.71-18.86-11.73-16.22,20.01.55,11.8-16.17,5.66,19.2,19.03,6.22-16.51,11.32-.04,20.02ZM304.96,137.8l10.74,8.26.03-13.55,11.17-7.66-12.88-4.21-3.83-12.99-7.98,10.94-13.54-.37,7.94,10.98-4.54,12.76,12.89-4.16ZM314.26,143.14l-9.03-6.95-10.84,3.5,3.82-10.73-6.67-9.23,11.38.31,6.71-9.2,3.22,10.92,10.82,3.54-9.4,6.44-.02,11.39ZM306.07,131.39l3.89,3v-4.92s4.07-2.78,4.07-2.78l-4.67-1.53-1.39-4.71-2.9,3.97-4.92-.14,2.88,3.98-1.65,4.63,4.68-1.51Z"/>
      </g>
    </g>
  </g>
  <g>
    <path class="st5" d="M319.08,338.14c-1.22,0-2.26-.95-2.34-2.19-1.33-19.05-34.6-34.38-52.12-35.45-23.99-1.46-45.2-15.35-54.03-35.37-7.25-16.43-4.75-34.09,6.84-48.46,13.68-16.96,36.11-22.71,57.79-28.28,22.61-5.8,43.97-11.29,53.75-28.69,2.87-5.11,3.12-10.22.72-14.79-3.08-5.86-10.3-10.14-18.4-10.88-1.29-.12-2.25-1.26-2.13-2.56s1.26-2.25,2.56-2.13c9.79.9,18.28,6.03,22.13,13.38,3.13,5.96,2.85,12.81-.79,19.28-10.77,19.16-34.11,25.15-56.68,30.94-20.95,5.38-42.6,10.94-55.3,26.68-10.45,12.95-12.71,28.85-6.2,43.61,8.13,18.43,27.76,31.22,50.01,32.58,18.53,1.13,54.97,17.51,56.52,39.82.09,1.29-.89,2.42-2.18,2.51-.06,0-.11,0-.17,0Z"/>
    <g>
      <polygon class="st2" points="305.38 135.4 295.56 138.56 299.02 128.85 292.98 120.49 303.28 120.78 309.36 112.45 312.27 122.34 322.07 125.55 313.57 131.37 313.55 141.68 305.38 135.4"/>
      <path class="st2" d="M308.8,115.65l2.3,7.82,7.75,2.54-6.73,4.61-.02,8.15-6.46-4.97-7.76,2.5,2.73-7.68-4.78-6.61,8.15.22,4.81-6.59M309.92,109.25l-3.43,4.71-3.91,5.36-6.64-.18-5.82-.16,3.42,4.72,3.89,5.38-2.23,6.26-1.95,5.49,5.55-1.79,6.32-2.04,5.26,4.05,4.62,3.55v-5.83s.03-6.64.03-6.64l5.48-3.75,4.81-3.29-5.54-1.81-6.31-2.06-1.88-6.37-1.65-5.59h0Z"/>
    </g>
  </g>
  <g>
    <g>
      <path class="st0" d="M319.05,313.68l-13.3,9.63-11.72,12.99-2.27,16.12-5.64,13.96,3.04,12.22s28.1-.27,29-.27,28.95,2.71,28.95,2.71l4.86-33.27-13.56-27.38-19.37-6.71Z"/>
      <path class="st5" d="M348.12,382.33l-1.12-.11c-11.11-1.07-27.97-2.68-28.85-2.71-.87,0-28.7.27-28.98.27h-.93s-3.36-13.48-3.36-13.48l5.73-14.18,2.3-16.33,12.15-13.42,13.8-9.99,20.41,7.07,13.93,28.14-.05.36-5.02,34.38ZM318.16,377.16c.88,0,21.48,1.98,27.95,2.61l4.64-31.8-13.18-26.62-18.34-6.35-12.7,9.2-11.4,12.63-2.29,16.04-5.5,13.61,2.73,10.95c4.95-.05,27.27-.26,28.08-.26h0Z"/>
    </g>
    <g>
      <path class="st4" d="M346.7,339.89l-11.68-33.49s-22.9,6.21-22.03,7.55c.88,1.34,31.85,30.18,31.85,30.18l-43.56-21.47-11.88,17.79,55.8,24.41-60.4-13.9-1.52,16.25,36.59,7.52-35.83.07,5,7.62,67.28-1.44,9.06-18.53-18.69-22.56Z"/>
      <path class="st2" d="M287.79,384.78l-8.1-12.34,17.26-.03-16.2-3.33,1.97-21.02,38.48,8.86-35.31-15.45,14.58-21.84,31.12,15.34c-10.56-9.89-19.94-18.78-20.56-19.73-.44-.67-.53-1.52-.24-2.27.46-1.21,1.03-2.71,23.62-8.84l2.11-.57,12.26,35.16,19.39,23.4-10.36,21.18-70.02,1.5ZM288.39,377.13l1.9,2.9,64.55-1.38,7.77-15.87-10.19-12.3-50.32-24.8-9.17,13.74,53.23,23.29-1.47,4.45-57.78-13.3-1.08,11.47,56.97,11.7-54.41.1ZM316.76,314.44c4.92,4.79,18.07,17.13,27.67,26.08l-10.91-31.27c-6.46,1.79-13.31,3.89-16.76,5.2Z"/>
      <path class="st5" d="M288.41,383.6l-6.55-9.98,26.54-.05-26.39-5.42,1.75-18.63,49.44,11.38-45.55-19.93,13.23-19.81,37.32,18.4c-9.86-9.2-25.48-23.86-26.19-24.95-.24-.36-.28-.8-.13-1.21.22-.59.82-2.15,22.83-8.12l1.06-.29,11.97,34.32,19.04,22.98-9.71,19.85-68.65,1.47ZM286.21,375.96l3.45,5.26,65.92-1.41,8.42-17.2-18.34-22.13-11.39-32.65c-8.23,2.26-16.9,4.94-19.6,6.22,3.63,3.66,19.9,18.91,30.97,29.22l5.86,5.45-49.81-24.55-10.53,15.76,54.51,23.85-.74,2.22-59.09-13.6-1.3,13.86,46.78,9.61-45.12.08Z"/>
    </g>
  </g>
  <path class="st5" d="M498.97,332h13.07l31.36,23.02,6.43,12.26s-14.67,2.51-15.78,2.41-39.6-7.94-39.6-7.94l4.52-29.75Z"/>
  <g>
    <path class="st2" d="M366.41,386.87c-1.54,0-2.55-.04-2.88-.05-4.86-.03-9.39-2.2-12.42-5.96-4.64-5.76-10.4-14.84-11.43-25.37-1.65-16.73,1.5-24.82,1.63-25.16l.29-.72.66-.41c7.92-4.92,17.62-6.32,26.59-3.82,3,.83,4.74,1.18,6.42,1.52,2.58.51,4.81.96,10.4,2.88,5.37,1.85,10.52,2.63,15.4,2.63,26.55,0,45.02-23.08,45.23-23.36l.51-.66,34.08-7.8-5.68,5.75c-.22.22-22.26,22.65-37.74,48.78-17.56,29.65-59.49,31.76-71.07,31.76ZM345.45,332.76c-.64,2.17-2.35,9.48-1.09,22.26.92,9.38,6.17,17.62,10.42,22.88,2.16,2.68,5.39,4.21,8.86,4.21v1.56l.07-1.56c.51.02,51.15,1.98,69.73-29.4,11.1-18.75,25.5-35.61,33.14-44.02l-17.12,3.92c-4.1,4.81-30.5,33.6-65.32,21.62-5.29-1.82-7.38-2.24-9.79-2.72-1.68-.34-3.59-.72-6.76-1.6-7.45-2.07-15.46-1.02-22.13,2.85Z"/>
    <path class="st5" d="M448.15,310.49s-26.65,34.1-63.25,21.51c-9.11-3.14-9.04-2.23-16.69-4.36-8.38-2.33-17.34-1.03-24.72,3.55h0s-3.08,7.71-1.47,24.06c1,10.12,6.71,18.9,10.92,24.13,2.6,3.23,6.54,5.09,10.69,5.09h-.04s52.32,2.45,71.86-30.55c15.81-26.7,38.09-49.23,38.09-49.23l-25.39,5.81Z"/>
    <path class="st4" d="M365.67,385.67c-1.22,0-1.95-.03-2.11-.03-4.52-.02-8.72-2.03-11.54-5.53-4.54-5.64-10.17-14.5-11.18-24.75-1.62-16.45,1.42-24.28,1.55-24.61l.14-.36.33-.2c7.64-4.75,17-6.1,25.66-3.69,3.04.84,4.8,1.2,6.5,1.54,2.54.51,4.73.95,10.25,2.84,35.36,12.17,61.68-20.79,61.94-21.12l.26-.33,29.74-6.81-2.84,2.88c-.22.22-22.36,22.74-37.91,49-17.4,29.39-60.68,31.16-70.79,31.16ZM344.46,331.98c-.54,1.66-2.65,9.24-1.28,23.16.95,9.67,6.33,18.12,10.67,23.5,2.38,2.96,5.95,4.65,9.77,4.65v.38l.02-.38c.52.03,51.85,2.02,70.8-29.98,12.46-21.05,29.11-39.71,35.56-46.62l-21.19,4.85c-2.94,3.53-29.3,33.6-64.29,21.56-5.37-1.85-7.49-2.27-9.95-2.76-1.66-.33-3.55-.71-6.67-1.58-7.9-2.19-16.42-1.02-23.44,3.21Z"/>
  </g>
  <g>
    <g>
      <path class="st0" d="M385.9,302.34l-28.91,8.14,17.26-15.8c-4.6-3.24-13.11-10.18-20.44-21.4-9.6-14.71-18.86-39.84-8.42-76.03,10.4-36.08,30.89-54.01,46.25-62.7,14.85-8.4,27.67-10.01,30.77-10.28,2.83-1.49,14.98-7.28,32.37-7.28s42.7,5.8,68.9,33.45c30.61,32.29,35.02,58.51,33.33,74.82-1.36,13.15-6.71,22.08-9.64,26.09l11.33,9.66-13.96.12,3.36,4.7-13.55,6.78v7.98h-17.14l-92.62,21-6.06,6.55-11.22-3.96-15.18,8.18-6.43-10.01Z"/>
      <path class="st5" d="M454.78,119.94c18.16,0,42.21,6.62,66.77,32.53,57.77,60.95,21.75,99.27,21.75,99.27l7.51,6.4-11.74.1,4.65,6.5-12.1,6.05v6.86h-14.53l-93.83,21.28-5.37,5.8-10.63-3.75-13.93,7.51-6.14-9.55-19.1,5.38,10.94-10.01s-50.43-28.23-30.82-96.22c19.61-67.99,75.05-70.91,75.05-70.91,0,0,12.55-7.22,31.52-7.22M454.78,114.06c-17.07,0-29.38,5.42-33.21,7.35-4.13.44-16.88,2.39-31.37,10.59-15.84,8.96-36.95,27.41-47.63,64.44-10.74,37.26-1.15,63.23,8.79,78.45,6.22,9.52,13.29,16.09,18.3,20.02l-5.52,5.05-18.25,16.7,23.82-6.71,14.91-4.2,3.78,5.89,2.94,4.58,4.79-2.58,11.64-6.27,8.17,2.89,3.64,1.29,2.63-2.84,4.13-4.46,91.41-20.73h19.75v-9.1l8.85-4.42,6.16-3.08-2.07-2.9h.43s15.74-.14,15.74-.14l-11.98-10.21-3.34-2.85c3.18-4.97,7.44-13.56,8.65-25.25,1.13-10.93-.6-22.37-5.14-34.01-5.53-14.16-15.28-28.67-28.98-43.13-11.78-12.42-24.47-21.62-37.72-27.34-10.82-4.66-22.03-7.03-33.31-7.03h0Z"/>
    </g>
    <g>
      <path class="st2" d="M522.65,222.15s18.45-36.19,28.76-18.72c10.31,17.48,2.51,44.16-40.17,51.63"/>
      <path class="st5" d="M511.44,256.22l-.41-2.32c20.66-3.62,35.14-12.33,40.78-24.54,3.78-8.18,3.26-17.42-1.41-25.33-1.66-2.82-3.54-4.19-5.73-4.19-.05,0-.11,0-.16,0-7.63.23-17.61,16.57-20.81,22.84l-2.1-1.07c.5-.97,12.25-23.8,22.83-24.12,3.18-.06,5.84,1.7,7.99,5.34,5.07,8.59,5.62,18.62,1.52,27.52-5.97,12.93-21.06,22.12-42.5,25.87Z"/>
    </g>
    <g>
      <path class="st2" d="M522.39,220.81s3.25,35-10.15,48.4c-13.4,13.4-31.26,18.63-38.76,20.5-7.5,1.88-37.78,3.35-50.64-4.96-16.83-10.87-47.05-39.67-34.46-82.01"/>
      <path class="st5" d="M522.39,220.81c1.25,14.79,1.16,35.83-8.6,47.86-10.94,11.78-26.18,18.89-41.65,22.48-3.15.52-6.4.84-9.56.99-10.21.48-20.5.13-30.47-2.38-3.12-.82-6.27-1.94-9.07-3.59-18.69-11.9-33.94-31.07-37.38-53.34-1.52-10.1-.41-20.47,2.72-30.08-2.62,9.71-3.45,19.99-1.58,29.89,3.85,21.68,19.11,40.04,37.39,51.58,2.63,1.53,5.57,2.56,8.5,3.32,9.66,2.38,19.84,2.73,29.77,2.31,3.1-.14,6.23-.43,9.28-.92,13.93-3.12,27.54-9.11,38.23-18.69,12.4-10.59,12.9-34.13,12.42-49.42h0Z"/>
    </g>
    <path class="st0" d="M511.24,216.17l-17.43,13.45s-6.42-2.24-7.81-5.11c-1.4-2.88-2.1-3.69-2.1-3.69,0,0,1.93,8.3,3.05,9.65,1.12,1.36,1.71,2.54,1.71,2.54l-8.42,4.57s-8.34-5.12-9.84-8.61l-2.53-4.93s.21,7.62.24,9.25.57,3.95.57,3.95l-4.67,3.7-14.65-9.62-24.36,7.33-9.2-32.11s-8.6,26.76-19.94,43.64c-11.34,16.87-47.32-9.23-47.32-9.23l15.97-74.23,90.34-10.59,71.63,45.5-15.25,14.55Z"/>
    <path class="st5" d="M454.85,270.29c3.01,3.19,7.16,3.99,11.17,5.25,2.19.63,2.2.68-.07,1.15-1.98.27-4,.16-5.91-.56-2.47-.87-5.11-3.02-5.19-5.84h0Z"/>
    <path class="st5" d="M463.09,275.36c-2.81,2.12-8.07,4.05-11.06,1.17-.74-.78-1.04-2.18-.47-3.07.91-1.55,2.35-2.16,3.93-2.52-.8.97-1.95,2.09-2.24,3.21.17,2.67,7.73,1.04,9.83,1.21h0Z"/>
    <g>
      <path class="st2" d="M392.74,251.22s-45.83-14.61-42.62,7.35c3.22,21.95,32.36,37.23,51.86,22.76"/>
      <path class="st5" d="M384.65,288.2c-4.46,0-9.05-.93-13.59-2.82-11.77-4.88-20.44-15.34-22.1-26.64-.62-4.27.43-7.6,3.14-9.89,10-8.49,39.74.86,41,1.26l-.71,2.24c-.29-.09-29.75-9.35-38.76-1.7-2.08,1.76-2.84,4.3-2.33,7.76,1.54,10.5,9.65,20.24,20.67,24.81,10.4,4.31,21.09,3.28,29.32-2.83l1.4,1.89c-5.3,3.93-11.52,5.93-18.04,5.93Z"/>
    </g>
    <g>
      <path class="st2" d="M369.55,257.82s17.04-2.85,14.98,9.22c-2.04,11.9-16.12,9.29-16.12,9.29"/>
      <path class="st5" d="M369.55,257.82c5.18-2.27,13.01-2.66,16.37,2.89,2.09,3.97,1.09,8.74-1.41,12.31-3.67,4.97-10.83,5.66-16.1,3.31,6.4-.72,12.99-2.89,13.82-9.81,1.48-7.22-7.53-7.81-12.68-8.7h0Z"/>
    </g>
    <g>
      <path class="st2" d="M546.79,210.19c-.1.3-7.91,8.56-5.7,16.18,1.68,5.83,10.13,0,10.13,0"/>
      <path class="st5" d="M546.79,210.19c-1.68,5.38-4.68,10.46-3.41,15.95.52,2.23,5.99.47,7.83.23-.76,1.11-1.72,2.03-2.83,2.83-3.32,2.51-8.21,2.3-9.53-2.37-1.96-6.66,2.33-13.47,7.93-16.64h0Z"/>
    </g>
    <path class="st5" d="M468.97,238.65c-1.74-6.34-1.61-13.07-1.21-19.6,0,0,.8,3.41.8,3.41,1.04,4.03,2.9,8.14,6.17,10.83,1.88,1.44,3.93,3.08,6.26,3.56,0,0-.35.08-.35.08,3.17-1.52,6.35-3.05,9.54-4.53l-.27,1.68c-.97-.9-1.85-1.81-2.72-2.79-2.93-2.96-4.34-6.8-4.44-10.98,0,0-.19-5.03-.19-5.03,2.03,3.97,4.28,8.9,8.01,11.51,5.22,4.24,11.45.22,16.07-3.14,2.53-1.86,4.98-3.91,7.24-6.08l-.28.92c-.39-1.95-1.01-3.97-1.66-5.92-4.73-13.85-13.98-25.98-25.75-34.66,10.77,6.77,19.5,16.67,25.05,28.12,1.94,4,3.57,8.14,4.52,12.59,0,0-.4.4-.4.4-2.33,2.32-4.75,4.46-7.37,6.43-3.29,2.37-6.99,4.91-11.24,5.49-6.44.6-11.21-4.97-13.89-10.17,0,0,2.16-.49,2.16-.49.15,2.23.45,4.71,1.62,6.72,1.48,2.41,3.68,4.63,5.77,6.64,0,0-1.36.62-1.36.62-3.21,1.45-6.43,2.85-9.66,4.26l-.2.09h-.15c-1.12-.09-1.92-.54-2.86-1.02-2.36-1.38-4.56-3.04-6.3-5.15-2.24-2.88-3.6-6.26-4.27-9.82,0,0,.97-.05.97-.05-.56,5.33-.57,10.76.4,16.06h0Z"/>
    <g>
      <path class="st0" d="M416.02,203.3s-4.91,20.25,3.49,33.55c8.4,13.29,18.03,10.24,18.03,10.24,0,0-4.78-2.28-6.65-6.27-1.87-3.99-2.25-8.09-2.25-8.09,0,0,2.16,5.87,8.99,9.83,6.83,3.95,11.26,3.44,11.26,3.44l8.08-1.95.12-5.93,3.99,4.77,5.59-1.31s-8.29-7.71-12.45-21.32c-3.12-10.22-3.44-18.63-3.44-18.63"/>
      <path class="st5" d="M416.02,203.3c-1.81,11.29-1.9,24.03,4.66,33.83,3.11,4.58,7.72,8.76,13.43,9.2,1.05.08,2.24,0,3.11-.24l-.13,1.96c-6.34-3.01-8.76-8.53-9.59-15.2,0,0-.97-8.25-.97-8.25,1.56,3.57,3.55,9.93,6.42,12.68,3.82,4.28,10.45,7.52,15.67,7.6,0,0,8.08-1.93,8.08-1.93l-.86,1.07.15-5.93.08-2.92,1.85,2.24,3.96,4.8-1.04-.35,5.6-1.27-.45,1.71c-5.25-5.43-8.94-11.98-11.47-19.01-2.37-6.99-3.57-14.34-3.73-21.68.81,7.24,2.55,14.39,5.05,21.2,2.79,7.24,7.16,14.06,12.84,19.3-1.11.26-6.13,1.49-7.35,1.78,0,0-.62.15-.62.15l-.42-.5-4.03-4.74,1.92-.68c0,.53-.09,6.48-.09,6.8-.26.09-8.39,2.03-8.93,2.18-7.55.25-15.9-4.7-19.97-10.95-.62-.96-1.15-1.88-1.62-3.04l2.21-.5c.59,4.01,1.59,8.41,4.82,11.17,1.62,1.53,4.03,2.67,5.98,3.68,0,0-2.72.62-2.72.62-8.03,1.71-14.62-3.9-18.54-10.06-6.5-10.23-5.99-23.36-3.3-34.74h0Z"/>
    </g>
    <g>
      <path class="st2" d="M518.43,263.51c.09-.21,8.76-21.38,6.72-37.29-4.55-35.54-27.22-50.68-27.45-50.82l-5.59-3.64,6.5,1.51c.97.23,24,5.93,38.34,39.98,14.53,34.5-7.97,46.13-8.2,46.25l-3.42,1.69.89-1.59c-2.74,3.6-5.99,5.33-6.17,5.42l-2.86,1.49,1.24-2.98Z"/>
      <path class="st5" d="M498.34,174.4s23.25,5.4,37.53,39.29c14.27,33.88-7.64,44.74-7.64,44.74,0,0,1.65-2.92,2.05-5.9.69-5.12.56-8.24.56-8.24,0,0-.87,5.29-3.48,11.12-2.61,5.83-7.84,8.54-7.84,8.54,0,0,8.9-21.47,6.8-37.89-4.68-36.55-27.98-51.66-27.98-51.66M485.8,169.08l11.25,7.3c.26.17,22.45,15.08,26.93,49.99,2,15.59-6.55,36.48-6.64,36.69l-2.47,5.96,5.72-2.97c.15-.08,2.26-1.19,4.56-3.47l4.11-2.04c.25-.12,6.2-3.14,10.2-10.67,3.61-6.79,6.29-18.74-1.44-37.09-14.57-34.59-38.16-40.43-39.16-40.66l-13.07-3.04h0Z"/>
    </g>
    <g>
      <path class="st4" d="M410.84,294.55c-1.8,0-4.8-.46-8.86-2.62-5.32-2.84-14.23-13.9-17.35-29.61-2.91-14.66-1.66-37.87,20.86-65.23.54-.66,1.29-1.02,2.11-1.02.96,0,1.87.51,2.39,1.32.5.79.55,1.75.14,2.63-8.21,17.4-20.27,49.28-8.83,67.38,9.28,14.68,17.23,17.76,22.26,17.76,3.36,0,5.38-1.41,5.4-1.42l2.09-1.48-.23,2.54c-.08.82-.98,3.65-9.42,5.87-1.39.37-2.83.55-4.27.55-2.7,0-5.09-.64-6.99-1.41.14.14.28.27.43.4,1.66,1.46,2.54,1.85,2.55,1.85l2.69,1.17-2.74,1.01c-.13.05-.88.3-2.22.3Z"/>
      <path class="st5" d="M407.6,197.24c1.04,0,2.03,1.08,1.46,2.28-8.01,16.98-20.59,49.8-8.76,68.51,9.57,15.14,17.93,18.31,23.26,18.31,3.83,0,6.09-1.64,6.09-1.64,0,0-.24,2.65-8.54,4.84-1.38.36-2.71.51-3.98.51-6.33,0-10.91-3.81-10.91-3.81,0,0,1.43,2.98,3.57,4.86,1.89,1.66,2.86,2.05,2.86,2.05,0,0-.62.23-1.82.23-1.67,0-4.46-.43-8.31-2.48-9.31-4.96-37.11-43.28,3.87-93.06.34-.42.77-.59,1.2-.59M407.6,194.89c-1.16,0-2.26.53-3.01,1.45-22.82,27.72-24.07,51.3-21.11,66.21,3.2,16.09,12.42,27.48,17.95,30.42,4.28,2.28,7.48,2.76,9.41,2.76,1.51,0,2.39-.28,2.63-.37l6.22-2.28-2-.69c1.35-.04,2.7-.24,4.01-.58,8.93-2.35,10.17-5.61,10.29-6.9l.48-5.18-4.2,3.06s-1.76,1.19-4.71,1.19c-4.74,0-12.27-2.99-21.27-17.21-11.15-17.62.79-49.07,8.89-66.25.59-1.25.51-2.62-.21-3.77-.73-1.15-2.03-1.87-3.38-1.87h0Z"/>
    </g>
    <g>
      <path class="st4" d="M463.09,291.18s16.96-6.42,22.59-1.86c5.63,4.56-5.91,15.68-5.91,15.68l-45.81,7.9,12.08-5.75c6.69-3.19,12.32-8.24,16.19-14.56l.87-1.41Z"/>
      <path class="st5" d="M425.72,315.52l19.8-9.42c6.5-3.1,11.93-7.98,15.7-14.12l1.08-1.75.38-.14c1.8-.68,17.76-6.52,23.74-1.67,1.24,1.01,1.91,2.33,1.98,3.94.25,5.67-7.49,13.19-7.81,13.5l-.26.25-54.6,9.42ZM463.88,292.14l-.65,1.07c-4,6.53-9.77,11.72-16.69,15.01l-4.36,2.08,37.03-6.39c2.18-2.17,7-7.78,6.84-11.46-.04-.93-.39-1.63-1.11-2.21-4.07-3.3-16.23.14-21.06,1.91Z"/>
    </g>
    <g>
      <path class="st2" d="M427.91,310.65s-2.22,2.37-8.82-2.81c-5.63-4.42-7.14-15.8-.3-15.84s-4.41-5.15-4.76-8.49,9.37-5.07,13.45.8c2.44,3.51,4.4,9.35.93,10.1s-2.69-13.83,4.95-14.01c9.43-.22,6.41,15.61,3.24,14.91-3.17-.7,1.1-14.7,10.33-12.58s.82,17.75-2.34,14.44c-3.17-3.32,9.4-14.17,14.9-8.95,5.98,5.68-9.57,22.95-31.58,22.41Z"/>
      <path class="st5" d="M426.18,312.36c-1.66,0-4.19-.75-7.81-3.6-4.07-3.2-6.33-9.81-4.85-14.16.83-2.42,2.7-3.77,5.27-3.78.23,0,.42,0,.57-.02-.52-.52-1.36-1.21-1.97-1.72-2.12-1.75-4.32-3.56-4.52-5.45-.17-1.58.97-2.98,3.03-3.75,3-1.12,8.34-.91,11.68,2.68,1.45-2.11,3.45-3.28,5.76-3.33,2.98-.07,5.19,1.23,6.46,3.75.01.03.03.06.04.09,2.19-1.56,4.74-2.08,7.37-1.48,2.58.59,4.25,2.29,4.76,4.82,3.04-1.15,6.14-1.12,8.34.97,1.84,1.75,2.16,4.38.91,7.41-2.89,6.98-15.07,17.05-32.24,17.05-.23,0-.46,0-.68,0-.42.25-1.1.53-2.11.53ZM419.52,281.63c-1.06,0-2.04.17-2.8.45-.95.35-1.56.88-1.51,1.3.1.93,2.34,2.78,3.68,3.88,2.15,1.78,3.71,3.06,3.19,4.52-.43,1.21-1.9,1.38-3.27,1.38-1.55,0-2.55.73-3.05,2.19-1.04,3.04.51,8.75,4.08,11.54,4.51,3.55,6.79,3.29,7.29,2.88l.36-.38.48.06c.33,0,.66.01.98.01,15.45,0,27.36-8.95,30.11-15.6.6-1.46,1.04-3.48-.35-4.8-1.65-1.57-4.19-1.25-6.58-.15-.3,4.1-2.88,8.5-5.22,9.58-1.17.54-2.31.34-3.14-.52-1.63-1.71-.83-4.59,2.1-7.52,1.16-1.16,2.5-2.19,3.9-3,0-.02,0-.03,0-.05-.2-1.95-1.21-3.1-3.06-3.53-2.61-.6-4.62.33-6.06,1.56.71,3.57-.11,7.86-1.67,9.86-1.01,1.29-2.06,1.28-2.59,1.16-.48-.11-1.36-.48-1.75-1.75-.71-2.26.49-6.78,3.39-9.99-.77-2.13-2.29-3.23-4.6-3.14-2.14.05-3.49,1.53-4.31,3.03,1.73,2.84,3,6.54,2.08,8.87-.43,1.1-1.29,1.82-2.49,2.08-.88.19-1.74-.13-2.33-.88-1.46-1.82-1.4-6.31.05-9.89-1.72-2.33-4.5-3.17-6.86-3.17ZM449.47,290.48c-.73.53-1.4,1.09-1.96,1.66-1.95,1.96-2.58,3.69-2.06,4.23.08.09.15.15.45.01,1.24-.57,2.9-3.17,3.58-5.9ZM438.53,287.9c-.1.16-.19.3-.26.44-1.59,2.76-1.7,5.17-1.4,5.78.68-.49,1.73-3.2,1.66-6.22ZM427.98,287.53c-.72,3.03-.21,5.46.25,5.75.35-.11.59-.3.73-.66.4-1.02-.03-3.03-.99-5.09Z"/>
    </g>
    <g>
      <path class="st2" d="M410.84,293.79c-1.71,0-4.58-.44-8.5-2.53-4.08-2.17-13.59-12.14-16.96-29.09-2.88-14.5-1.63-37.47,20.7-64.6.39-.48.93-.74,1.52-.74.7,0,1.37.37,1.75.97.36.57.39,1.26.09,1.9-8.28,17.54-20.42,49.71-8.78,68.11,8.99,14.22,17.31,17.2,22.71,17.2,4.61,0,7.53-2.16,7.56-2.18l1.23-.93-.6,1.42c-.08.18-1.95,4.4-10.35,6.61-1.33.35-2.7.53-4.08.53-4.3,0-7.77-1.68-9.65-2.84.61.98,1.51,2.22,2.59,3.17,1.79,1.57,2.74,1.97,2.75,1.98l.98.41-.99.37s-.7.25-1.96.25Z"/>
      <path class="st5" d="M407.59,197.24c1.04,0,2.03,1.08,1.46,2.28-8.01,16.98-20.59,49.8-8.76,68.51,8.96,14.17,17.31,17.4,23.06,17.4,4.82,0,7.81-2.27,7.81-2.27,0,0-1.77,4.19-10.07,6.37-1.38.36-2.71.51-3.98.51-6.33,0-10.91-3.81-10.91-3.81,0,0,1.43,2.98,3.57,4.86,1.89,1.66,2.86,2.05,2.86,2.05,0,0-.62.23-1.82.23-1.67,0-4.46-.43-8.31-2.48-9.31-4.96-37.11-43.28,3.87-93.06.34-.42.77-.59,1.2-.59M407.6,196.41c-.71,0-1.36.32-1.84.89-22.44,27.26-23.69,50.36-20.79,64.94,3.1,15.6,11.91,26.57,17.17,29.38,4,2.13,6.94,2.58,8.7,2.58,1.31,0,2.03-.25,2.11-.28l2.02-.74-2-.81s-.91-.4-2.63-1.9c-.55-.49-1.06-1.06-1.51-1.63,2.03,1.01,4.91,2.03,8.29,2.03,1.41,0,2.82-.18,4.19-.54,8.6-2.26,10.55-6.66,10.62-6.85l1.21-2.86-2.47,1.87s-2.86,2.1-7.31,2.1c-5.29,0-13.47-2.95-22.36-17.01-11.54-18.24.57-50.25,8.8-67.72.36-.77.32-1.61-.12-2.3-.45-.72-1.26-1.16-2.1-1.16h0Z"/>
    </g>
    <g>
      <g>
        <path class="st5" d="M481.89,245.31s8.33-9.51,20.39-17.01c5.83-3.63,10.72-6.9,14.22-9.31,2.95-2.03,6.98-.18,7.38,3.38.89,8.06.3,20.92-9.86,30.28-16.88,15.56-31.05-.91-32.13-7.34Z"/>
        <path class="st2" d="M499.71,261.5c-2.29,0-4.33-.43-6.05-1.02-8.05-2.76-13.35-10.36-14.09-14.78l-.18-1.1.73-.84c.35-.4,8.7-9.86,20.92-17.46,4.83-3,9.58-6.12,14.12-9.25,2.07-1.42,4.67-1.65,6.95-.61,2.29,1.04,3.82,3.16,4.1,5.67.85,7.62.59,21.95-10.6,32.27-5.9,5.44-11.39,7.12-15.9,7.12ZM484.5,245.95c1.12,3.02,5.04,8.14,10.69,10.08,5.66,1.94,11.46.22,17.23-5.11,9.19-8.47,10.03-20.06,9.11-28.3-.13-1.21-1.01-1.74-1.38-1.91-.37-.17-1.33-.48-2.33.21-4.61,3.17-9.42,6.33-14.31,9.37-9.47,5.89-16.65,13.14-19.02,15.65Z"/>
      </g>
      <g>
        <path class="st4" d="M500.14,256.45c-7.62,0-12.08-9.98-13.5-13.8,3.63-2.89,14.48-11.36,25.33-17.99.71,6.39,1.51,20.13-3.59,27.37-1.7,2.41-3.86,3.81-6.63,4.28-.54.09-1.08.14-1.61.14Z"/>
        <path class="st2" d="M509.98,228.67c.46,7.17.12,16.82-3.53,22-1.34,1.9-2.96,2.95-5.1,3.32-.41.07-.82.11-1.21.11-4.98,0-8.79-6.32-10.68-10.69,3.98-3.13,12.03-9.28,20.52-14.73M513.82,220.81c-14.49,8.36-29.94,21.03-29.94,21.03,0,0,4.98,16.95,16.26,16.95.65,0,1.32-.06,2.01-.17,17.8-3.05,11.67-37.81,11.67-37.81h0Z"/>
      </g>
      <g>
        <path class="st5" d="M483.45,243.57s3.11-3.58,3.41-6.95c.2-2.28,0-5.68,0-5.68,0,0,3.12,3.22,6.58.35,4.67-3.85,5.93-12.06,5.93-12.06,0,0,.9,5.93,7.54,1.81,6.63-4.12,9.35-12.26,9.35-12.26,0,0-.6,8.09,3.65,4.62,4.36-3.56,10.42-10.05,10.42-10.05,0,0-2.45,9.85-4.62,21.98-1.76,9.82-2.83,12.51-2.83,12.51,0,0,1.02-4.6,1.39-10,.01-.15.01-.31.01-.47-.05-5.63-6.38-8.96-11.22-6.1l-1.82,1.08-11.42,7.61-8.19,6.63-8.17,6.99Z"/>
        <path class="st2" d="M484.98,245.36l-3.31-3.32c.73-.84,2.66-3.5,2.85-5.62.19-2.07,0-5.3,0-5.33l-.38-6.34,4.42,4.56c.48.47,1.83,1.47,3.4.17,3.91-3.23,5.09-10.54,5.1-10.61l2.36-15.01,2.29,15.02c.05.28.32,1.01.74,1.2.44.19,1.53.03,3.24-1.03,5.8-3.6,8.33-10.94,8.36-11.01l5.94-17.6-1.37,18.53c-.06.8-.02,1.72.08,2.41,4.17-3.46,9.87-9.56,9.93-9.62l6.19-6.63-2.18,8.8c-.02.1-2.45,9.92-4.59,21.83-1.75,9.77-2.84,12.66-2.96,12.96l-4.48-1.37s.99-4.51,1.34-9.66c0-.1,0-.19,0-.28-.02-1.75-.92-3.26-2.48-4.14-1.64-.93-3.58-.91-5.19.04l-1.77,1.04-11.28,7.51-8.11,6.56-8.12,6.95ZM489.3,234.72c0,.25,0,.51-.02.76l.79-.67c-.26-.01-.52-.04-.77-.09ZM500.47,224.34c-.36,1.03-.8,2.14-1.35,3.25l4.14-2.75c-1,.06-1.93-.1-2.78-.5ZM516.87,217.88c1.68,0,3.37.43,4.88,1.28.9.51,1.69,1.13,2.36,1.85.72-3.78,1.44-7.24,2.07-10.1-1.58,1.52-3.27,3.08-4.78,4.32-2.21,1.8-3.91,1.54-4.96,1-.36-.19-.67-.42-.93-.7-.63.99-1.38,2.02-2.24,3.04,1.15-.45,2.38-.68,3.6-.68Z"/>
      </g>
      <path class="st2" d="M520.11,249.22l-3.56-3.06c.75-1.01,1.22-1.8,1.67-2.56.39-.66.76-1.29,1.25-1.95l.93.69c2.42-.23,3.59.16,5.17,1.09l9.26,5.43-10.68-1.06c-.17-.02-.39-.06-.65-.12-.57-.13-1.52-.36-3.39,1.53Z"/>
      <path class="st2" d="M530.41,263.65l-11.31-6.55c-1.34-.78-4.79-1.19-5.62-.92,0,0,.17-.06.37-.25l-3.35-3.3c.57-.62,1.2-1.14,1.81-1.64.5-.41.98-.8,1.32-1.18l.61.56.06-.89c2.93.19,5.85,1.72,7.8,4.08l8.31,10.08Z"/>
      <path class="st2" d="M514.83,269.82l-6.74-7.73c-.72-.83-.8-.86-1.17-1.01-1.03-.41-2.78-.6-3.82-.41l-.97-4.6c.37-.09.77-.16,1.19-.24.74-.14,1.85-.34,2.19-.62l.88-.7,1.1.25c.89.2,2.55.57,3.73,2.65.43.76.48.96.91,2.52l2.7,9.9Z"/>
    </g>
    <g>
      <g>
        <path class="st5" d="M399.17,251.59s4.82-.8,23.32-2.01,28.34,0,28.34,0c0,0,.19,21.79-18.77,26-18.95,4.21-30.48-14.94-32.89-23.99Z"/>
        <path class="st2" d="M426.81,278.52c-16.99,0-27.52-17.36-29.91-26.32l-.67-2.5,2.55-.43c.2-.03,5.15-.84,23.55-2.04,18.5-1.21,28.37-.04,28.78.01l2.05.25.02,2.06c0,.24-.04,23.75-20.61,28.31-2,.44-3.92.65-5.76.65ZM402.29,253.57c3.48,9.04,13.78,23.15,29.26,19.71,13.71-3.04,16.32-16.3,16.81-21.56-3.82-.27-12.59-.65-25.72.2-11.07.72-17.23,1.3-20.35,1.64Z"/>
      </g>
      <g>
        <path class="st4" d="M428.44,273.27c-10.36,0-20.11-13.18-23.97-19.1,1.01-.22,2.11-.46,3.28-.72,5.11-1.15,11.47-2.57,17.43-3.02l2.91-.13c3.29-.15,5.89-.27,8.41-.27,1.17,0,2.25.03,3.31.08.62,3.89,1.61,13.52-2.49,19.06-1.82,2.47-4.43,3.8-7.97,4.07-.3.02-.61.04-.91.04Z"/>
        <path class="st2" d="M436.5,252.37h0c.43,0,.85,0,1.25.01.52,4.61.55,11.49-2.34,15.39-1.41,1.91-3.4,2.9-6.26,3.12-.24.02-.48.03-.73.03-7.46,0-15.31-8.54-20.09-15.2,5-1.12,11.2-2.5,16.94-2.95,1.03-.04,1.99-.09,2.92-.13,3.26-.15,5.83-.27,8.3-.27M436.5,247.67c-3.33,0-6.84.21-11.5.41-9.25.7-19.35,3.66-24.32,4.42,0,0,12.91,23.13,27.76,23.13.36,0,.72-.01,1.09-.04,18.24-1.41,12.26-27.71,12.26-27.71-1.8-.15-3.52-.21-5.28-.21h0Z"/>
      </g>
      <g>
        <path class="st5" d="M449.36,249.44s-4.94-1.03-7.64-2.34c-2.85-1.38-8.43-6.16-8.43-6.16,0,0,1.61,3.45-.95,4.37-3.92,1.4-9.68-3.03-9.68-3.03,0,0,.88,4.04-4.44,4.54-5.86.55-12.93-5.08-12.93-5.08,0,0,5.14,8.53-3.41,8.34-4.7-.1-14.98-2.52-14.98-2.52,0,0,6.84,4.83,10.85,8.92,5.53,5.63,8.71,8.84,8.71,8.84h0c-3.51-6.6.84-14.63,8.28-15.32,5.66-.52,11.35-.97,14.17-.96,6.74.01,20.44.4,20.44.4Z"/>
        <path class="st2" d="M416.04,278.32l-11.24-11.33s-3.18-3.21-8.72-8.85c-3.82-3.89-10.47-8.6-10.53-8.65l-9.89-6.98,11.78,2.77c.1.02,10.09,2.37,14.49,2.46,1.45.04,2.25-.25,2.42-.55.4-.69-.25-2.84-1.08-4.23l-6.59-11.07,10.07,8.02c1.76,1.4,7.21,4.96,11.24,4.57,1.08-.1,1.85-.39,2.16-.82.26-.36.21-.88.21-.88l-1.38-6.29,5.11,3.93c1.53,1.17,5.3,3.33,7.35,2.71,0-.33-.15-.91-.28-1.2l-4.59-9.85,8.25,7.08c1.49,1.28,5.81,4.81,7.92,5.83,2,.97,5.8,1.88,7.1,2.15l-.54,4.65c-.14,0-13.75-.38-20.38-.39h-.05c-2.33,0-7.14.33-13.9.95-2.75.25-5.08,1.79-6.39,4.22-1.31,2.43-1.32,5.22-.02,7.65l7.49,14.09ZM396.18,251.81c1.16,1,2.29,2.03,3.26,3.03,1.34,1.37,2.54,2.59,3.6,3.66.22-1.44.68-2.84,1.4-4.16.6-1.12,1.36-2.12,2.23-2.99-1.07.66-2.61,1.12-4.83,1.09-1.53-.03-3.56-.29-5.66-.63ZM409.17,246.93c-.05.89-.26,1.79-.74,2.61-.13.22-.28.45-.47.67,1.21-.92,2.58-1.62,4.05-2.06-1-.36-1.96-.78-2.84-1.23ZM424.21,246.04c-.08.13-.17.26-.26.39-.13.17-.26.34-.4.49.81-.05,1.56-.1,2.24-.13-.56-.24-1.08-.5-1.57-.75ZM434.51,246.76c.78.01,1.57.03,2.37.04-.49-.36-.98-.73-1.45-1.09-.25.4-.56.75-.93,1.04Z"/>
      </g>
      <path class="st2" d="M401.13,282.05l8.1-9.87c.89-1.08,3.25-2.65,4.79-2.6l-.02.5c.81.17,1.51.51,2.1.79.2.1.41.2.61.28l10.07,4.16-10.89.36c-.35.01-.7,0-1.05-.02-.34-.02-.66-.03-.87,0-.34.05-.66.05-1,.06-.23,0-.63,0-.81.04l-11.01,6.3Z"/>
      <path class="st2" d="M406.75,286.08l9.47-10.83c.18-.2.34-.4.49-.59.45-.56.92-1.14,1.59-1.56l.27.44c.72-.36,1.42-.32,1.75-.3.76.04,1.51.1,2.27.19l15.39,1.73-15.29,2.45c-.29.05-.39.08-.39.09-.55.36-1.08.58-2.21.67-.13,0-.27.01-.48.01-.18,0-.56,0-.68.06l-12.17,7.64Z"/>
    </g>
    <g>
      <g>
        <path class="st2" d="M481.89,245.31s8.33-9.51,20.39-17.01c5.83-3.63,10.72-6.9,14.22-9.31,2.95-2.03,6.98-.18,7.38,3.38.89,8.06.3,20.92-9.86,30.28-16.88,15.56-31.05-.91-32.13-7.34Z"/>
        <path class="st5" d="M499.69,260.32c-2.14,0-4.04-.4-5.65-.95-7.51-2.58-12.64-9.83-13.31-13.86l-.09-.55.37-.42c.34-.39,8.58-9.72,20.65-17.23,4.84-3.01,9.61-6.14,14.17-9.28,1.72-1.19,3.89-1.38,5.8-.51,1.91.87,3.19,2.64,3.42,4.73,1,9.04.04,21.81-10.23,31.28-5.64,5.21-10.86,6.8-15.12,6.8ZM483.17,245.65c.88,3.22,5.13,9.26,11.64,11.49,6.01,2.06,12.38.21,18.41-5.35,9.55-8.8,10.43-20.79,9.48-29.29-.14-1.26-.91-2.32-2.06-2.85-1.15-.52-2.45-.41-3.49.31-4.59,3.16-9.39,6.31-14.26,9.34-10.31,6.42-17.95,14.42-19.73,16.35Z"/>
      </g>
      <g class="st7">
        <g>
          <path class="st4" d="M500.7,255.34c-7.31,0-12.59-10.39-14.55-15.77,3.28-3.25,14.07-13.63,25.04-20.64.98,7.27,2.52,24.3-3.09,32.36-1.54,2.22-3.49,3.5-5.94,3.92-.49.08-.98.13-1.45.13Z"/>
          <path class="st2" d="M509.31,223.01c.86,8.66.98,21-3.16,26.94-1.18,1.7-2.58,2.63-4.4,2.95-.36.06-.71.09-1.06.09-5.38,0-9.75-7.87-11.8-12.83,3.68-3.58,11.77-11.14,20.41-17.15M512.97,215.09c-14.49,8.36-29.52,23.85-29.52,23.85,0,0,5.77,18.75,17.25,18.75.6,0,1.22-.05,1.85-.16,17.81-3.05,10.42-42.44,10.42-42.44h0Z"/>
          <path class="st5" d="M511.18,218.93c.98,7.27,2.52,24.3-3.09,32.36-1.55,2.22-3.49,3.5-5.94,3.92-.49.08-.98.13-1.45.13-7.31,0-12.59-10.39-14.55-15.77,3.28-3.25,14.07-13.63,25.04-20.64M512.97,215.09c-14.49,8.36-29.52,23.85-29.52,23.85,0,0,5.77,18.75,17.25,18.75.6,0,1.22-.05,1.85-.16,17.81-3.05,10.42-42.44,10.42-42.44h0Z"/>
        </g>
      </g>
      <g>
        <path class="st5" d="M483.45,243.57s3.11-3.58,3.41-6.95c.2-2.28,0-5.68,0-5.68,0,0,3.12,3.22,6.58.35,4.67-3.85,5.93-12.06,5.93-12.06,0,0,.9,5.93,7.54,1.81,6.63-4.12,9.35-12.26,9.35-12.26,0,0-.6,8.09,3.65,4.62,4.36-3.56,10.42-10.05,10.42-10.05,0,0-2.45,9.85-4.62,21.98-1.76,9.82-2.83,12.51-2.83,12.51,0,0,1.02-4.6,1.39-10,.01-.15.01-.31.01-.47-.05-5.63-6.38-8.96-11.22-6.1l-1.82,1.08-11.42,7.61-8.19,6.63-8.17,6.99Z"/>
        <path class="st5" d="M484.22,244.46l-1.65-1.66s2.87-3.35,3.13-6.29c.19-2.17,0-5.47,0-5.5l-.19-3.17,2.21,2.28c.24.24,2.47,2.35,4.99.26,4.27-3.53,5.5-11.26,5.52-11.33l1.17-7.58,1.16,7.58s.27,1.58,1.41,2.09c.97.44,2.48.06,4.35-1.1,6.2-3.85,8.82-11.56,8.85-11.64l2.97-8.9-.68,9.36c-.15,2.03.23,4.02.64,4.23h0s.35.01,1.1-.6c4.25-3.47,10.24-9.88,10.3-9.94l3.09-3.32-1.09,4.4c-.02.1-2.46,9.96-4.61,21.9-1.76,9.82-2.85,12.62-2.89,12.74l-2.24-.69s1.01-4.59,1.36-9.83c0-.12.01-.25,0-.38-.02-2.15-1.17-4.07-3.08-5.15-2.01-1.14-4.39-1.12-6.37.05l-1.82,1.08-11.33,7.54-8.15,6.59-8.14,6.97ZM488.12,233.17c.02,1.12.01,2.45-.09,3.55-.05.55-.16,1.11-.32,1.65l3.14-2.69,8.3-6.71,11.42-7.61,1.87-1.11c2.71-1.6,5.96-1.63,8.72-.07,1.62.92,2.85,2.27,3.57,3.88,1.26-6.88,2.59-12.98,3.46-16.8-2.15,2.18-5.09,5.05-7.55,7.06-1.38,1.12-2.61,1.41-3.67.86-.72-.38-1.18-1.1-1.48-1.95-1.55,2.8-4.13,6.42-7.98,8.81-2.62,1.63-4.83,2.04-6.58,1.24-.44-.21-.82-.47-1.13-.77-.84,2.89-2.52,7.13-5.63,9.69-2.21,1.82-4.42,1.68-6.07.98Z"/>
      </g>
      <path class="st5" d="M519.28,248.39l-1.78-1.53c.79-1.06,1.29-1.91,1.74-2.66.37-.63.73-1.23,1.18-1.84l1.47,1.1c1.2.04,2,.36,3.09,1l4.63,2.71-5.34-.53c-.13-.01-.29-.05-.49-.09-.76-.18-2.16-.52-4.5,1.85Z"/>
      <path class="st5" d="M525.35,259.36l-5.65-3.28c-1.78-1.03-5.94-1.43-6.68-.97l-1.64-1.68c.51-.56,1.11-1.05,1.69-1.53.41-.34.8-.66,1.15-.99l.02-.26c.07,0,.15,0,.22.02.02-.02.04-.04.06-.06l.08.08c2.49.27,4.94,1.61,6.6,3.63l4.16,5.04Z"/>
      <path class="st5" d="M512.35,265.18l-3.37-3.87c-.91-1.04-1.08-1.11-1.61-1.32-1.24-.5-3.21-.71-4.47-.48l-.48-2.3c.35-.08.73-.16,1.13-.23,1-.19,2.14-.4,2.71-.85l.44-.35.55.12c.76.17,2.04.46,2.96,2.09.36.63.38.72.8,2.25l1.35,4.95Z"/>
    </g>
    <g>
      <g>
        <path class="st2" d="M399.17,251.59s4.82-.8,23.32-2.01,28.34,0,28.34,0c0,0,.19,21.79-18.77,26-18.95,4.21-30.48-14.94-32.89-23.99Z"/>
        <path class="st5" d="M426.82,277.35c-16.33,0-26.48-16.79-28.79-25.45l-.33-1.25,1.28-.21c.2-.03,5.09-.83,23.43-2.02,18.39-1.2,28.16-.04,28.56,0l1.02.12v1.03c.01.23-.02,22.79-19.68,27.15-1.9.42-3.74.62-5.5.62ZM400.69,252.58c3.04,9.25,14.06,25.64,31.12,21.85,15.67-3.48,17.59-19.46,17.82-23.78-3-.26-12.3-.85-27.06.11-13.17.86-19.42,1.52-21.87,1.82Z"/>
      </g>
      <g>
        <path class="st4" d="M428.02,272.59c-10.57,0-21.09-14.78-25.1-21.08,1.25-.28,2.63-.62,4.12-.98,5.5-1.34,12.34-3.01,18.15-3.45.75-.03,1.54-.05,2.31-.05,3.67,0,6.71.38,9.64.74.93.12,1.88.23,2.84.34.52,4.11,1.29,14.54-3.19,20.4-1.89,2.47-4.48,3.79-7.93,4.06-.28.02-.55.03-.83.03Z"/>
        <path class="st2" d="M427.49,249.38c3.53,0,6.48.37,9.34.72.33.04.67.08,1.01.12.42,4.91.29,12.64-2.93,16.84-1.48,1.93-3.47,2.94-6.25,3.15-.21.02-.43.02-.65.02-7.62,0-16.23-9.96-21.29-17.22.28-.07.57-.14.86-.21,5.39-1.31,12.09-2.95,17.69-3.39.74-.03,1.48-.05,2.21-.05M427.49,244.68c-.8,0-1.63.02-2.49.05-9.25.7-20.85,4.37-25.83,5.13,0,0,13.92,25.08,28.85,25.08.34,0,.67-.01,1.01-.04,18.24-1.41,13-28.97,13-28.97-4.57-.37-8.74-1.26-14.53-1.26h0Z"/>
        <path class="st5" d="M427.49,247.03h0c3.67,0,6.7.37,9.63.74.93.12,1.88.23,2.85.34.52,4.11,1.29,14.54-3.19,20.4-1.89,2.47-4.48,3.79-7.93,4.06-.27.02-.55.03-.83.03-10.57,0-21.1-14.78-25.1-21.08,1.24-.28,2.63-.62,4.11-.98,5.49-1.34,12.31-3,18.11-3.45.79-.03,1.58-.05,2.35-.05M427.49,244.68c-.8,0-1.63.02-2.49.05-9.25.7-20.85,4.37-25.83,5.13,0,0,13.92,25.08,28.85,25.08.34,0,.67-.01,1.01-.04,18.24-1.41,13-28.97,13-28.97-4.57-.37-8.74-1.26-14.53-1.26h0Z"/>
      </g>
      <g>
        <path class="st5" d="M449.36,249.44s-4.94-1.03-7.64-2.34c-2.85-1.38-8.43-6.16-8.43-6.16,0,0,1.61,3.45-.95,4.37-3.92,1.4-9.68-3.03-9.68-3.03,0,0,.88,4.04-4.44,4.54-5.86.55-12.93-5.08-12.93-5.08,0,0,5.14,8.53-3.41,8.34-4.7-.1-14.98-2.52-14.98-2.52,0,0,6.84,4.83,10.85,8.92,5.53,5.63,8.71,8.84,8.71,8.84h0c-3.51-6.6.84-14.63,8.28-15.32,5.66-.52,11.35-.97,14.17-.96,6.74.01,20.44.4,20.44.4Z"/>
        <path class="st5" d="M411.25,271.82l-5.62-5.67s-3.18-3.21-8.71-8.85c-3.9-3.97-10.63-8.74-10.69-8.79l-4.95-3.49,5.89,1.39c.1.02,10.21,2.39,14.73,2.49,1.26.03,2.89-.15,3.46-1.13.87-1.49-.53-4.49-1.09-5.43l-3.33-5.55,5.07,4.03c.07.05,6.76,5.31,12.08,4.83,1.46-.14,2.47-.57,2.99-1.29.6-.82.41-1.82.41-1.83l-.69-3.14,2.55,1.96c1.46,1.12,5.86,3.83,8.56,2.85.39-.14.51-.33.57-.49.27-.65-.08-1.84-.29-2.28l-2.3-4.93,4.13,3.54c.05.05,5.5,4.7,8.17,6,2.54,1.23,7.32,2.24,7.37,2.25l-.27,2.33c-.14,0-13.77-.38-20.41-.4-2.34-.01-7.12.32-14.06.96-3.1.29-5.84,2.09-7.32,4.83-1.48,2.74-1.49,6.01-.03,8.76l3.75,7.05ZM391.92,249.84c2.17,1.7,4.73,3.83,6.68,5.82,2.23,2.28,4.08,4.16,5.5,5.59-.16-2.17.3-4.38,1.37-6.36,1.85-3.43,5.28-5.7,9.17-6.06,6.97-.64,11.75-.97,14.23-.97h.06c3.18,0,7.94.1,12.08.19-1.74-.9-4.25-2.79-6.09-4.26-.04.28-.12.55-.23.82-.35.84-1.03,1.47-1.95,1.8-3.06,1.09-6.87-.72-9.05-2.04-.13.44-.35.91-.68,1.37-.94,1.29-2.51,2.04-4.67,2.25-3.72.35-7.79-1.52-10.53-3.14.3,1.35.33,2.85-.39,4.1-.92,1.59-2.8,2.35-5.55,2.31-2.56-.06-6.65-.76-9.94-1.42Z"/>
      </g>
      <path class="st5" d="M424.93,280.76l.83-3.89c.28-1.32.76-2.19,1.42-2.58l.08.13c.86-.14,1.74-.26,2.62-.36l7.26-.82-6.64,3.06c-1.01.46-2.43,1.31-2.77,1.65l-2.81,2.81Z"/>
      <path class="st5" d="M406.09,277.86l4.05-4.94c.78-.94,2.86-2.2,3.82-2.17l-.02.52c.6.15,1.15.41,1.65.65.22.11.44.21.67.3l5.04,2.08-5.45.18c-.32.01-.64,0-.96-.02-.4-.02-.78-.04-1.11.01-.21.03-.49.04-.82.04-.4,0-1.06,0-1.32.16l-5.54,3.17Z"/>
      <path class="st5" d="M408.81,284.24l7.4-7.67c.67-.71,1.6-1.68,2.97-2.44l.14.26c.38-.11.73-.09.94-.08.74.04,1.48.1,2.21.18l7.7.86-7.65,1.23c-.34.05-.64.1-.91.14-.99.14-1.53.22-2.52.66-.38.17-1.05.57-1.78,1.07l-8.5,5.79Z"/>
    </g>
    <g>
      <path class="st4" d="M347.22,258.23c-1.73,0-2.62-.86-3.06-1.58-2.75-4.49,3.68-17.91,13.06-36.37,1.61-3.16,3.12-6.14,4.42-8.8,3.5-7.18,4.22-15.95,4.86-23.7.81-9.79,1.5-18.25,8.17-18.77.12,0,.25-.01.37-.01,4.89,0,11.95,7.57,12.74,8.43l.31.34v6.13l-7.75-3.64c.8,4.97,2.37,17.61.82,33.4-2,20.32-23.45,44.09-33.68,44.56-.08,0-.17,0-.25,0Z"/>
      <path class="st5" d="M375.03,170.17c4.51,0,11.87,8.05,11.87,8.05v3.82l-8.13-3.82s3.22,14.88,1.21,35.32c-2.01,20.44-23.32,43.08-32.56,43.5-.07,0-.13,0-.2,0-8.81,0,7.49-28.69,15.47-45.06,8.04-16.48,1.81-41.01,12.06-41.81.09,0,.18-.01.28-.01M375.03,167.82c-.16,0-.31,0-.46.02-3.59.28-6.09,2.67-7.44,7.09-1.04,3.41-1.39,7.75-1.81,12.76-.63,7.64-1.34,16.3-4.75,23.28-1.29,2.65-2.81,5.63-4.41,8.79-9.86,19.4-16.09,32.49-13.01,37.51.85,1.38,2.29,2.14,4.06,2.14.1,0,.2,0,.31,0,10.65-.49,32.68-24.13,34.8-45.62,1.39-14.11.35-25.53-.49-31.51l4.07,1.91,3.35,1.57v-8.44l-.62-.67c-1.35-1.47-8.33-8.82-13.61-8.82h0Z"/>
    </g>
    <g>
      <path class="st4" d="M559.01,206.1c-2.61,0-6.01-.72-10.1-2.13-21.62-7.48-45.55-46.78-50.92-55.97l-2.2,4.15-.35.17c-.69.33-4.22,1.99-6.05,1.99-1.14,0-1.6-.61-1.76-.97-.51-1.09.31-2.29,1.27-3.42,1.39-1.65,2.46-3.65,3.5-5.59,1.97-3.67,3.83-7.14,7.47-7.14.42,0,.86.05,1.31.15,2.3.52,3.87,2.4,6.72,5.83,4.92,5.93,14.08,16.96,38,33.96,12.98,9.23,21.12,19.96,19.34,25.51-.5,1.58-2,3.46-6.24,3.46Z"/>
      <path class="st5" d="M499.87,138.35c.33,0,.68.04,1.05.12,5.45,1.22,7.24,13.27,44.29,39.61,17.34,12.32,25.09,26.84,13.79,26.84-2.37,0-5.58-.64-9.72-2.07-23.85-8.26-51.34-57.3-51.34-57.3l-3.02,5.7s-3.88,1.87-5.54,1.87c-.94,0-1.16-.59.4-2.45,4.06-4.81,5.48-12.32,10.08-12.32M499.87,136h0c-4.34,0-6.46,3.95-8.51,7.76-1.01,1.89-2.06,3.84-3.37,5.39-.75.9-2.33,2.76-1.43,4.67.23.5.97,1.65,2.83,1.65,2.04,0,5.54-1.61,6.56-2.11l.7-.34.36-.68,1.03-1.95c7.01,11.76,29.7,47.49,50.48,54.68,4.22,1.46,7.75,2.2,10.49,2.2,5.21,0,6.85-2.68,7.36-4.28,2.28-7.15-8.66-18.92-19.78-26.83-23.8-16.92-32.89-27.87-37.78-33.76-2.91-3.51-4.67-5.62-7.36-6.23-.53-.12-1.06-.18-1.57-.18h0Z"/>
    </g>
    <g>
      <path class="st2" d="M515.83,267.41s-2.88-2.07-4.69-2.54c-1.81-.47-4.15-.6-4.15-.6l-2.23,3.75s3.77,0,5.58,1.01c1.81,1.01,2.48,1.52,2.48,1.52l3.02-3.14Z"/>
      <path class="st5" d="M512.87,271.34l-.42-.32s-.67-.51-2.4-1.48c-1.65-.92-5.26-.93-5.29-.93h-1.03l2.94-4.95.36.02c.1,0,2.42.14,4.27.62,1.89.49,4.76,2.54,4.89,2.63l.55.4-3.85,4.01ZM505.77,267.47c1.29.07,3.52.31,4.85,1.05,1.05.58,1.73,1.01,2.12,1.27l2.19-2.28c-.91-.61-2.71-1.74-3.93-2.06-1.32-.34-2.98-.5-3.69-.56l-1.53,2.59Z"/>
    </g>
  </g>
  <g>
    <path class="st5" d="M403.59,322.85c-1.1.11-19.85-1.28-36.27-17.81-14.88-14.97-16.08-32.84-16.08-32.84l-32.56-5.48s17.96,8.59,25.73,18.61c7.77,10.02-7.64,14.91-7.64,14.91,0,0,17.49-1.62,25.13,7.22,6.27,7.26-2.17,12.68-2.17,12.68,0,0,12.02-1.41,20.26,0,8.24,1.41,23.61,2.71,23.61,2.71Z"/>
    <path class="st2" d="M318.67,266.73l32.56,5.48s1.21,17.86,16.08,32.84c13.01,13.1,27.49,16.69,33.49,17.56-4.81-.44-14.75-1.42-20.82-2.46-2.75-.47-5.91-.63-8.91-.63-6,0-11.34.63-11.34.63,0,0,8.44-5.42,2.17-12.68-5.59-6.47-16.45-7.33-21.88-7.33-1.99,0-3.25.12-3.25.12,0,0,15.41-4.89,7.64-14.91-7.77-10.02-25.73-18.61-25.73-18.61M400.8,322.6c1.72.16,2.79.25,2.79.25-.03,0-.09,0-.16,0-.39,0-1.3-.06-2.63-.25M301.81,261.39l15.79,7.57c.17.08,17.53,8.47,24.85,17.9,1.47,1.89,1.96,3.53,1.51,5-.98,3.18-6.07,5.44-7.95,6.05l-21.41,6.88,22.38-2.07s1.19-.11,3.02-.11c4.33,0,14.96.63,20.01,6.48,1.33,1.54,1.88,2.97,1.68,4.38-.38,2.62-3.28,4.59-3.31,4.61l-8.98,5.77,10.6-1.24c.05,0,5.28-.61,11.05-.61,3.35,0,6.2.2,8.5.59,6.04,1.03,15.69,2,20.95,2.48,1.18.17,2.27.27,2.92.27.18,0,.31,0,.4-.02l-.03-4.92s-1.04-.09-2.7-.24c-4.29-.63-18.96-3.7-32.03-16.85-14-14.09-15.36-31.1-15.37-31.27l-.14-1.94-1.92-.33-32.56-5.48-17.27-2.9h0Z"/>
  </g>
  <g>
    <path class="st2" d="M416.04,394.42c-3.72,0-6.97-1.64-9.55-4.88-13.11-16.43-5.75-75.29-.13-84.77,3.96-6.68,9.87-5.85,16.13-4.98.9.12,1.83.26,2.81.38,2.21.27,4.24.46,6.03.62,8.06.75,13.89,1.29,14.73,8.84h0c3.4,30.57-4.61,77.32-25.4,84.01-1.6.52-3.15.77-4.62.77ZM416.22,304.14c-2.7,0-4.2.78-5.61,3.15-4.67,7.88-11.95,64.53-.26,79.17,2.3,2.88,5.09,3.67,8.79,2.48,17.86-5.75,25.07-51.21,22.01-78.76h0c-.35-3.16-1.5-3.66-10.28-4.47-1.82-.17-3.89-.36-6.17-.64-1.01-.12-1.97-.26-2.9-.39-2.32-.33-4.13-.55-5.59-.55Z"/>
    <path class="st5" d="M443.6,309.92c-.76-6.83-6.55-5.82-18.6-7.29-7.86-.96-12.95-2.61-16.52,3.41-6.15,10.38-16.07,94.11,11.42,85.26,19.32-6.21,26.93-52.38,23.7-81.38Z"/>
    <path class="st4" d="M416.09,393.12c-3.35,0-6.27-1.48-8.58-4.38-12.86-16.11-5.56-73.97-.03-83.3,3.52-5.93,8.51-5.24,14.84-4.36.9.13,1.85.26,2.83.38,2.23.27,4.27.46,6.06.63,8.01.74,12.84,1.19,13.56,7.7h0c3.27,29.42-4.65,76.24-24.51,82.63-1.45.47-2.85.7-4.17.7ZM416.31,302.85c-2.92,0-5.07.84-6.81,3.79-4.85,8.18-12.47,65.21-.15,80.64,2.64,3.31,5.98,4.26,10.2,2.91,18.75-6.03,26.08-51.49,22.89-80.14h0c-.49-4.39-3.14-4.85-11.44-5.62-1.81-.17-3.87-.36-6.13-.63-1-.12-1.96-.26-2.87-.38-2.18-.3-4.05-.57-5.68-.57Z"/>
  </g>
  <g>
    <path class="st2" d="M497.96,316.06s20.32,1.92,32.18-13.56c11.86-15.48,8.44-24.82,8.44-24.82l24.12-10.4s-17.28,12.71-14.87,20.75,6.03,11.79,6.03,11.79c0,0-14-3.99-21.8,7.71-6.48,9.72-3.26,17.15-3.26,17.15,0,0-5.51-3.89-12.2-5.83s-18.64-2.79-18.64-2.79Z"/>
    <path class="st4" d="M562.7,267.28s-17.28,12.71-14.87,20.75c2.41,8.04,6.03,11.79,6.03,11.79,0,0-2.3-.66-5.56-.66-4.77,0-11.6,1.41-16.23,8.36-6.48,9.72-3.26,17.15-3.26,17.15,0,0-5.51-3.89-12.2-5.83-6.06-1.76-16.52-2.63-18.36-2.77.35.02,1,.05,1.9.05,5.56,0,20.49-1.23,30-13.64,11.86-15.48,8.44-24.82,8.44-24.82l24.12-10.4M497.96,316.06s.1,0,.28.02c-.18-.01-.28-.02-.28-.02M581.56,256.46l-19.83,8.55-24.12,10.4-2.14.92.8,2.19s2.64,8.48-8.08,22.47c-8.76,11.43-22.53,12.67-28.04,12.67-.84,0-1.44-.03-1.73-.05l-.28-.02-.41,4.92s.12.01.34.03c1.27.1,11.95.96,17.85,2.68,6.18,1.8,11.41,5.44,11.46,5.48l7.15,5.02-3.47-8.02c-.1-.24-2.53-6.44,3.05-14.8,4-6,9.92-7.26,14.18-7.26,2.83,0,4.87.56,4.89.57l8.73,2.43-6.28-6.52s-3.26-3.52-5.44-10.79c-1.32-4.39,7.38-13.2,13.97-18.05l17.39-12.8h0Z"/>
  </g>
  <g>
    <g>
      <path class="st4" d="M439.27,325.48l-20.17,7.38c-3.56,1.3-4.53,5.87-1.81,8.51l19.39,18.77c.66.64,1.47,1.09,2.36,1.3l57.27,13.85c1.14.28,2.34.15,3.4-.35l24.95-11.81c3.17-1.5,3.94-5.68,1.5-8.2l-15.21-15.75c-.74-.77-1.7-1.28-2.74-1.48l-66.23-12.45c-.91-.17-1.84-.09-2.71.22Z"/>
      <path class="st5" d="M497.52,378.96c-.68,0-1.36-.08-2.03-.24l-57.27-13.85c-1.5-.36-2.88-1.12-3.99-2.19l-19.39-18.77c-2.16-2.09-3.07-5.08-2.45-8.02.62-2.93,2.68-5.3,5.5-6.33l20.17-7.38c1.46-.54,3.04-.67,4.57-.38l66.23,12.45c1.77.33,3.38,1.2,4.63,2.5l15.21,15.75c1.93,2,2.79,4.83,2.29,7.57-.5,2.74-2.3,5.08-4.82,6.27l-24.95,11.8c-1.16.55-2.43.83-3.71.83ZM441.04,328.7c-.19,0-.38.03-.55.1h0l-20.17,7.38c-.73.27-.95.85-1.02,1.17-.07.32-.1.95.45,1.49l19.39,18.77c.21.2.46.34.74.41l57.27,13.85c.36.09.73.05,1.06-.11l24.95-11.8c.65-.31.84-.86.89-1.16.05-.3.07-.89-.42-1.4l-15.21-15.75c-.23-.24-.53-.4-.86-.46l-66.23-12.45c-.1-.02-.2-.03-.29-.03Z"/>
    </g>
    <g>
      <path class="st5" d="M508.58,359.6c-6.59,22.94-31.7,35.85-47.92,31.2-16.61-4.77-30.65-28.93-24.07-51.86,6.59-22.94,23.65-39.88,48.37-32.78,23.53,6.76,30.2,30.51,23.61,53.45Z"/>
      <path class="st5" d="M467.71,395.26c-2.81,0-5.51-.35-8.01-1.07-18.21-5.23-33.75-30.93-26.49-56.23,8.11-28.25,28.81-42.06,52.74-35.19,23.19,6.66,33.89,30.43,26.03,57.81-3.3,11.51-11.09,21.45-21.91,27.99-7.25,4.38-15.16,6.7-22.35,6.7ZM473.9,308.04c-18.05,0-29.22,15.52-33.91,31.86-6.07,21.13,6.89,43.26,21.65,47.5,7.08,2.03,16.34.21,24.77-4.88,9.3-5.62,15.97-14.1,18.78-23.9h0c5.68-19.77,1.32-42.62-21.2-49.08-3.58-1.03-6.94-1.5-10.1-1.5Z"/>
    </g>
    <g>
      <path class="st4" d="M442.48,352.43c-2.85-7.55-2.86-20.5,3.25-22.81,6.11-2.31,16.03,6.91,18.88,14.46,2.85,7.55.2,15.54-5.91,17.84-6.11,2.31-13.38-1.94-16.23-9.49Z"/>
      <path class="st5" d="M455.23,366.08c-2.57,0-5.17-.73-7.63-2.17-3.76-2.2-6.75-5.84-8.41-10.24-1.64-4.35-2.39-10.07-1.95-14.93.59-6.47,3.16-10.88,7.25-12.42,8.59-3.25,20.13,7.78,23.43,16.51,3.53,9.36-.04,19.4-7.96,22.39-1.53.58-3.12.86-4.73.86ZM447.84,332.77c-.32,0-.6.05-.86.14-1.34.51-2.41,3.04-2.72,6.46-.35,3.81.25,8.44,1.52,11.81h0c1.09,2.9,3,5.26,5.37,6.64,2.13,1.24,4.37,1.53,6.31.79,4.28-1.62,6.01-7.58,3.86-13.3-2.39-6.33-9.81-12.54-13.48-12.54Z"/>
    </g>
    <g>
      <path class="st4" d="M482.08,348.09c6.31-5.02,18.64-9,22.71-3.88,4.07,5.11-1.67,17.38-7.98,22.4-6.31,5.02-14.73,4.95-18.8-.16-4.07-5.11-2.25-13.33,4.07-18.35Z"/>
      <path class="st5" d="M486.7,373.84c-4.5,0-8.71-1.74-11.45-5.19-5.27-6.63-3.19-17.09,4.63-23.31h0c6.66-5.3,21.61-10.94,27.67-3.32,5.71,7.19-1.25,21.55-8.55,27.36-3.75,2.98-8.16,4.46-12.3,4.46ZM484.27,350.85h0c-4.78,3.8-6.35,9.81-3.5,13.4,2.85,3.58,9.06,3.4,13.84-.4,5.76-4.58,9.55-14.76,7.42-17.45-2.11-2.66-11.9-.2-17.75,4.45Z"/>
    </g>
  </g>
  <g>
    <g>
      <path class="st2" d="M497.53,374.26c-.31,0-.62-.04-.93-.11l-57.27-13.85c-.68-.17-1.31-.51-1.82-1l-19.38-18.77c-.99-.95-1.4-2.32-1.12-3.66.28-1.34,1.22-2.42,2.51-2.89l20.17-7.38c.44-.16.89-.24,1.36-.24.25,0,.49.02.73.07l66.23,12.45c.81.15,1.54.55,2.11,1.14l15.21,15.75c.9.93,1.28,2.19,1.05,3.46s-1.03,2.31-2.2,2.87l-24.95,11.8c-.53.25-1.11.38-1.69.38h0Z"/>
      <path class="st5" d="M441.04,327.52c.17,0,.34.02.51.05l66.23,12.45c.57.11,1.08.38,1.49.8l15.21,15.75c.63.65.9,1.54.74,2.43-.16.89-.73,1.63-1.55,2.01l-24.95,11.81c-.37.17-.78.27-1.19.27-.22,0-.44-.03-.65-.08l-57.27-13.85c-.48-.12-.92-.36-1.28-.7l-19.39-18.77c-.7-.68-.99-1.62-.79-2.57.2-.96.85-1.7,1.76-2.03l20.17-7.38c.31-.11.63-.17.95-.17M441.04,325.17c-.6,0-1.2.1-1.76.31l-20.17,7.38c-3.56,1.3-4.53,5.87-1.81,8.51l19.39,18.77c.66.64,1.47,1.09,2.36,1.3l57.27,13.85c.4.1.8.14,1.21.14.75,0,1.5-.17,2.19-.49l24.95-11.81c3.17-1.5,3.94-5.68,1.5-8.2l-15.21-15.75c-.74-.77-1.7-1.28-2.74-1.48l-66.23-12.45c-.31-.06-.63-.09-.95-.09h0Z"/>
      <path class="st4" d="M497.52,376.61c-.5,0-.99-.06-1.48-.18l-57.27-13.85c-1.09-.26-2.1-.82-2.9-1.6l-19.39-18.77c-1.57-1.52-2.24-3.7-1.78-5.84.45-2.14,1.95-3.86,4-4.61l20.17-7.38c1.06-.39,2.22-.48,3.33-.28l66.23,12.45c1.29.24,2.46.87,3.37,1.82l15.21,15.75c1.43,1.48,2.04,3.49,1.67,5.51-.37,2.02-1.65,3.69-3.51,4.57l-24.95,11.8c-.85.4-1.77.61-2.7.61ZM441.04,326.35c-.46,0-.92.08-1.36.24l-20.17,7.38c-1.29.47-2.23,1.55-2.51,2.89-.29,1.34.13,2.71,1.12,3.66l19.39,18.77c.51.49,1.14.84,1.82,1l57.27,13.85c.88.21,1.81.12,2.62-.27l24.95-11.8c1.17-.55,1.97-1.6,2.2-2.87s-.15-2.53-1.05-3.46l-15.21-15.75c-.57-.59-1.3-.99-2.11-1.14l-66.23-12.45c-.24-.04-.49-.07-.73-.07Z"/>
    </g>
    <g>
      <path class="st5" d="M467.72,394.08c-2.7,0-5.29-.34-7.7-1.03-17.69-5.08-32.76-30.11-25.68-54.77,7.92-27.56,28.04-41.06,51.28-34.39,11.79,3.38,20.31,11.01,24.64,22.06,3.88,9.9,4.09,22.08.58,34.3h0c-3.22,11.22-10.82,20.92-21.39,27.31-7.07,4.27-14.76,6.53-21.73,6.53ZM473.82,306.85c-18.63,0-30.14,15.93-34.96,32.73-6.25,21.75,7.18,44.57,22.46,48.95,7.39,2.12,17,.25,25.7-5,9.55-5.77,16.41-14.5,19.3-24.58h0c5.84-20.33,1.3-43.84-22-50.54-3.72-1.07-7.22-1.56-10.5-1.56Z"/>
      <path class="st0" d="M508.58,359.6c-6.59,22.94-31.7,35.85-47.92,31.2-16.61-4.77-30.65-28.93-24.07-51.86,6.59-22.94,23.65-39.88,48.37-32.78,23.53,6.76,30.2,30.51,23.61,53.45Z"/>
      <path class="st2" d="M467.73,392.91c-2.59,0-5.08-.32-7.39-.99-8.46-2.43-16.49-9.8-21.46-19.72-5.35-10.68-6.57-22.61-3.41-33.6,7.72-26.88,27.28-40.06,49.83-33.58,11.42,3.28,19.68,10.66,23.87,21.36,3.79,9.66,3.98,21.57.55,33.54-3.14,10.94-10.55,20.4-20.87,26.63-6.88,4.16-14.36,6.36-21.12,6.36ZM473.75,305.66c-19.22,0-31.07,16.35-36.02,33.59-6.42,22.38,7.47,45.88,23.26,50.41,7.7,2.21,17.66.29,26.64-5.13,9.81-5.92,16.85-14.9,19.82-25.26h0c6-20.9,1.27-45.08-22.81-51.99-3.86-1.11-7.5-1.62-10.9-1.62Z"/>
    </g>
    <g>
      <path class="st2" d="M455.25,361.37c-4.79,0-9.58-3.85-11.66-9.36-1.41-3.73-2.04-8.65-1.66-12.85.24-2.65,1.11-7.27,4.23-8.45.5-.19,1.06-.29,1.66-.29,5.6,0,13.32,7.73,15.71,14.06,2.62,6.93.27,14.25-5.22,16.33-.97.37-2,.55-3.05.55Z"/>
      <path class="st4" d="M447.81,331.6h0c4.57,0,12.22,6.96,14.61,13.3,2.39,6.32.35,12.97-4.54,14.81-.84.32-1.72.48-2.63.48-4.31,0-8.65-3.53-10.56-8.6-1.35-3.57-1.96-8.29-1.59-12.33.37-4.04,1.63-6.76,3.48-7.45.37-.14.79-.21,1.24-.21M447.81,329.25c-.73,0-1.42.12-2.07.36-6.11,2.31-6.1,15.26-3.25,22.81,2.32,6.16,7.58,10.12,12.76,10.12,1.17,0,2.34-.2,3.46-.63,6.11-2.31,8.76-10.3,5.91-17.84-2.55-6.74-10.73-14.82-16.81-14.82h0Z"/>
      <path class="st5" d="M455.23,363.72c-2.16,0-4.36-.62-6.45-1.84-3.3-1.93-5.92-5.14-7.4-9.04-1.52-4.04-2.22-9.36-1.8-13.89.5-5.52,2.54-9.23,5.74-10.43,7.09-2.67,17.42,7.25,20.4,15.14,3.07,8.14.11,16.83-6.6,19.36-1.25.47-2.57.71-3.89.71ZM447.81,330.43c-.59,0-1.14.09-1.66.29-3.12,1.18-3.99,5.8-4.23,8.45-.38,4.2.26,9.12,1.66,12.85h0c1.28,3.4,3.55,6.18,6.38,7.84,2.75,1.61,5.71,1.95,8.33.96,5.5-2.08,7.84-9.4,5.22-16.33-2.5-6.62-10.41-14.06-15.71-14.06Z"/>
    </g>
    <g>
      <path class="st2" d="M486.68,369.15c-3.24,0-5.99-1.22-7.76-3.44-3.66-4.6-1.92-12.09,3.88-16.7,4.38-3.48,11.02-6.01,15.78-6.01,2.48,0,4.25.65,5.28,1.94,3.42,4.3-1.65,15.86-7.79,20.75-2.81,2.23-6.14,3.46-9.39,3.46Z"/>
      <path class="st4" d="M498.59,341.83v2.35h0c1.44,0,3.37.26,4.35,1.49,2.73,3.44-1.6,14.32-7.61,19.1-2.6,2.07-5.67,3.21-8.66,3.21s-5.3-1.06-6.84-3c-3.25-4.09-1.6-10.84,3.69-15.05,4.12-3.28,10.59-5.75,15.05-5.75v-2.35M498.59,341.83c-5.34,0-12.28,2.9-16.52,6.27-6.31,5.02-8.14,13.24-4.07,18.35,2.06,2.59,5.23,3.88,8.68,3.88s7-1.24,10.12-3.72c6.31-5.02,12.05-17.29,7.98-22.4-1.34-1.68-3.57-2.38-6.2-2.38h0Z"/>
      <path class="st5" d="M486.69,371.49c-3.8,0-7.32-1.44-9.6-4.31-4.46-5.61-2.56-14.59,4.26-20.01h0c6.66-5.29,19.77-9.47,24.36-3.7,4.72,5.94-1.57,18.8-8.17,24.05-3.33,2.65-7.22,3.96-10.85,3.96ZM482.81,349.01c-5.8,4.61-7.54,12.1-3.88,16.7,3.66,4.6,11.35,4.59,17.15-.02,6.15-4.89,11.22-16.45,7.79-20.75-3.52-4.43-15.21-.58-21.06,4.07h0Z"/>
    </g>
  </g>
  <g>
    <path class="st2" d="M532.37,366.83s-33.69-11.11-47.55,1.57c-11.81,10.81,13.58,6.02,12.42,2.51-1.11-3.36-18.54,4.91-17.29,11.06.9,4.43,19.05-.46,17.98-3.08-1.4-3.41-18.69,5.45-13.33,11,3.35,3.46,23.52-6.63,19.75-9.18-3.87-2.61-13.79,12.8-8.07,14.03,7.81,1.69,14.57-12.18,14.57-12.18,0,0,7.95,5.74,15.13,1.46,7.18-4.28,6.39-17.2,6.39-17.2Z"/>
    <path class="st5" d="M497.62,396.07c-.52,0-1.05-.05-1.58-.17-1.4-.3-2.32-1.25-2.58-2.68-.16-.84-.06-1.84.21-2.92-.42.15-.81.29-1.18.41-4.41,1.43-7.35,1.43-8.73,0-1.41-1.46-1.73-3.31-.91-5.22.09-.2.18-.4.29-.59-.6-.04-1.15-.13-1.64-.26-1.92-.51-2.52-1.6-2.69-2.43-.47-2.32.98-4.68,3.24-6.76-.44-.25-.81-.56-1.07-.94-1.76-2.57,1.87-5.88,3.06-6.97,14.2-13,47.31-2.28,48.71-1.82l.76.25.05.79c.03.56.75,13.69-6.96,18.28-6.17,3.68-12.7.7-15.28-.8-1.77,3.2-7.13,11.83-13.69,11.83ZM496.57,389.11c-.64,1.45-.97,2.78-.81,3.68.09.49.3.71.77.81,5.66,1.22,11.5-7.92,13.27-11.55l.61-1.25,1.13.81c.07.05,7.42,5.23,13.83,1.41,5.5-3.28,5.86-12.53,5.84-15.32-5.09-1.54-33.56-9.45-45.6,1.57-3.07,2.81-2.75,3.8-2.74,3.85.06.16.4.44,1.28.62,2.91-2.09,6.4-3.71,8.92-4.38,3.71-.99,4.92.1,5.28,1.19.29.89.1,2.22-2.48,3.5-2.36,1.17-7.39,2.45-11.06,2.14-2.64,2.06-4.01,4.08-3.71,5.56.07.32.67.61,1.59.75.67.1,1.43.13,2.24.09,3.17-3.17,8.54-5.63,11.4-5.61,1.81.01,2.46.94,2.69,1.49.17.4.33,1.22-.47,2.12-1.64,1.87-7.65,3.86-12.53,4.28-2.17,2.56-.97,3.81-.57,4.22.37.38,2.17.75,6.34-.61,1.03-.33,2.05-.72,3.03-1.14,1.44-2.9,3.73-5.76,5.83-7.14,2.11-1.38,3.54-1.01,4.37-.45.73.49,1.08,1.25.96,2.09-.35,2.47-5.13,5.36-9.4,7.28ZM503.34,381.6c-.49,0-1.11.37-1.4.56-1.08.71-2.2,1.89-3.19,3.24,2.65-1.49,4.55-2.98,4.86-3.75-.08-.03-.17-.05-.27-.05ZM496.33,379.24c-1.25,0-4.17.97-6.85,2.68,3.17-.72,6.13-1.86,7.08-2.66-.07,0-.15-.01-.23-.01ZM495.61,371.29c-1.25,0-3.95.79-6.94,2.4,3.22-.45,6.32-1.59,7.23-2.38-.08-.01-.18-.02-.28-.02Z"/>
  </g>
  <g>
    <path class="st5" d="M511.86,331.31c1.11.54,79.69,33.01,48.33,47.23-48.95,22.2-43.01,3.61-43.01,3.61,0,0,2.1-6.94-1.01-13.57-3.4-7.23-9.48-7.66-9.48-7.66,0,0-4.89-11.9,14.71-9.13,13.53,1.91,23.82,9.95,23.82,9.95"/>
    <path class="st4" d="M525.12,390.61c-3.3,0-5.75-.71-7.35-2.13-2.96-2.64-1.77-6.52-1.71-6.69.01-.05,1.92-6.59-.96-12.71-3.04-6.47-8.28-6.97-8.5-6.98l-.72-.06-.28-.67c-.07-.18-1.79-4.47.78-7.77,2.37-3.06,7.48-4.06,15.18-2.97,13.68,1.93,23.95,9.85,24.38,10.19l-1.45,1.85c-.1-.08-10.22-7.87-23.26-9.71-6.7-.94-11.19-.23-12.99,2.07-1.28,1.64-.93,3.8-.66,4.84,1.91.39,6.71,1.96,9.65,8.21,3.27,6.96,1.17,14.11,1.07,14.41-.04.12-.78,2.64,1.05,4.25,2.53,2.23,11.14,3.98,40.35-9.27,4.47-2.03,6.72-4.5,6.7-7.36-.11-10.44-28.18-26.2-54.43-37.47-.36-.15-.57-.25-.62-.27l1.01-2.12c.06.03.24.11.54.23,16.75,7.19,55.71,25.44,55.85,39.61.04,3.87-2.68,7.08-8.08,9.52-16.14,7.32-28.04,11-35.55,11Z"/>
  </g>
  <g>
    <g>
      <path class="st2" d="M24.83,360.97l1.99-30.99s6.57-11.37,29.73-12.7c26.79-1.55,38.71,9.64,38.71,9.64l4,12.01,2.92-11.68s6.47-3.49,15.69-2.98c10.36.57,14.2,2.98,14.2,2.98l6.87,27.15-114.11,6.58Z"/>
      <path class="st5" d="M23.57,362.23l2.09-32.59.14-.24c.28-.49,7.16-11.93,30.68-13.29,26.98-1.56,39.08,9.48,39.58,9.95l.22.2,2.82,8.46,2.07-8.27.46-.25c.28-.15,6.88-3.64,16.31-3.12,10.54.58,14.59,3.05,14.76,3.16l.4.25,7.33,28.99-116.86,6.74ZM27.97,330.37l-1.89,29.35,111.36-6.42-6.39-25.26c-1.18-.56-5.18-2.15-13.25-2.6-7.4-.41-13.03,1.89-14.61,2.62l-3.77,15.06-5.18-15.53c-1.69-1.41-13.61-10.53-37.62-9.14-20.42,1.18-27.6,10.4-28.65,11.91Z"/>
    </g>
    <g>
      <path class="st0" d="M42.51,377.35c-4.45,0-8.58-1.79-11.62-5.03-3.03-3.23-4.55-7.43-4.28-11.84.89-14.33,8.19-23.43,21.7-27.06,4.1-1.1,8.17-1.66,12.08-1.66,7.54,0,14.68,2.05,21.25,6.09,7.53,4.63,16.29,7.08,25.36,7.08h0c3.28,0,6.58-.32,9.82-.96,2.49-.49,5.12-.78,7.8-.85.19,0,.38,0,.56,0,10.68,0,12.92,8.8,13.01,9.17l.36,1.5,1.53-.15,55.14-5.54c-.16,2.83-.55,8.39-1.36,15.02-.9,7.3-2.17,12.16-2.8,14.25H42.51Z"/>
      <path class="st2" d="M60.39,333.52c7.2,0,14.04,1.96,20.32,5.83,7.8,4.8,16.89,7.34,26.28,7.34,3.4,0,6.82-.34,10.17-1,2.39-.47,4.92-.75,7.51-.82.17,0,.34,0,.51,0,9.07,0,11.1,7.03,11.29,7.8l.7,3.02,3.09-.31,53.07-5.33c-.21,3.06-.58,7.61-1.22,12.84-.73,5.97-1.72,10.27-2.38,12.7H42.51c-3.96,0-7.63-1.59-10.34-4.47-2.7-2.87-4.05-6.61-3.8-10.53.84-13.49,7.7-22.06,20.4-25.47,3.95-1.06,7.86-1.6,11.62-1.6M60.39,329.99c-3.88,0-8.06.52-12.54,1.72-17.44,4.69-22.31,17.52-23,28.66-.63,10.17,7.47,18.75,17.66,18.75h149.85s1.99-5.5,3.26-15.8c1.2-9.81,1.47-17.19,1.47-17.19l-57.18,5.74s-2.44-10.53-14.73-10.53c-.2,0-.4,0-.61,0-2.96.08-5.65.4-8.09.89-3.14.62-6.32.93-9.48.93-8.57,0-17.05-2.27-24.43-6.82-5.79-3.56-13.19-6.35-22.17-6.35h0Z"/>
      <path class="st5" d="M193.18,380.29H42.51c-5.27,0-10.16-2.11-13.76-5.95-3.59-3.83-5.39-8.81-5.07-14.04.67-10.81,5.36-24.74,23.87-29.72,12.88-3.47,24.87-1.86,35.63,4.76,9.73,5.99,21.48,8.03,33.07,5.74,2.65-.52,5.44-.83,8.29-.91,11.27-.29,15.16,7.59,16.2,10.43l57.58-5.78-.05,1.35c0,.07-.29,7.55-1.48,17.29-1.27,10.31-3.24,15.83-3.32,16.06l-.28.78ZM60.43,331.16c-3.98,0-8.08.56-12.27,1.69-13.78,3.71-21.22,12.99-22.13,27.59-.29,4.57,1.29,8.94,4.43,12.28,3.16,3.36,7.44,5.21,12.05,5.21h149c.57-1.84,1.98-6.9,2.94-14.77.89-7.23,1.27-13.18,1.4-15.74l-56.85,5.71-.23-1.01c-.1-.41-2.43-9.62-13.59-9.62-.19,0-.38,0-.57,0-2.72.07-5.37.37-7.9.86-12.17,2.41-24.52.26-34.76-6.04-6.69-4.12-13.89-6.18-21.51-6.18Z"/>
    </g>
  </g>
  <path class="st5" d="M511.74,336.36c-.71-5.18-2.32-9.39-2.33-9.43l2.19-.85c.07.18,1.73,4.5,2.47,9.96l-2.32.32Z"/>
</svg>